<mxfile host="app.diagrams.net" modified="2022-08-23T03:06:11.850Z" agent="5.0 (Windows NT 10.0; Win64; x64) AppleWebKit/537.36 (KHTML, like Gecko) Chrome/103.0.5060.134 Safari/537.36 OPR/89.0.4447.101" etag="YofeCQ_NMsScqXQrKFJB" version="20.2.6" type="github" pages="5">
  <diagram name="Home" id="03018318-947c-dd8e-b7a3-06fadd420f32">
    <mxGraphModel dx="1815" dy="982" grid="1" gridSize="10" guides="1" tooltips="1" connect="1" arrows="1" fold="1" page="1" pageScale="1" pageWidth="1100" pageHeight="850" background="#ffffff" math="0" shadow="0">
      <root>
        <mxCell id="0" />
        <mxCell id="1" parent="0" />
        <mxCell id="677b7b8949515195-1" value="" style="whiteSpace=wrap;html=1;rounded=0;shadow=0;labelBackgroundColor=none;strokeColor=#23445d;strokeWidth=1;fillColor=#bac8d3;fontFamily=Verdana;fontSize=12;align=center;comic=1;" parent="1" vertex="1">
          <mxGeometry x="20" y="20" width="1060" height="810" as="geometry" />
        </mxCell>
        <mxCell id="677b7b8949515195-2" value="LOGO" style="whiteSpace=wrap;html=1;rounded=0;shadow=0;labelBackgroundColor=none;strokeWidth=1;fontFamily=Verdana;fontSize=28;align=center;comic=1;" parent="1" vertex="1">
          <mxGeometry x="60" y="60" width="190" height="50" as="geometry" />
        </mxCell>
        <mxCell id="677b7b8949515195-3" value="Search" style="strokeWidth=1;shadow=0;dashed=0;align=center;html=1;shape=mxgraph.mockup.forms.searchBox;strokeColor=#999999;mainText=;strokeColor2=#008cff;fontColor=#666666;fontSize=17;align=left;spacingLeft=3;rounded=0;labelBackgroundColor=none;comic=1;" parent="1" vertex="1">
          <mxGeometry x="750" y="90" width="220" height="30" as="geometry" />
        </mxCell>
        <mxCell id="677b7b8949515195-4" value="Información" style="text;html=1;points=[];align=left;verticalAlign=top;spacingTop=-4;fontSize=14;fontFamily=Verdana" parent="1" vertex="1">
          <mxGeometry x="750" y="40" width="60" height="20" as="geometry" />
        </mxCell>
        <mxCell id="677b7b8949515195-6" value="Registrate" style="text;html=1;points=[];align=left;verticalAlign=top;spacingTop=-4;fontSize=14;fontFamily=Verdana" parent="1" vertex="1">
          <mxGeometry x="880" y="40" width="60" height="20" as="geometry" />
        </mxCell>
        <mxCell id="677b7b8949515195-7" value="Log in" style="text;html=1;points=[];align=left;verticalAlign=top;spacingTop=-4;fontSize=14;fontFamily=Verdana" parent="1" vertex="1">
          <mxGeometry x="1000" y="40" width="60" height="20" as="geometry" />
        </mxCell>
        <mxCell id="677b7b8949515195-9" value="" style="line;strokeWidth=1;html=1;rounded=0;shadow=0;labelBackgroundColor=none;fillColor=none;fontFamily=Verdana;fontSize=14;fontColor=#000000;align=center;comic=1;" parent="1" vertex="1">
          <mxGeometry x="20" y="140" width="1060" height="10" as="geometry" />
        </mxCell>
        <mxCell id="677b7b8949515195-10" value="" style="whiteSpace=wrap;html=1;rounded=0;shadow=0;labelBackgroundColor=none;strokeWidth=1;fillColor=#000000;fontFamily=Verdana;fontSize=12;align=center;comic=1;" parent="1" vertex="1">
          <mxGeometry x="30" y="160" width="1040" height="50" as="geometry" />
        </mxCell>
        <mxCell id="677b7b8949515195-11" value="Home" style="text;html=1;points=[];align=left;verticalAlign=top;spacingTop=-4;fontSize=14;fontFamily=Verdana;fontColor=#FFFFFF;" parent="1" vertex="1">
          <mxGeometry x="40" y="174" width="60" height="20" as="geometry" />
        </mxCell>
        <mxCell id="677b7b8949515195-12" value="Accesorios" style="text;html=1;points=[];align=left;verticalAlign=top;spacingTop=-4;fontSize=14;fontFamily=Verdana;fontColor=#FFFFFF;" parent="1" vertex="1">
          <mxGeometry x="100" y="172.5" width="80" height="25" as="geometry" />
        </mxCell>
        <mxCell id="677b7b8949515195-13" value="Cascos" style="text;html=1;points=[];align=left;verticalAlign=top;spacingTop=-4;fontSize=14;fontFamily=Verdana" parent="1" vertex="1">
          <mxGeometry x="190" y="175" width="60" height="20" as="geometry" />
        </mxCell>
        <mxCell id="677b7b8949515195-14" value="Vestuarios" style="text;html=1;points=[];align=left;verticalAlign=top;spacingTop=-4;fontSize=14;fontFamily=Verdana;fontColor=#FFFFFF;" parent="1" vertex="1">
          <mxGeometry x="260" y="175" width="80" height="20" as="geometry" />
        </mxCell>
        <mxCell id="677b7b8949515195-15" value="&lt;div style=&quot;text-align: justify&quot;&gt;&lt;font style=&quot;font-size: 30px;&quot;&gt;INFORMACIÓN GENERAL&lt;/font&gt;&lt;/div&gt;" style="whiteSpace=wrap;html=1;rounded=0;shadow=0;labelBackgroundColor=none;strokeWidth=1;fillColor=none;fontFamily=Verdana;fontSize=12;align=center;verticalAlign=top;spacing=10;comic=1;" parent="1" vertex="1">
          <mxGeometry x="50" y="710" width="1010" height="110" as="geometry" />
        </mxCell>
        <mxCell id="O-Ux-SurYgGy56MYbRqD-2" value="Botas" style="text;html=1;points=[];align=left;verticalAlign=top;spacingTop=-4;fontSize=14;fontFamily=Verdana" parent="1" vertex="1">
          <mxGeometry x="350" y="177.5" width="80" height="20" as="geometry" />
        </mxCell>
        <mxCell id="O-Ux-SurYgGy56MYbRqD-3" value="Maletas&amp;nbsp;" style="text;html=1;points=[];align=left;verticalAlign=top;spacingTop=-4;fontSize=14;fontFamily=Verdana" parent="1" vertex="1">
          <mxGeometry x="420" y="177.5" width="70" height="20" as="geometry" />
        </mxCell>
        <mxCell id="O-Ux-SurYgGy56MYbRqD-4" value="Guantes" style="text;html=1;points=[];align=left;verticalAlign=top;spacingTop=-4;fontSize=14;fontFamily=Verdana" parent="1" vertex="1">
          <mxGeometry x="490" y="177.5" width="70" height="20" as="geometry" />
        </mxCell>
        <mxCell id="O-Ux-SurYgGy56MYbRqD-5" value="" style="rounded=0;whiteSpace=wrap;html=1;image=https://png.pngtree.com/png-vector/20190725/ourlarge/pngtree-vector-shopping-bag-icon-png-image_1577291.jpg;" parent="1" vertex="1">
          <mxGeometry x="1020" y="85" width="40" height="35" as="geometry" />
        </mxCell>
        <mxCell id="O-Ux-SurYgGy56MYbRqD-7" value="&lt;font style=&quot;font-size: 30px;&quot;&gt;LO MAS VENDIDO&lt;/font&gt;" style="whiteSpace=wrap;html=1;aspect=fixed;fontSize=60;" parent="1" vertex="1">
          <mxGeometry x="70" y="440" width="220" height="220" as="geometry" />
        </mxCell>
        <mxCell id="O-Ux-SurYgGy56MYbRqD-12" value="&lt;font style=&quot;font-size: 95px;&quot;&gt;OFERTAS&lt;br&gt;&lt;/font&gt;" style="rounded=0;whiteSpace=wrap;html=1;" parent="1" vertex="1">
          <mxGeometry x="70" y="240" width="950" height="180" as="geometry" />
        </mxCell>
        <mxCell id="O-Ux-SurYgGy56MYbRqD-13" value="&lt;font style=&quot;font-size: 30px;&quot;&gt;LO MAS BUSCADO&lt;/font&gt;" style="whiteSpace=wrap;html=1;aspect=fixed;fontSize=60;" parent="1" vertex="1">
          <mxGeometry x="310" y="440" width="220" height="220" as="geometry" />
        </mxCell>
        <mxCell id="O-Ux-SurYgGy56MYbRqD-14" value="&lt;span style=&quot;font-size: 30px;&quot;&gt;MUJERES&lt;/span&gt;" style="whiteSpace=wrap;html=1;aspect=fixed;fontSize=60;" parent="1" vertex="1">
          <mxGeometry x="560" y="440" width="220" height="220" as="geometry" />
        </mxCell>
        <mxCell id="O-Ux-SurYgGy56MYbRqD-15" value="&lt;span style=&quot;font-size: 30px;&quot;&gt;NUEVOS PRODUCTOS&lt;/span&gt;" style="whiteSpace=wrap;html=1;aspect=fixed;fontSize=60;" parent="1" vertex="1">
          <mxGeometry x="800" y="440" width="220" height="220" as="geometry" />
        </mxCell>
        <mxCell id="O-Ux-SurYgGy56MYbRqD-18" value="Guantes" style="text;html=1;points=[];align=left;verticalAlign=top;spacingTop=-4;fontSize=14;fontFamily=Verdana" parent="1" vertex="1">
          <mxGeometry x="490" y="177.5" width="70" height="20" as="geometry" />
        </mxCell>
        <mxCell id="O-Ux-SurYgGy56MYbRqD-19" value="Maletas&amp;nbsp;" style="text;html=1;points=[];align=left;verticalAlign=top;spacingTop=-4;fontSize=14;fontFamily=Verdana" parent="1" vertex="1">
          <mxGeometry x="420" y="177.5" width="70" height="20" as="geometry" />
        </mxCell>
        <mxCell id="O-Ux-SurYgGy56MYbRqD-20" value="Guantes" style="text;html=1;points=[];align=left;verticalAlign=top;spacingTop=-4;fontSize=14;fontFamily=Verdana" parent="1" vertex="1">
          <mxGeometry x="490" y="177.5" width="70" height="20" as="geometry" />
        </mxCell>
        <mxCell id="O-Ux-SurYgGy56MYbRqD-21" value="Maletas&amp;nbsp;" style="text;html=1;points=[];align=left;verticalAlign=top;spacingTop=-4;fontSize=14;fontFamily=Verdana" parent="1" vertex="1">
          <mxGeometry x="420" y="177.5" width="70" height="20" as="geometry" />
        </mxCell>
        <mxCell id="O-Ux-SurYgGy56MYbRqD-22" value="Guantes" style="text;html=1;points=[];align=left;verticalAlign=top;spacingTop=-4;fontSize=14;fontFamily=Verdana" parent="1" vertex="1">
          <mxGeometry x="490" y="177.5" width="70" height="20" as="geometry" />
        </mxCell>
        <mxCell id="O-Ux-SurYgGy56MYbRqD-23" value="Maletas&amp;nbsp;" style="text;html=1;points=[];align=left;verticalAlign=top;spacingTop=-4;fontSize=14;fontFamily=Verdana" parent="1" vertex="1">
          <mxGeometry x="420" y="177.5" width="70" height="20" as="geometry" />
        </mxCell>
        <mxCell id="O-Ux-SurYgGy56MYbRqD-24" value="Botas" style="text;html=1;points=[];align=left;verticalAlign=top;spacingTop=-4;fontSize=14;fontFamily=Verdana" parent="1" vertex="1">
          <mxGeometry x="350" y="177.5" width="80" height="20" as="geometry" />
        </mxCell>
        <mxCell id="O-Ux-SurYgGy56MYbRqD-25" value="Guantes" style="text;html=1;points=[];align=left;verticalAlign=top;spacingTop=-4;fontSize=14;fontFamily=Verdana;fontColor=#FFFFFF;" parent="1" vertex="1">
          <mxGeometry x="490" y="176.25" width="70" height="20" as="geometry" />
        </mxCell>
        <mxCell id="O-Ux-SurYgGy56MYbRqD-26" value="Maletas&amp;nbsp;" style="text;html=1;points=[];align=left;verticalAlign=top;spacingTop=-4;fontSize=14;fontFamily=Verdana;fontColor=#FFFFFF;" parent="1" vertex="1">
          <mxGeometry x="420" y="176.25" width="70" height="20" as="geometry" />
        </mxCell>
        <mxCell id="O-Ux-SurYgGy56MYbRqD-27" value="Botas" style="text;html=1;points=[];align=left;verticalAlign=top;spacingTop=-4;fontSize=14;fontFamily=Verdana;fontColor=#FFFFFF;" parent="1" vertex="1">
          <mxGeometry x="350" y="176.25" width="80" height="20" as="geometry" />
        </mxCell>
        <mxCell id="O-Ux-SurYgGy56MYbRqD-28" value="Cascos" style="text;html=1;points=[];align=left;verticalAlign=top;spacingTop=-4;fontSize=14;fontFamily=Verdana;fontColor=#FFFFFF;" parent="1" vertex="1">
          <mxGeometry x="190" y="173.75" width="60" height="20" as="geometry" />
        </mxCell>
      </root>
    </mxGraphModel>
  </diagram>
  <diagram name="Detalle de producto" id="qi6E903TK2gSdMtH_BAd">
    <mxGraphModel dx="1815" dy="982" grid="1" gridSize="10" guides="1" tooltips="1" connect="1" arrows="1" fold="1" page="1" pageScale="1" pageWidth="1100" pageHeight="850" background="#ffffff" math="0" shadow="0">
      <root>
        <mxCell id="sINpw-YLxs04fBcpuQgI-0" />
        <mxCell id="sINpw-YLxs04fBcpuQgI-1" parent="sINpw-YLxs04fBcpuQgI-0" />
        <mxCell id="sINpw-YLxs04fBcpuQgI-2" value="" style="whiteSpace=wrap;html=1;rounded=0;shadow=0;labelBackgroundColor=none;strokeColor=#23445d;strokeWidth=1;fillColor=#bac8d3;fontFamily=Verdana;fontSize=12;align=center;comic=1;" parent="sINpw-YLxs04fBcpuQgI-1" vertex="1">
          <mxGeometry x="20" y="20" width="1060" height="810" as="geometry" />
        </mxCell>
        <mxCell id="sINpw-YLxs04fBcpuQgI-3" value="LOGO" style="whiteSpace=wrap;html=1;rounded=0;shadow=0;labelBackgroundColor=none;strokeWidth=1;fontFamily=Verdana;fontSize=28;align=center;comic=1;" parent="sINpw-YLxs04fBcpuQgI-1" vertex="1">
          <mxGeometry x="60" y="60" width="190" height="50" as="geometry" />
        </mxCell>
        <mxCell id="sINpw-YLxs04fBcpuQgI-4" value="Search" style="strokeWidth=1;shadow=0;dashed=0;align=center;html=1;shape=mxgraph.mockup.forms.searchBox;strokeColor=#999999;mainText=;strokeColor2=#008cff;fontColor=#666666;fontSize=17;align=left;spacingLeft=3;rounded=0;labelBackgroundColor=none;comic=1;" parent="sINpw-YLxs04fBcpuQgI-1" vertex="1">
          <mxGeometry x="750" y="90" width="220" height="30" as="geometry" />
        </mxCell>
        <mxCell id="sINpw-YLxs04fBcpuQgI-5" value="Información" style="text;html=1;points=[];align=left;verticalAlign=top;spacingTop=-4;fontSize=14;fontFamily=Verdana" parent="sINpw-YLxs04fBcpuQgI-1" vertex="1">
          <mxGeometry x="750" y="40" width="60" height="20" as="geometry" />
        </mxCell>
        <mxCell id="sINpw-YLxs04fBcpuQgI-6" value="Registrate" style="text;html=1;points=[];align=left;verticalAlign=top;spacingTop=-4;fontSize=14;fontFamily=Verdana" parent="sINpw-YLxs04fBcpuQgI-1" vertex="1">
          <mxGeometry x="880" y="40" width="60" height="20" as="geometry" />
        </mxCell>
        <mxCell id="sINpw-YLxs04fBcpuQgI-7" value="Log in" style="text;html=1;points=[];align=left;verticalAlign=top;spacingTop=-4;fontSize=14;fontFamily=Verdana" parent="sINpw-YLxs04fBcpuQgI-1" vertex="1">
          <mxGeometry x="1000" y="40" width="60" height="20" as="geometry" />
        </mxCell>
        <mxCell id="sINpw-YLxs04fBcpuQgI-8" value="" style="line;strokeWidth=1;html=1;rounded=0;shadow=0;labelBackgroundColor=none;fillColor=none;fontFamily=Verdana;fontSize=14;fontColor=#000000;align=center;comic=1;" parent="sINpw-YLxs04fBcpuQgI-1" vertex="1">
          <mxGeometry x="20" y="140" width="1060" height="10" as="geometry" />
        </mxCell>
        <mxCell id="sINpw-YLxs04fBcpuQgI-9" value="" style="whiteSpace=wrap;html=1;rounded=0;shadow=0;labelBackgroundColor=none;strokeWidth=1;fillColor=#000000;fontFamily=Verdana;fontSize=12;align=center;comic=1;" parent="sINpw-YLxs04fBcpuQgI-1" vertex="1">
          <mxGeometry x="30" y="160" width="1040" height="50" as="geometry" />
        </mxCell>
        <mxCell id="sINpw-YLxs04fBcpuQgI-10" value="Home" style="text;html=1;points=[];align=left;verticalAlign=top;spacingTop=-4;fontSize=14;fontFamily=Verdana;fontColor=#FFFFFF;" parent="sINpw-YLxs04fBcpuQgI-1" vertex="1">
          <mxGeometry x="40" y="174" width="60" height="20" as="geometry" />
        </mxCell>
        <mxCell id="sINpw-YLxs04fBcpuQgI-11" value="Accesorios" style="text;html=1;points=[];align=left;verticalAlign=middle;spacingTop=-4;fontSize=14;fontFamily=Verdana;fillColor=#647687;strokeColor=#314354;fontColor=#ffffff;" parent="sINpw-YLxs04fBcpuQgI-1" vertex="1">
          <mxGeometry x="100" y="172.5" width="80" height="25" as="geometry" />
        </mxCell>
        <mxCell id="sINpw-YLxs04fBcpuQgI-12" value="Cascos" style="text;html=1;points=[];align=left;verticalAlign=top;spacingTop=-4;fontSize=14;fontFamily=Verdana" parent="sINpw-YLxs04fBcpuQgI-1" vertex="1">
          <mxGeometry x="190" y="175" width="60" height="20" as="geometry" />
        </mxCell>
        <mxCell id="sINpw-YLxs04fBcpuQgI-13" value="Vestuarios" style="text;html=1;points=[];align=left;verticalAlign=top;spacingTop=-4;fontSize=14;fontFamily=Verdana;fontColor=#FFFFFF;" parent="sINpw-YLxs04fBcpuQgI-1" vertex="1">
          <mxGeometry x="260" y="175" width="80" height="20" as="geometry" />
        </mxCell>
        <mxCell id="sINpw-YLxs04fBcpuQgI-14" value="&lt;div style=&quot;text-align: justify&quot;&gt;&lt;font style=&quot;font-size: 30px;&quot;&gt;INFORMACIÓN GENERAL&lt;/font&gt;&lt;/div&gt;" style="whiteSpace=wrap;html=1;rounded=0;shadow=0;labelBackgroundColor=none;strokeWidth=1;fillColor=none;fontFamily=Verdana;fontSize=12;align=center;verticalAlign=top;spacing=10;comic=1;" parent="sINpw-YLxs04fBcpuQgI-1" vertex="1">
          <mxGeometry x="50" y="710" width="1010" height="110" as="geometry" />
        </mxCell>
        <mxCell id="sINpw-YLxs04fBcpuQgI-15" value="Botas" style="text;html=1;points=[];align=left;verticalAlign=top;spacingTop=-4;fontSize=14;fontFamily=Verdana" parent="sINpw-YLxs04fBcpuQgI-1" vertex="1">
          <mxGeometry x="350" y="177.5" width="80" height="20" as="geometry" />
        </mxCell>
        <mxCell id="sINpw-YLxs04fBcpuQgI-16" value="Maletas&amp;nbsp;" style="text;html=1;points=[];align=left;verticalAlign=top;spacingTop=-4;fontSize=14;fontFamily=Verdana" parent="sINpw-YLxs04fBcpuQgI-1" vertex="1">
          <mxGeometry x="420" y="177.5" width="70" height="20" as="geometry" />
        </mxCell>
        <mxCell id="sINpw-YLxs04fBcpuQgI-17" value="Guantes" style="text;html=1;points=[];align=left;verticalAlign=top;spacingTop=-4;fontSize=14;fontFamily=Verdana" parent="sINpw-YLxs04fBcpuQgI-1" vertex="1">
          <mxGeometry x="490" y="177.5" width="70" height="20" as="geometry" />
        </mxCell>
        <mxCell id="sINpw-YLxs04fBcpuQgI-18" value="" style="rounded=0;whiteSpace=wrap;html=1;image=https://png.pngtree.com/png-vector/20190725/ourlarge/pngtree-vector-shopping-bag-icon-png-image_1577291.jpg;" parent="sINpw-YLxs04fBcpuQgI-1" vertex="1">
          <mxGeometry x="1020" y="85" width="40" height="35" as="geometry" />
        </mxCell>
        <mxCell id="sINpw-YLxs04fBcpuQgI-21" value="" style="whiteSpace=wrap;html=1;aspect=fixed;fontSize=60;image=https://png.pngtree.com/png-vector/20191030/ourlarge/pngtree-racing-helmet-icon-simple-style-png-image_1911229.jpg;perimeterSpacing=1;noLabel=1;autosize=1;imageWidth=350;arcSize=12;imageHeight=350;" parent="sINpw-YLxs04fBcpuQgI-1" vertex="1">
          <mxGeometry x="60" y="260" width="380" height="380" as="geometry" />
        </mxCell>
        <mxCell id="sINpw-YLxs04fBcpuQgI-24" value="Guantes" style="text;html=1;points=[];align=left;verticalAlign=top;spacingTop=-4;fontSize=14;fontFamily=Verdana" parent="sINpw-YLxs04fBcpuQgI-1" vertex="1">
          <mxGeometry x="490" y="177.5" width="70" height="20" as="geometry" />
        </mxCell>
        <mxCell id="sINpw-YLxs04fBcpuQgI-25" value="Maletas&amp;nbsp;" style="text;html=1;points=[];align=left;verticalAlign=top;spacingTop=-4;fontSize=14;fontFamily=Verdana" parent="sINpw-YLxs04fBcpuQgI-1" vertex="1">
          <mxGeometry x="420" y="177.5" width="70" height="20" as="geometry" />
        </mxCell>
        <mxCell id="sINpw-YLxs04fBcpuQgI-26" value="Guantes" style="text;html=1;points=[];align=left;verticalAlign=top;spacingTop=-4;fontSize=14;fontFamily=Verdana" parent="sINpw-YLxs04fBcpuQgI-1" vertex="1">
          <mxGeometry x="490" y="177.5" width="70" height="20" as="geometry" />
        </mxCell>
        <mxCell id="sINpw-YLxs04fBcpuQgI-27" value="Maletas&amp;nbsp;" style="text;html=1;points=[];align=left;verticalAlign=top;spacingTop=-4;fontSize=14;fontFamily=Verdana" parent="sINpw-YLxs04fBcpuQgI-1" vertex="1">
          <mxGeometry x="420" y="177.5" width="70" height="20" as="geometry" />
        </mxCell>
        <mxCell id="sINpw-YLxs04fBcpuQgI-28" value="Guantes" style="text;html=1;points=[];align=left;verticalAlign=top;spacingTop=-4;fontSize=14;fontFamily=Verdana" parent="sINpw-YLxs04fBcpuQgI-1" vertex="1">
          <mxGeometry x="490" y="177.5" width="70" height="20" as="geometry" />
        </mxCell>
        <mxCell id="sINpw-YLxs04fBcpuQgI-29" value="Maletas&amp;nbsp;" style="text;html=1;points=[];align=left;verticalAlign=top;spacingTop=-4;fontSize=14;fontFamily=Verdana" parent="sINpw-YLxs04fBcpuQgI-1" vertex="1">
          <mxGeometry x="420" y="177.5" width="70" height="20" as="geometry" />
        </mxCell>
        <mxCell id="sINpw-YLxs04fBcpuQgI-30" value="Botas" style="text;html=1;points=[];align=left;verticalAlign=top;spacingTop=-4;fontSize=14;fontFamily=Verdana" parent="sINpw-YLxs04fBcpuQgI-1" vertex="1">
          <mxGeometry x="350" y="177.5" width="80" height="20" as="geometry" />
        </mxCell>
        <mxCell id="sINpw-YLxs04fBcpuQgI-31" value="Guantes" style="text;html=1;points=[];align=left;verticalAlign=top;spacingTop=-4;fontSize=14;fontFamily=Verdana;fontColor=#FFFFFF;" parent="sINpw-YLxs04fBcpuQgI-1" vertex="1">
          <mxGeometry x="490" y="176.25" width="70" height="20" as="geometry" />
        </mxCell>
        <mxCell id="sINpw-YLxs04fBcpuQgI-32" value="Maletas&amp;nbsp;" style="text;html=1;points=[];align=left;verticalAlign=top;spacingTop=-4;fontSize=14;fontFamily=Verdana;fontColor=#FFFFFF;" parent="sINpw-YLxs04fBcpuQgI-1" vertex="1">
          <mxGeometry x="420" y="176.25" width="70" height="20" as="geometry" />
        </mxCell>
        <mxCell id="sINpw-YLxs04fBcpuQgI-33" value="Botas" style="text;html=1;points=[];align=left;verticalAlign=top;spacingTop=-4;fontSize=14;fontFamily=Verdana;fontColor=#FFFFFF;" parent="sINpw-YLxs04fBcpuQgI-1" vertex="1">
          <mxGeometry x="350" y="176.25" width="80" height="20" as="geometry" />
        </mxCell>
        <mxCell id="sINpw-YLxs04fBcpuQgI-34" value="Cascos" style="text;html=1;points=[];align=left;verticalAlign=top;spacingTop=-4;fontSize=14;fontFamily=Verdana;fontColor=#FFFFFF;" parent="sINpw-YLxs04fBcpuQgI-1" vertex="1">
          <mxGeometry x="190" y="173.75" width="60" height="20" as="geometry" />
        </mxCell>
        <mxCell id="zGtK6ONJGtK0DiuM_sqW-0" value="&lt;font style=&quot;font-size: 50px;&quot;&gt;Nombre del producto&amp;nbsp;&lt;/font&gt;" style="rounded=0;whiteSpace=wrap;html=1;fillColor=default;" parent="sINpw-YLxs04fBcpuQgI-1" vertex="1">
          <mxGeometry x="460" y="260" width="530" height="50" as="geometry" />
        </mxCell>
        <mxCell id="zGtK6ONJGtK0DiuM_sqW-1" value="&lt;font style=&quot;font-size: 50px;&quot;&gt;Precio&lt;/font&gt;" style="rounded=0;whiteSpace=wrap;html=1;fillColor=default;" parent="sINpw-YLxs04fBcpuQgI-1" vertex="1">
          <mxGeometry x="620" y="450" width="200" height="50" as="geometry" />
        </mxCell>
        <mxCell id="zGtK6ONJGtK0DiuM_sqW-2" value="&lt;font style=&quot;font-size: 50px;&quot;&gt;Descripción&lt;/font&gt;" style="rounded=0;whiteSpace=wrap;html=1;fillColor=default;" parent="sINpw-YLxs04fBcpuQgI-1" vertex="1">
          <mxGeometry x="460" y="330" width="530" height="100" as="geometry" />
        </mxCell>
        <mxCell id="zGtK6ONJGtK0DiuM_sqW-4" value="&lt;font style=&quot;font-size: 30px;&quot;&gt;Cantidad&lt;br&gt;+&amp;nbsp; #&amp;nbsp; -&lt;br&gt;&lt;/font&gt;" style="rounded=0;whiteSpace=wrap;html=1;fontSize=50;fillColor=default;" parent="sINpw-YLxs04fBcpuQgI-1" vertex="1">
          <mxGeometry x="460" y="520" width="175" height="110" as="geometry" />
        </mxCell>
        <mxCell id="zGtK6ONJGtK0DiuM_sqW-7" value="Agregar al carrito" style="rounded=0;whiteSpace=wrap;html=1;fontSize=30;fillColor=default;" parent="sINpw-YLxs04fBcpuQgI-1" vertex="1">
          <mxGeometry x="660" y="540" width="300" height="60" as="geometry" />
        </mxCell>
      </root>
    </mxGraphModel>
  </diagram>
  <diagram name="Formulario de login" id="VzM5I8L_-rxzLngUdPf-">
    <mxGraphModel dx="1663" dy="900" grid="1" gridSize="10" guides="1" tooltips="1" connect="1" arrows="1" fold="1" page="1" pageScale="1" pageWidth="1100" pageHeight="850" background="#ffffff" math="0" shadow="0">
      <root>
        <mxCell id="i_mGAdCIbHoOMKgwmb20-0" />
        <mxCell id="i_mGAdCIbHoOMKgwmb20-1" parent="i_mGAdCIbHoOMKgwmb20-0" />
        <mxCell id="i_mGAdCIbHoOMKgwmb20-2" value="" style="whiteSpace=wrap;html=1;rounded=0;shadow=0;labelBackgroundColor=none;strokeColor=#23445d;strokeWidth=1;fillColor=#bac8d3;fontFamily=Verdana;fontSize=12;align=center;comic=1;" parent="i_mGAdCIbHoOMKgwmb20-1" vertex="1">
          <mxGeometry x="20" y="20" width="1060" height="810" as="geometry" />
        </mxCell>
        <mxCell id="i_mGAdCIbHoOMKgwmb20-3" value="LOGO" style="whiteSpace=wrap;html=1;rounded=0;shadow=0;labelBackgroundColor=none;strokeWidth=1;fontFamily=Verdana;fontSize=28;align=center;comic=1;" parent="i_mGAdCIbHoOMKgwmb20-1" vertex="1">
          <mxGeometry x="60" y="60" width="190" height="50" as="geometry" />
        </mxCell>
        <mxCell id="i_mGAdCIbHoOMKgwmb20-4" value="Search" style="strokeWidth=1;shadow=0;dashed=0;align=center;html=1;shape=mxgraph.mockup.forms.searchBox;strokeColor=#999999;mainText=;strokeColor2=#008cff;fontColor=#666666;fontSize=17;align=left;spacingLeft=3;rounded=0;labelBackgroundColor=none;comic=1;" parent="i_mGAdCIbHoOMKgwmb20-1" vertex="1">
          <mxGeometry x="750" y="90" width="220" height="30" as="geometry" />
        </mxCell>
        <mxCell id="i_mGAdCIbHoOMKgwmb20-5" value="Información" style="text;html=1;points=[];align=left;verticalAlign=top;spacingTop=-4;fontSize=14;fontFamily=Verdana" parent="i_mGAdCIbHoOMKgwmb20-1" vertex="1">
          <mxGeometry x="750" y="40" width="60" height="20" as="geometry" />
        </mxCell>
        <mxCell id="i_mGAdCIbHoOMKgwmb20-6" value="Registrate" style="text;html=1;points=[];align=left;verticalAlign=top;spacingTop=-4;fontSize=14;fontFamily=Verdana" parent="i_mGAdCIbHoOMKgwmb20-1" vertex="1">
          <mxGeometry x="880" y="40" width="60" height="20" as="geometry" />
        </mxCell>
        <mxCell id="i_mGAdCIbHoOMKgwmb20-7" value="&amp;nbsp;Login" style="text;html=1;points=[];align=left;verticalAlign=top;spacingTop=-4;fontSize=14;fontFamily=Verdana;fillColor=#647687;fontColor=#ffffff;strokeColor=#314354;" parent="i_mGAdCIbHoOMKgwmb20-1" vertex="1">
          <mxGeometry x="980" y="40" width="50" height="20" as="geometry" />
        </mxCell>
        <mxCell id="i_mGAdCIbHoOMKgwmb20-8" value="" style="line;strokeWidth=1;html=1;rounded=0;shadow=0;labelBackgroundColor=none;fillColor=none;fontFamily=Verdana;fontSize=14;fontColor=#000000;align=center;comic=1;" parent="i_mGAdCIbHoOMKgwmb20-1" vertex="1">
          <mxGeometry x="20" y="140" width="1060" height="10" as="geometry" />
        </mxCell>
        <mxCell id="i_mGAdCIbHoOMKgwmb20-9" value="" style="whiteSpace=wrap;html=1;rounded=0;shadow=0;labelBackgroundColor=none;strokeWidth=1;fillColor=#000000;fontFamily=Verdana;fontSize=12;align=center;comic=1;" parent="i_mGAdCIbHoOMKgwmb20-1" vertex="1">
          <mxGeometry x="30" y="160" width="1040" height="50" as="geometry" />
        </mxCell>
        <mxCell id="i_mGAdCIbHoOMKgwmb20-10" value="Home" style="text;html=1;points=[];align=left;verticalAlign=top;spacingTop=-4;fontSize=14;fontFamily=Verdana;fontColor=#FFFFFF;" parent="i_mGAdCIbHoOMKgwmb20-1" vertex="1">
          <mxGeometry x="40" y="174" width="60" height="20" as="geometry" />
        </mxCell>
        <mxCell id="i_mGAdCIbHoOMKgwmb20-11" value="Accesorios" style="text;html=1;points=[];align=left;verticalAlign=top;spacingTop=-4;fontSize=14;fontFamily=Verdana;fontColor=#FFFFFF;" parent="i_mGAdCIbHoOMKgwmb20-1" vertex="1">
          <mxGeometry x="100" y="172.5" width="80" height="25" as="geometry" />
        </mxCell>
        <mxCell id="i_mGAdCIbHoOMKgwmb20-12" value="Cascos" style="text;html=1;points=[];align=left;verticalAlign=top;spacingTop=-4;fontSize=14;fontFamily=Verdana" parent="i_mGAdCIbHoOMKgwmb20-1" vertex="1">
          <mxGeometry x="190" y="175" width="60" height="20" as="geometry" />
        </mxCell>
        <mxCell id="i_mGAdCIbHoOMKgwmb20-13" value="Vestuarios" style="text;html=1;points=[];align=left;verticalAlign=top;spacingTop=-4;fontSize=14;fontFamily=Verdana;fontColor=#FFFFFF;" parent="i_mGAdCIbHoOMKgwmb20-1" vertex="1">
          <mxGeometry x="260" y="175" width="80" height="20" as="geometry" />
        </mxCell>
        <mxCell id="i_mGAdCIbHoOMKgwmb20-14" value="&lt;div style=&quot;text-align: justify&quot;&gt;&lt;font style=&quot;font-size: 30px;&quot;&gt;INFORMACIÓN GENERAL&lt;/font&gt;&lt;/div&gt;" style="whiteSpace=wrap;html=1;rounded=0;shadow=0;labelBackgroundColor=none;strokeWidth=1;fillColor=none;fontFamily=Verdana;fontSize=12;align=center;verticalAlign=top;spacing=10;comic=1;" parent="i_mGAdCIbHoOMKgwmb20-1" vertex="1">
          <mxGeometry x="50" y="710" width="1010" height="110" as="geometry" />
        </mxCell>
        <mxCell id="i_mGAdCIbHoOMKgwmb20-15" value="Botas" style="text;html=1;points=[];align=left;verticalAlign=top;spacingTop=-4;fontSize=14;fontFamily=Verdana" parent="i_mGAdCIbHoOMKgwmb20-1" vertex="1">
          <mxGeometry x="350" y="177.5" width="80" height="20" as="geometry" />
        </mxCell>
        <mxCell id="i_mGAdCIbHoOMKgwmb20-16" value="Maletas&amp;nbsp;" style="text;html=1;points=[];align=left;verticalAlign=top;spacingTop=-4;fontSize=14;fontFamily=Verdana" parent="i_mGAdCIbHoOMKgwmb20-1" vertex="1">
          <mxGeometry x="420" y="177.5" width="70" height="20" as="geometry" />
        </mxCell>
        <mxCell id="i_mGAdCIbHoOMKgwmb20-17" value="Guantes" style="text;html=1;points=[];align=left;verticalAlign=top;spacingTop=-4;fontSize=14;fontFamily=Verdana" parent="i_mGAdCIbHoOMKgwmb20-1" vertex="1">
          <mxGeometry x="490" y="177.5" width="70" height="20" as="geometry" />
        </mxCell>
        <mxCell id="i_mGAdCIbHoOMKgwmb20-18" value="" style="rounded=0;whiteSpace=wrap;html=1;image=https://png.pngtree.com/png-vector/20190725/ourlarge/pngtree-vector-shopping-bag-icon-png-image_1577291.jpg;" parent="i_mGAdCIbHoOMKgwmb20-1" vertex="1">
          <mxGeometry x="1020" y="85" width="40" height="35" as="geometry" />
        </mxCell>
        <mxCell id="i_mGAdCIbHoOMKgwmb20-24" value="Guantes" style="text;html=1;points=[];align=left;verticalAlign=top;spacingTop=-4;fontSize=14;fontFamily=Verdana" parent="i_mGAdCIbHoOMKgwmb20-1" vertex="1">
          <mxGeometry x="490" y="177.5" width="70" height="20" as="geometry" />
        </mxCell>
        <mxCell id="i_mGAdCIbHoOMKgwmb20-25" value="Maletas&amp;nbsp;" style="text;html=1;points=[];align=left;verticalAlign=top;spacingTop=-4;fontSize=14;fontFamily=Verdana" parent="i_mGAdCIbHoOMKgwmb20-1" vertex="1">
          <mxGeometry x="420" y="177.5" width="70" height="20" as="geometry" />
        </mxCell>
        <mxCell id="i_mGAdCIbHoOMKgwmb20-26" value="Guantes" style="text;html=1;points=[];align=left;verticalAlign=top;spacingTop=-4;fontSize=14;fontFamily=Verdana" parent="i_mGAdCIbHoOMKgwmb20-1" vertex="1">
          <mxGeometry x="490" y="177.5" width="70" height="20" as="geometry" />
        </mxCell>
        <mxCell id="i_mGAdCIbHoOMKgwmb20-27" value="Maletas&amp;nbsp;" style="text;html=1;points=[];align=left;verticalAlign=top;spacingTop=-4;fontSize=14;fontFamily=Verdana" parent="i_mGAdCIbHoOMKgwmb20-1" vertex="1">
          <mxGeometry x="420" y="177.5" width="70" height="20" as="geometry" />
        </mxCell>
        <mxCell id="i_mGAdCIbHoOMKgwmb20-28" value="Guantes" style="text;html=1;points=[];align=left;verticalAlign=top;spacingTop=-4;fontSize=14;fontFamily=Verdana" parent="i_mGAdCIbHoOMKgwmb20-1" vertex="1">
          <mxGeometry x="490" y="177.5" width="70" height="20" as="geometry" />
        </mxCell>
        <mxCell id="i_mGAdCIbHoOMKgwmb20-29" value="Maletas&amp;nbsp;" style="text;html=1;points=[];align=left;verticalAlign=top;spacingTop=-4;fontSize=14;fontFamily=Verdana" parent="i_mGAdCIbHoOMKgwmb20-1" vertex="1">
          <mxGeometry x="420" y="177.5" width="70" height="20" as="geometry" />
        </mxCell>
        <mxCell id="i_mGAdCIbHoOMKgwmb20-30" value="Botas" style="text;html=1;points=[];align=left;verticalAlign=top;spacingTop=-4;fontSize=14;fontFamily=Verdana" parent="i_mGAdCIbHoOMKgwmb20-1" vertex="1">
          <mxGeometry x="350" y="177.5" width="80" height="20" as="geometry" />
        </mxCell>
        <mxCell id="i_mGAdCIbHoOMKgwmb20-31" value="Guantes" style="text;html=1;points=[];align=left;verticalAlign=top;spacingTop=-4;fontSize=14;fontFamily=Verdana;fontColor=#FFFFFF;" parent="i_mGAdCIbHoOMKgwmb20-1" vertex="1">
          <mxGeometry x="490" y="176.25" width="70" height="20" as="geometry" />
        </mxCell>
        <mxCell id="i_mGAdCIbHoOMKgwmb20-32" value="Maletas&amp;nbsp;" style="text;html=1;points=[];align=left;verticalAlign=top;spacingTop=-4;fontSize=14;fontFamily=Verdana;fontColor=#FFFFFF;" parent="i_mGAdCIbHoOMKgwmb20-1" vertex="1">
          <mxGeometry x="420" y="176.25" width="70" height="20" as="geometry" />
        </mxCell>
        <mxCell id="i_mGAdCIbHoOMKgwmb20-33" value="Botas" style="text;html=1;points=[];align=left;verticalAlign=top;spacingTop=-4;fontSize=14;fontFamily=Verdana;fontColor=#FFFFFF;" parent="i_mGAdCIbHoOMKgwmb20-1" vertex="1">
          <mxGeometry x="350" y="176.25" width="80" height="20" as="geometry" />
        </mxCell>
        <mxCell id="i_mGAdCIbHoOMKgwmb20-34" value="Cascos" style="text;html=1;points=[];align=left;verticalAlign=top;spacingTop=-4;fontSize=14;fontFamily=Verdana;fontColor=#FFFFFF;" parent="i_mGAdCIbHoOMKgwmb20-1" vertex="1">
          <mxGeometry x="190" y="173.75" width="60" height="20" as="geometry" />
        </mxCell>
        <mxCell id="viNx9agjpTYcsfCNJVuc-0" value="" style="rounded=0;whiteSpace=wrap;html=1;fontSize=30;fillColor=default;" parent="i_mGAdCIbHoOMKgwmb20-1" vertex="1">
          <mxGeometry x="240" y="250" width="650" height="420" as="geometry" />
        </mxCell>
        <mxCell id="viNx9agjpTYcsfCNJVuc-1" value="" style="rounded=0;whiteSpace=wrap;html=1;fontSize=30;fillColor=default;" parent="i_mGAdCIbHoOMKgwmb20-1" vertex="1">
          <mxGeometry x="460" y="405" width="280" height="40" as="geometry" />
        </mxCell>
        <mxCell id="viNx9agjpTYcsfCNJVuc-2" value="" style="rounded=0;whiteSpace=wrap;html=1;fontSize=30;fillColor=default;" parent="i_mGAdCIbHoOMKgwmb20-1" vertex="1">
          <mxGeometry x="460" y="470" width="280" height="40" as="geometry" />
        </mxCell>
        <mxCell id="viNx9agjpTYcsfCNJVuc-3" value="&lt;font style=&quot;font-size: 20px;&quot;&gt;Olvidaste la contraseña?&lt;br&gt;Registrarse&lt;/font&gt;" style="text;html=1;strokeColor=none;fillColor=none;align=center;verticalAlign=middle;whiteSpace=wrap;rounded=0;fontSize=30;" parent="i_mGAdCIbHoOMKgwmb20-1" vertex="1">
          <mxGeometry x="360" y="560" width="380" height="70" as="geometry" />
        </mxCell>
        <mxCell id="viNx9agjpTYcsfCNJVuc-4" value="Usuario" style="text;html=1;strokeColor=none;fillColor=none;align=center;verticalAlign=middle;whiteSpace=wrap;rounded=0;fontSize=20;" parent="i_mGAdCIbHoOMKgwmb20-1" vertex="1">
          <mxGeometry x="330" y="410" width="100" height="30" as="geometry" />
        </mxCell>
        <mxCell id="viNx9agjpTYcsfCNJVuc-5" value="Contraseña" style="text;html=1;strokeColor=none;fillColor=none;align=center;verticalAlign=middle;whiteSpace=wrap;rounded=0;fontSize=20;" parent="i_mGAdCIbHoOMKgwmb20-1" vertex="1">
          <mxGeometry x="330" y="480" width="100" height="30" as="geometry" />
        </mxCell>
        <mxCell id="viNx9agjpTYcsfCNJVuc-6" value="&lt;font style=&quot;font-size: 40px;&quot;&gt;Inicia sesión&amp;nbsp;&lt;/font&gt;" style="text;html=1;strokeColor=none;fillColor=none;align=center;verticalAlign=middle;whiteSpace=wrap;rounded=0;fontSize=20;" parent="i_mGAdCIbHoOMKgwmb20-1" vertex="1">
          <mxGeometry x="350" y="300" width="410" height="60" as="geometry" />
        </mxCell>
      </root>
    </mxGraphModel>
  </diagram>
  <diagram id="CmWrbgjq6KW5QfwO0HhT" name="Registro">
    <mxGraphModel dx="1996" dy="1080" grid="1" gridSize="10" guides="1" tooltips="1" connect="1" arrows="1" fold="1" page="1" pageScale="1" pageWidth="827" pageHeight="1169" math="0" shadow="0">
      <root>
        <mxCell id="0" />
        <mxCell id="1" parent="0" />
        <mxCell id="7Ai_X4dMiC-JxBIogJFz-1" value="" style="whiteSpace=wrap;html=1;rounded=0;shadow=0;labelBackgroundColor=none;strokeColor=#23445d;strokeWidth=1;fillColor=#bac8d3;fontFamily=Verdana;fontSize=12;align=center;comic=1;" parent="1" vertex="1">
          <mxGeometry x="70" y="20" width="1060" height="810" as="geometry" />
        </mxCell>
        <mxCell id="7Ai_X4dMiC-JxBIogJFz-2" value="LOGO" style="whiteSpace=wrap;html=1;rounded=0;shadow=0;labelBackgroundColor=none;strokeWidth=1;fontFamily=Verdana;fontSize=28;align=center;comic=1;" parent="1" vertex="1">
          <mxGeometry x="80" y="60" width="190" height="50" as="geometry" />
        </mxCell>
        <mxCell id="7Ai_X4dMiC-JxBIogJFz-3" value="Search" style="strokeWidth=1;shadow=0;dashed=0;align=center;html=1;shape=mxgraph.mockup.forms.searchBox;strokeColor=#999999;mainText=;strokeColor2=#008cff;fontColor=#666666;fontSize=17;align=left;spacingLeft=3;rounded=0;labelBackgroundColor=none;comic=1;" parent="1" vertex="1">
          <mxGeometry x="820" y="90" width="220" height="30" as="geometry" />
        </mxCell>
        <mxCell id="7Ai_X4dMiC-JxBIogJFz-4" value="Información" style="text;html=1;points=[];align=left;verticalAlign=top;spacingTop=-4;fontSize=14;fontFamily=Verdana" parent="1" vertex="1">
          <mxGeometry x="870" y="40" width="60" height="20" as="geometry" />
        </mxCell>
        <mxCell id="7Ai_X4dMiC-JxBIogJFz-5" value="&lt;span style=&quot;background-color: rgb(100, 118, 135);&quot;&gt;Registrate&lt;/span&gt;" style="text;html=1;points=[];align=left;verticalAlign=top;spacingTop=-4;fontSize=14;fontFamily=Verdana;strokeColor=default;" parent="1" vertex="1">
          <mxGeometry x="970" y="40" width="70" height="20" as="geometry" />
        </mxCell>
        <mxCell id="7Ai_X4dMiC-JxBIogJFz-6" value="&lt;font color=&quot;#000000&quot;&gt;&amp;nbsp;Login&lt;/font&gt;" style="text;html=1;points=[];align=left;verticalAlign=top;spacingTop=-4;fontSize=14;fontFamily=Verdana;fillColor=none;fontColor=#ffffff;strokeColor=none;strokeWidth=2;" parent="1" vertex="1">
          <mxGeometry x="1060" y="40" width="50" height="20" as="geometry" />
        </mxCell>
        <mxCell id="7Ai_X4dMiC-JxBIogJFz-7" value="" style="line;strokeWidth=1;html=1;rounded=0;shadow=0;labelBackgroundColor=none;fillColor=none;fontFamily=Verdana;fontSize=14;fontColor=#000000;align=center;comic=1;" parent="1" vertex="1">
          <mxGeometry x="70" y="140" width="1060" height="10" as="geometry" />
        </mxCell>
        <mxCell id="7Ai_X4dMiC-JxBIogJFz-8" value="" style="whiteSpace=wrap;html=1;rounded=0;shadow=0;labelBackgroundColor=none;strokeWidth=1;fillColor=#000000;fontFamily=Verdana;fontSize=12;align=center;comic=1;" parent="1" vertex="1">
          <mxGeometry x="70" y="162.5" width="1060" height="50" as="geometry" />
        </mxCell>
        <mxCell id="7Ai_X4dMiC-JxBIogJFz-9" value="Home" style="text;html=1;points=[];align=left;verticalAlign=top;spacingTop=-4;fontSize=14;fontFamily=Verdana;fontColor=#FFFFFF;" parent="1" vertex="1">
          <mxGeometry x="80" y="172.5" width="60" height="20" as="geometry" />
        </mxCell>
        <mxCell id="7Ai_X4dMiC-JxBIogJFz-10" value="Accesorios" style="text;html=1;points=[];align=left;verticalAlign=top;spacingTop=-4;fontSize=14;fontFamily=Verdana;fontColor=#FFFFFF;" parent="1" vertex="1">
          <mxGeometry x="130" y="173.75" width="80" height="25" as="geometry" />
        </mxCell>
        <mxCell id="7Ai_X4dMiC-JxBIogJFz-11" value="Cascos" style="text;html=1;points=[];align=left;verticalAlign=top;spacingTop=-4;fontSize=14;fontFamily=Verdana" parent="1" vertex="1">
          <mxGeometry x="190" y="175" width="60" height="20" as="geometry" />
        </mxCell>
        <mxCell id="7Ai_X4dMiC-JxBIogJFz-12" value="Vestuarios" style="text;html=1;points=[];align=left;verticalAlign=top;spacingTop=-4;fontSize=14;fontFamily=Verdana;fontColor=#FFFFFF;" parent="1" vertex="1">
          <mxGeometry x="280" y="173.75" width="80" height="20" as="geometry" />
        </mxCell>
        <mxCell id="7Ai_X4dMiC-JxBIogJFz-13" value="&lt;div style=&quot;text-align: justify&quot;&gt;&lt;font style=&quot;font-size: 30px;&quot;&gt;INFORMACIÓN GENERAL&lt;/font&gt;&lt;/div&gt;" style="whiteSpace=wrap;html=1;rounded=0;shadow=0;labelBackgroundColor=none;strokeWidth=1;fillColor=none;fontFamily=Verdana;fontSize=12;align=center;verticalAlign=top;spacing=10;comic=1;" parent="1" vertex="1">
          <mxGeometry x="95" y="710" width="1010" height="110" as="geometry" />
        </mxCell>
        <mxCell id="7Ai_X4dMiC-JxBIogJFz-14" value="Botas" style="text;html=1;points=[];align=left;verticalAlign=top;spacingTop=-4;fontSize=14;fontFamily=Verdana" parent="1" vertex="1">
          <mxGeometry x="350" y="177.5" width="80" height="20" as="geometry" />
        </mxCell>
        <mxCell id="7Ai_X4dMiC-JxBIogJFz-15" value="Maletas&amp;nbsp;" style="text;html=1;points=[];align=left;verticalAlign=top;spacingTop=-4;fontSize=14;fontFamily=Verdana" parent="1" vertex="1">
          <mxGeometry x="420" y="177.5" width="70" height="20" as="geometry" />
        </mxCell>
        <mxCell id="7Ai_X4dMiC-JxBIogJFz-16" value="Guantes" style="text;html=1;points=[];align=left;verticalAlign=top;spacingTop=-4;fontSize=14;fontFamily=Verdana" parent="1" vertex="1">
          <mxGeometry x="490" y="177.5" width="70" height="20" as="geometry" />
        </mxCell>
        <mxCell id="7Ai_X4dMiC-JxBIogJFz-17" value="" style="rounded=0;whiteSpace=wrap;html=1;image=https://png.pngtree.com/png-vector/20190725/ourlarge/pngtree-vector-shopping-bag-icon-png-image_1577291.jpg;" parent="1" vertex="1">
          <mxGeometry x="1070" y="90" width="40" height="35" as="geometry" />
        </mxCell>
        <mxCell id="7Ai_X4dMiC-JxBIogJFz-18" value="Guantes" style="text;html=1;points=[];align=left;verticalAlign=top;spacingTop=-4;fontSize=14;fontFamily=Verdana" parent="1" vertex="1">
          <mxGeometry x="490" y="177.5" width="70" height="20" as="geometry" />
        </mxCell>
        <mxCell id="7Ai_X4dMiC-JxBIogJFz-19" value="Maletas&amp;nbsp;" style="text;html=1;points=[];align=left;verticalAlign=top;spacingTop=-4;fontSize=14;fontFamily=Verdana" parent="1" vertex="1">
          <mxGeometry x="420" y="177.5" width="70" height="20" as="geometry" />
        </mxCell>
        <mxCell id="7Ai_X4dMiC-JxBIogJFz-20" value="Guantes" style="text;html=1;points=[];align=left;verticalAlign=top;spacingTop=-4;fontSize=14;fontFamily=Verdana" parent="1" vertex="1">
          <mxGeometry x="490" y="177.5" width="70" height="20" as="geometry" />
        </mxCell>
        <mxCell id="7Ai_X4dMiC-JxBIogJFz-21" value="Maletas&amp;nbsp;" style="text;html=1;points=[];align=left;verticalAlign=top;spacingTop=-4;fontSize=14;fontFamily=Verdana" parent="1" vertex="1">
          <mxGeometry x="420" y="177.5" width="70" height="20" as="geometry" />
        </mxCell>
        <mxCell id="7Ai_X4dMiC-JxBIogJFz-22" value="Guantes" style="text;html=1;points=[];align=left;verticalAlign=top;spacingTop=-4;fontSize=14;fontFamily=Verdana" parent="1" vertex="1">
          <mxGeometry x="490" y="177.5" width="70" height="20" as="geometry" />
        </mxCell>
        <mxCell id="7Ai_X4dMiC-JxBIogJFz-23" value="Maletas&amp;nbsp;" style="text;html=1;points=[];align=left;verticalAlign=top;spacingTop=-4;fontSize=14;fontFamily=Verdana" parent="1" vertex="1">
          <mxGeometry x="420" y="177.5" width="70" height="20" as="geometry" />
        </mxCell>
        <mxCell id="7Ai_X4dMiC-JxBIogJFz-24" value="Botas" style="text;html=1;points=[];align=left;verticalAlign=top;spacingTop=-4;fontSize=14;fontFamily=Verdana" parent="1" vertex="1">
          <mxGeometry x="350" y="177.5" width="80" height="20" as="geometry" />
        </mxCell>
        <mxCell id="7Ai_X4dMiC-JxBIogJFz-25" value="Guantes" style="text;html=1;points=[];align=left;verticalAlign=top;spacingTop=-4;fontSize=14;fontFamily=Verdana;fontColor=#FFFFFF;" parent="1" vertex="1">
          <mxGeometry x="510" y="173.75" width="70" height="20" as="geometry" />
        </mxCell>
        <mxCell id="7Ai_X4dMiC-JxBIogJFz-26" value="Maletas&amp;nbsp;" style="text;html=1;points=[];align=left;verticalAlign=top;spacingTop=-4;fontSize=14;fontFamily=Verdana;fontColor=#FFFFFF;" parent="1" vertex="1">
          <mxGeometry x="430" y="173.75" width="70" height="20" as="geometry" />
        </mxCell>
        <mxCell id="7Ai_X4dMiC-JxBIogJFz-27" value="Botas" style="text;html=1;points=[];align=left;verticalAlign=top;spacingTop=-4;fontSize=14;fontFamily=Verdana;fontColor=#FFFFFF;" parent="1" vertex="1">
          <mxGeometry x="370" y="173.75" width="80" height="20" as="geometry" />
        </mxCell>
        <mxCell id="7Ai_X4dMiC-JxBIogJFz-28" value="Cascos" style="text;html=1;points=[];align=left;verticalAlign=top;spacingTop=-4;fontSize=14;fontFamily=Verdana;fontColor=#FFFFFF;" parent="1" vertex="1">
          <mxGeometry x="215" y="173.75" width="60" height="20" as="geometry" />
        </mxCell>
        <mxCell id="7Ai_X4dMiC-JxBIogJFz-30" value="&lt;p&gt;&lt;font style=&quot;font-size: 18px;&quot;&gt;Nombre&lt;/font&gt;&lt;/p&gt;" style="rounded=0;whiteSpace=wrap;html=1;fontSize=30;fillColor=default;verticalAlign=middle;fontColor=#CCCCCC;" parent="1" vertex="1">
          <mxGeometry x="120" y="370" width="120" height="30" as="geometry" />
        </mxCell>
        <mxCell id="7Ai_X4dMiC-JxBIogJFz-32" value="&lt;span style=&quot;font-size: 10px;&quot;&gt;Contrato de privacidad&amp;nbsp;&lt;/span&gt;&lt;span style=&quot;background-color: initial;&quot;&gt;y &lt;/span&gt;&lt;span style=&quot;background-color: initial;&quot;&gt;políticas&lt;/span&gt;&lt;span style=&quot;background-color: initial;&quot;&gt;&amp;nbsp;&lt;/span&gt;&lt;span style=&quot;font-size: 10px;&quot;&gt;&lt;br&gt;&lt;/span&gt;" style="text;html=1;strokeColor=none;fillColor=none;align=left;verticalAlign=middle;whiteSpace=wrap;rounded=0;fontSize=10;" parent="1" vertex="1">
          <mxGeometry x="150" y="570" width="210" height="20" as="geometry" />
        </mxCell>
        <mxCell id="7Ai_X4dMiC-JxBIogJFz-35" value="&lt;font style=&quot;font-size: 40px;&quot;&gt;Registro&lt;/font&gt;" style="text;html=1;strokeColor=none;fillColor=none;align=center;verticalAlign=middle;whiteSpace=wrap;rounded=0;fontSize=20;" parent="1" vertex="1">
          <mxGeometry x="120" y="300" width="280" height="40" as="geometry" />
        </mxCell>
        <mxCell id="7Ai_X4dMiC-JxBIogJFz-36" value="&lt;p&gt;&lt;span style=&quot;font-size: 18px;&quot;&gt;Apellido&lt;/span&gt;&lt;/p&gt;" style="rounded=0;whiteSpace=wrap;html=1;fontSize=30;fillColor=default;verticalAlign=middle;fontColor=#CCCCCC;" parent="1" vertex="1">
          <mxGeometry x="280" y="370" width="120" height="30" as="geometry" />
        </mxCell>
        <mxCell id="7Ai_X4dMiC-JxBIogJFz-37" value="&lt;p&gt;&lt;font style=&quot;font-size: 18px;&quot;&gt;Email&lt;/font&gt;&lt;/p&gt;" style="rounded=0;whiteSpace=wrap;html=1;fontSize=30;fillColor=default;verticalAlign=middle;fontColor=#CCCCCC;" parent="1" vertex="1">
          <mxGeometry x="120" y="420" width="280" height="30" as="geometry" />
        </mxCell>
        <mxCell id="7Ai_X4dMiC-JxBIogJFz-38" value="&lt;p&gt;&lt;font style=&quot;font-size: 18px;&quot;&gt;Contraseña&lt;/font&gt;&lt;/p&gt;" style="rounded=0;whiteSpace=wrap;html=1;fontSize=30;fillColor=default;verticalAlign=middle;fontColor=#CCCCCC;" parent="1" vertex="1">
          <mxGeometry x="120" y="470" width="280" height="30" as="geometry" />
        </mxCell>
        <mxCell id="7Ai_X4dMiC-JxBIogJFz-39" value="&lt;p&gt;&lt;font style=&quot;font-size: 18px;&quot;&gt;Confirmar contraseña&lt;/font&gt;&lt;/p&gt;" style="rounded=0;whiteSpace=wrap;html=1;fontSize=30;fillColor=default;verticalAlign=middle;fontColor=#CCCCCC;" parent="1" vertex="1">
          <mxGeometry x="120" y="520" width="280" height="30" as="geometry" />
        </mxCell>
        <mxCell id="7Ai_X4dMiC-JxBIogJFz-40" value="" style="whiteSpace=wrap;html=1;aspect=fixed;fontSize=18;fontColor=#CCCCCC;" parent="1" vertex="1">
          <mxGeometry x="120" y="570" width="20" height="20" as="geometry" />
        </mxCell>
        <mxCell id="7Ai_X4dMiC-JxBIogJFz-41" value="&lt;font color=&quot;#000000&quot; style=&quot;font-size: 16px;&quot;&gt;Registrarse&lt;/font&gt;" style="rounded=1;whiteSpace=wrap;html=1;fontSize=16;fontColor=#CCCCCC;fontStyle=1" parent="1" vertex="1">
          <mxGeometry x="195" y="620" width="120" height="30" as="geometry" />
        </mxCell>
        <mxCell id="7Ai_X4dMiC-JxBIogJFz-43" value="&lt;h1 style=&quot;line-height: 1.2;&quot;&gt;FONDO DEL FORMULARIO&lt;/h1&gt;" style="rounded=0;whiteSpace=wrap;html=1;labelBackgroundColor=none;fontSize=23;fontColor=#000000;strokeColor=#000000;fillColor=none;align=right;" parent="1" vertex="1">
          <mxGeometry x="70" y="230" width="1060" height="590" as="geometry" />
        </mxCell>
      </root>
    </mxGraphModel>
  </diagram>
  <diagram id="0fiTq-lKB0EgFWuIdis7" name="Carrito">
    <mxGraphModel dx="1426" dy="771" grid="1" gridSize="10" guides="1" tooltips="1" connect="1" arrows="1" fold="1" page="1" pageScale="1" pageWidth="827" pageHeight="1169" math="0" shadow="0">
      <root>
        <mxCell id="0" />
        <mxCell id="1" parent="0" />
        <mxCell id="P_jX8-F7sH5aGkO6mcZ9-1" value="" style="whiteSpace=wrap;html=1;rounded=0;shadow=0;labelBackgroundColor=none;strokeColor=#23445d;strokeWidth=1;fillColor=#bac8d3;fontFamily=Verdana;fontSize=12;align=center;comic=1;" vertex="1" parent="1">
          <mxGeometry x="20" y="30" width="1060" height="810" as="geometry" />
        </mxCell>
        <mxCell id="P_jX8-F7sH5aGkO6mcZ9-2" value="LOGO" style="whiteSpace=wrap;html=1;rounded=0;shadow=0;labelBackgroundColor=none;strokeWidth=1;fontFamily=Verdana;fontSize=28;align=center;comic=1;" vertex="1" parent="1">
          <mxGeometry x="60" y="60" width="190" height="50" as="geometry" />
        </mxCell>
        <mxCell id="P_jX8-F7sH5aGkO6mcZ9-3" value="Search" style="strokeWidth=1;shadow=0;dashed=0;align=center;html=1;shape=mxgraph.mockup.forms.searchBox;strokeColor=#999999;mainText=;strokeColor2=#008cff;fontColor=#666666;fontSize=17;align=left;spacingLeft=3;rounded=0;labelBackgroundColor=none;comic=1;" vertex="1" parent="1">
          <mxGeometry x="750" y="90" width="220" height="30" as="geometry" />
        </mxCell>
        <mxCell id="P_jX8-F7sH5aGkO6mcZ9-4" value="Información" style="text;html=1;points=[];align=left;verticalAlign=top;spacingTop=-4;fontSize=14;fontFamily=Verdana" vertex="1" parent="1">
          <mxGeometry x="750" y="40" width="60" height="20" as="geometry" />
        </mxCell>
        <mxCell id="P_jX8-F7sH5aGkO6mcZ9-5" value="Registrate" style="text;html=1;points=[];align=left;verticalAlign=top;spacingTop=-4;fontSize=14;fontFamily=Verdana" vertex="1" parent="1">
          <mxGeometry x="880" y="40" width="60" height="20" as="geometry" />
        </mxCell>
        <mxCell id="P_jX8-F7sH5aGkO6mcZ9-6" value="Log in" style="text;html=1;points=[];align=left;verticalAlign=top;spacingTop=-4;fontSize=14;fontFamily=Verdana" vertex="1" parent="1">
          <mxGeometry x="1000" y="40" width="60" height="20" as="geometry" />
        </mxCell>
        <mxCell id="P_jX8-F7sH5aGkO6mcZ9-7" value="" style="line;strokeWidth=1;html=1;rounded=0;shadow=0;labelBackgroundColor=none;fillColor=none;fontFamily=Verdana;fontSize=14;fontColor=#000000;align=center;comic=1;" vertex="1" parent="1">
          <mxGeometry x="20" y="140" width="1060" height="10" as="geometry" />
        </mxCell>
        <mxCell id="P_jX8-F7sH5aGkO6mcZ9-8" value="" style="whiteSpace=wrap;html=1;rounded=0;shadow=0;labelBackgroundColor=none;strokeWidth=1;fillColor=#000000;fontFamily=Verdana;fontSize=12;align=center;comic=1;" vertex="1" parent="1">
          <mxGeometry x="30" y="160" width="1040" height="50" as="geometry" />
        </mxCell>
        <mxCell id="P_jX8-F7sH5aGkO6mcZ9-9" value="Home" style="text;html=1;points=[];align=left;verticalAlign=top;spacingTop=-4;fontSize=14;fontFamily=Verdana;fontColor=#FFFFFF;" vertex="1" parent="1">
          <mxGeometry x="40" y="174" width="60" height="20" as="geometry" />
        </mxCell>
        <mxCell id="P_jX8-F7sH5aGkO6mcZ9-10" value="Accesorios" style="text;html=1;points=[];align=left;verticalAlign=middle;spacingTop=-4;fontSize=14;fontFamily=Verdana;fillColor=none;strokeColor=#314354;fontColor=#ffffff;" vertex="1" parent="1">
          <mxGeometry x="100" y="172.5" width="80" height="25" as="geometry" />
        </mxCell>
        <mxCell id="P_jX8-F7sH5aGkO6mcZ9-11" value="Cascos" style="text;html=1;points=[];align=left;verticalAlign=top;spacingTop=-4;fontSize=14;fontFamily=Verdana" vertex="1" parent="1">
          <mxGeometry x="190" y="175" width="60" height="20" as="geometry" />
        </mxCell>
        <mxCell id="P_jX8-F7sH5aGkO6mcZ9-12" value="Vestuarios" style="text;html=1;points=[];align=left;verticalAlign=top;spacingTop=-4;fontSize=14;fontFamily=Verdana;fontColor=#FFFFFF;" vertex="1" parent="1">
          <mxGeometry x="260" y="175" width="80" height="20" as="geometry" />
        </mxCell>
        <mxCell id="P_jX8-F7sH5aGkO6mcZ9-13" value="&lt;div style=&quot;text-align: justify&quot;&gt;&lt;font style=&quot;font-size: 30px;&quot;&gt;INFORMACIÓN GENERAL&lt;/font&gt;&lt;/div&gt;" style="whiteSpace=wrap;html=1;rounded=0;shadow=0;labelBackgroundColor=none;strokeWidth=1;fillColor=none;fontFamily=Verdana;fontSize=12;align=center;verticalAlign=top;spacing=10;comic=1;" vertex="1" parent="1">
          <mxGeometry x="50" y="710" width="1010" height="110" as="geometry" />
        </mxCell>
        <mxCell id="P_jX8-F7sH5aGkO6mcZ9-14" value="Botas" style="text;html=1;points=[];align=left;verticalAlign=top;spacingTop=-4;fontSize=14;fontFamily=Verdana" vertex="1" parent="1">
          <mxGeometry x="350" y="177.5" width="80" height="20" as="geometry" />
        </mxCell>
        <mxCell id="P_jX8-F7sH5aGkO6mcZ9-15" value="Maletas&amp;nbsp;" style="text;html=1;points=[];align=left;verticalAlign=top;spacingTop=-4;fontSize=14;fontFamily=Verdana" vertex="1" parent="1">
          <mxGeometry x="420" y="177.5" width="70" height="20" as="geometry" />
        </mxCell>
        <mxCell id="P_jX8-F7sH5aGkO6mcZ9-16" value="Guantes" style="text;html=1;points=[];align=left;verticalAlign=top;spacingTop=-4;fontSize=14;fontFamily=Verdana" vertex="1" parent="1">
          <mxGeometry x="490" y="177.5" width="70" height="20" as="geometry" />
        </mxCell>
        <mxCell id="P_jX8-F7sH5aGkO6mcZ9-17" value="" style="rounded=0;whiteSpace=wrap;html=1;image=https://png.pngtree.com/png-vector/20190725/ourlarge/pngtree-vector-shopping-bag-icon-png-image_1577291.jpg;fillColor=#647687;" vertex="1" parent="1">
          <mxGeometry x="1020" y="85" width="40" height="35" as="geometry" />
        </mxCell>
        <mxCell id="P_jX8-F7sH5aGkO6mcZ9-19" value="Guantes" style="text;html=1;points=[];align=left;verticalAlign=top;spacingTop=-4;fontSize=14;fontFamily=Verdana" vertex="1" parent="1">
          <mxGeometry x="490" y="177.5" width="70" height="20" as="geometry" />
        </mxCell>
        <mxCell id="P_jX8-F7sH5aGkO6mcZ9-20" value="Maletas&amp;nbsp;" style="text;html=1;points=[];align=left;verticalAlign=top;spacingTop=-4;fontSize=14;fontFamily=Verdana" vertex="1" parent="1">
          <mxGeometry x="420" y="177.5" width="70" height="20" as="geometry" />
        </mxCell>
        <mxCell id="P_jX8-F7sH5aGkO6mcZ9-21" value="Guantes" style="text;html=1;points=[];align=left;verticalAlign=top;spacingTop=-4;fontSize=14;fontFamily=Verdana" vertex="1" parent="1">
          <mxGeometry x="490" y="177.5" width="70" height="20" as="geometry" />
        </mxCell>
        <mxCell id="P_jX8-F7sH5aGkO6mcZ9-22" value="Maletas&amp;nbsp;" style="text;html=1;points=[];align=left;verticalAlign=top;spacingTop=-4;fontSize=14;fontFamily=Verdana" vertex="1" parent="1">
          <mxGeometry x="420" y="177.5" width="70" height="20" as="geometry" />
        </mxCell>
        <mxCell id="P_jX8-F7sH5aGkO6mcZ9-23" value="Guantes" style="text;html=1;points=[];align=left;verticalAlign=top;spacingTop=-4;fontSize=14;fontFamily=Verdana" vertex="1" parent="1">
          <mxGeometry x="490" y="177.5" width="70" height="20" as="geometry" />
        </mxCell>
        <mxCell id="P_jX8-F7sH5aGkO6mcZ9-24" value="Maletas&amp;nbsp;" style="text;html=1;points=[];align=left;verticalAlign=top;spacingTop=-4;fontSize=14;fontFamily=Verdana" vertex="1" parent="1">
          <mxGeometry x="420" y="177.5" width="70" height="20" as="geometry" />
        </mxCell>
        <mxCell id="P_jX8-F7sH5aGkO6mcZ9-25" value="Botas" style="text;html=1;points=[];align=left;verticalAlign=top;spacingTop=-4;fontSize=14;fontFamily=Verdana" vertex="1" parent="1">
          <mxGeometry x="350" y="177.5" width="80" height="20" as="geometry" />
        </mxCell>
        <mxCell id="P_jX8-F7sH5aGkO6mcZ9-26" value="Guantes" style="text;html=1;points=[];align=left;verticalAlign=top;spacingTop=-4;fontSize=14;fontFamily=Verdana;fontColor=#FFFFFF;" vertex="1" parent="1">
          <mxGeometry x="490" y="176.25" width="70" height="20" as="geometry" />
        </mxCell>
        <mxCell id="P_jX8-F7sH5aGkO6mcZ9-27" value="Maletas&amp;nbsp;" style="text;html=1;points=[];align=left;verticalAlign=top;spacingTop=-4;fontSize=14;fontFamily=Verdana;fontColor=#FFFFFF;" vertex="1" parent="1">
          <mxGeometry x="420" y="176.25" width="70" height="20" as="geometry" />
        </mxCell>
        <mxCell id="P_jX8-F7sH5aGkO6mcZ9-28" value="Botas" style="text;html=1;points=[];align=left;verticalAlign=top;spacingTop=-4;fontSize=14;fontFamily=Verdana;fontColor=#FFFFFF;" vertex="1" parent="1">
          <mxGeometry x="350" y="176.25" width="80" height="20" as="geometry" />
        </mxCell>
        <mxCell id="P_jX8-F7sH5aGkO6mcZ9-29" value="Cascos" style="text;html=1;points=[];align=left;verticalAlign=top;spacingTop=-4;fontSize=14;fontFamily=Verdana;fontColor=#FFFFFF;" vertex="1" parent="1">
          <mxGeometry x="190" y="173.75" width="60" height="20" as="geometry" />
        </mxCell>
        <mxCell id="P_jX8-F7sH5aGkO6mcZ9-31" value="&lt;font style=&quot;font-size: 50px;&quot;&gt;Precio&lt;/font&gt;" style="rounded=0;whiteSpace=wrap;html=1;fillColor=default;" vertex="1" parent="1">
          <mxGeometry x="810" y="320" width="250" height="90" as="geometry" />
        </mxCell>
        <mxCell id="P_jX8-F7sH5aGkO6mcZ9-32" value="&lt;font style=&quot;font-size: 43px;&quot;&gt;Descripción&lt;/font&gt;" style="rounded=0;whiteSpace=wrap;html=1;fillColor=default;" vertex="1" parent="1">
          <mxGeometry x="160" y="360" width="300" height="50" as="geometry" />
        </mxCell>
        <mxCell id="P_jX8-F7sH5aGkO6mcZ9-33" value="&lt;div style=&quot;&quot;&gt;&lt;span style=&quot;font-size: 21px; background-color: initial;&quot;&gt;Cantidad +&amp;nbsp; #&amp;nbsp; -&lt;/span&gt;&lt;/div&gt;" style="rounded=0;whiteSpace=wrap;html=1;fontSize=50;fillColor=default;align=left;" vertex="1" parent="1">
          <mxGeometry x="510.00000000000006" y="370" width="175" height="40" as="geometry" />
        </mxCell>
        <mxCell id="P_jX8-F7sH5aGkO6mcZ9-34" value="COMPRAR" style="rounded=0;whiteSpace=wrap;html=1;fontSize=30;fillColor=default;" vertex="1" parent="1">
          <mxGeometry x="400" y="620" width="300" height="60" as="geometry" />
        </mxCell>
        <mxCell id="JxoalYLECDGrQTy4-0tJ-3" value="" style="shape=image;verticalLabelPosition=bottom;labelBackgroundColor=default;verticalAlign=top;aspect=fixed;imageAspect=0;image=data:image/png,iVBORw0KGgoAAAANSUhEUgAAAeYAAAIICAYAAAC7NU2gAAAAAXNSR0IArs4c6QAAIABJREFUeF7s3QncRd1UP/D7/pvneS4kJCEKKRENb7ySQoYkSRlChSYvIlNSyJiiUKa8lSFDZR4SZaYoQ6V5nufB//M99Xta7+kO59x77vQ8+34+z+fe594z7LP23uu31m+tvfY5733ve987a68mgSaBJoEmgSaBJoGDkMA5DZgPoh9aI5oEmgSaBJoEmgQ6CTRgbgOhSaBJoEmgSaBJ4IAk0ID5gDqjNaVJoEmgSaBJoEmgAXMbA00CTQJNAk0CTQIHJIEGzAfUGa0pTQJNAk0CTQJNAg2Y2xhoEmgSaBJoEmgSOCAJNGA+oM5oTWkSaBJoEmgSaBJowNzGQJNAk0CTQJNAk8ABSaAB8wF1RmtKk0CTQJNAk0CTQAPmNgaaBJoEmgSaBJoEDkgCDZgPqDNaU5oEmgSaBJoEmgQaMLcx0CTQJNAk0CTQJHBAEmjAfECd0ZrSJNAk0CTQJNAk0IC5jYEmgSaBJoEmgSaBA5JAA+YD6ozWlCaBJoEmgSaBJoEGzG0MNAk0CTQJNAk0CRyQBBowH1BntKY0CTQJNAk0CTQJNGBuY6BJoEmgSaBJoEnggCTQgPmAOqM1pUmgSaBJoEmgSaABcxsDTQJNAk0CTQJNAgckgQbMB9QZrSlNAk0CTQJNAk0CDZjbGGgSaBJoEmgSaBI4IAk0YD6gzmhNaRJoEmgSaBJoEmjA3MZAk0CTQJNAk0CTwAFJoAHzAXVGa0qTQJNAk0CTQJNAA+Y2BpoEmgSaBJoEmgQOSAINmA+oM1pTmgSaBJoEmgSaBBowtzHQJNAk0CTQJNAkcEASaMB8QJ3RmtIk0CTQJNAk0CTQgLmNgSaBJoEmgSaBJoEDkkAD5gPqjNaUJoEmgSaBJoEmgQbMbQw0CTQJNAk0CTQJHJAEGjAfUGe0pjQJNAk0CTQJNAk0YG5joEmgSaBJoEmgSeCAJNCA+YA6ozWlSaBJoEmgSaBJoAFzGwNNAk0CTQJNAk0CBySBBswH1BmtKU0CTQJNAk0CTQINmNsYaBJoEmgSaBJoEjggCTRgXtEZ733ve2fnnHPO7L/+67+6P///v//3/7rv8vJ/ezUJNAlML4HMP+//+Z//OXfOtfk3vdzbFfcrgQbMA4CZUggoA+T/+I//mL3/+79/A+b9jt129zMgAXPPCyjXz23+nYHOP8OP2IB5ADADZYrhfd7nfTpP+V//9V9nH/ABH9CA+QxPnPbou5EAMPbHGH6/93u/zkD+93//92YY70b87S57kkAD5jmCjzLwEyCmCIAyQGapUw6+R6H1ae099WO7bZPAqZFAPOMaRsqcNBcBdOZm5uCpefj2IE0CcOe9mQVNHCcS6IuEMqAAWO085wrIANtfezUJNAlMI4H+/AuNzRj+l3/5l5P59r7v+76dgey9vZoETpMEGjDP6c1Q1xQC6zz0NW8ZOFMcvo/13oD5NE2J9iz7lkASvcw1oBu2KlR2aO0AeDzofbe73b9JYCoJnAlgrhY4MM3/ANek72d1OiavZGR7T0Z2fkvMuWZoT9Ux7TpNAqdJAplzQJXhGyp6nsfLIPaXcFE+O68awS2UdJpGSHuWKoEzBcxRCqGjE8OKVZ7s6yiCHEcZxDsOUAeU+2DdhleTQJPAhSWQnAzzKWxUNXzNpdDRfpfLwQs2XwPcPseIzrwFzG3+tdF2GiVwJoA5Fvq//du/dRM5QEsZ5H+fozjyOcrA90n6SrJX9ZKbx3wap0Z7pqkkEAM3uRqAt2/Yml+Zf2GwknTp+8zVmnQZwG/zb6qeatc5FAmcGWAGwBRCJjGQTvw47yZ6krwojgB6aDfv86jvQ+nM09COfkZ89axOw/OdxWcIEzUviTIecTzkzL+Ac5YpVi+5rYTY7iiap/eqDtzu3dvVO1mfhazsDDSKIcufQoGZ5JRCXZoRCz+D0W+h2gLszUrfzgSqwHyhmMs551yo2tp27t6uug0J1LXI5hujOHPS3POd+YWh8lnmNQ86czQes7YFsNv820ZP/fc1KzDXu7QKa9uTef/KZwaYDSrAXOPLsc4pBZ+ThR0KLQM0WdhJAGvW4/YGaAXmmrTXvKTtyXzbVw7l7B0oR8FjnwLG8Zh9l9KbNfHSOX6riZvbbvdZvX4F5joH2+qT3Y2IMwHMVZzJyk6CV2JW1WOOcujHtZqVPu3AzKQP1Zmyp/Po66qQ02dVUScM0fpo2j6a+mrmXZYcxiOuCZXJvE5/9insqdtzlq9XQTdrxfvecp1P6Qsy64f0cq3mVU8zos4cMEf5x1KvSzf6GZ5ZTjUPKKYR/9m+CtlHSdelZ8vAtYJ4FEQNLzRgPuwxlfmm38M8hapOsmV9glo8pPXttH1rLqVoUgXaReDaN6STONvm37T90s2LsxBjrmILnRZvK95xzdYOrea9UmuNypluAKYfTOpsSFBDBe7UTwSLAojlnizeKJWmuKfrn21dKculMt8SWpKY+YEf+IFduAkYh/5OUZEcv612ncXrJtafuv/9+Ucm1YOugJ25mWWkLdQ07Qg6E8AcLzmFC2KFRymENosH5v/Q2I2amW7AZTJHOc8rZ1qt8v6dKY7+MrVQo0kgauA8XX9NdaUo9xhS/ge4iSUHdDPvUtnL/dv8m6oX/vs6fcYwTFXuMnb+OT4FmbK6ZdoWn82rnRlg1r1J6srnWObxnuOJ1cHaFP10EyM0dBRv9YDdJYq7D8DVe04SUFqV+CTrn+XfFPl0/TXVlSp9nfyAeMbVOM4SxUqrtvk3VS/8LzDXYkkB68yjmnvTv3NYjH54wbxOUZhWt3ya/joTwGzgVGsddVqrC2W5VAA6FYWaUphmkOUq+oBSqFtmVmB1XP2tJqfkGqne1q8WFW+81U2ets+muFrNCzDvPuiDPqiLbQaIY4gFtEOptvk3hfQvfA3yT6XDmmCXFSvmXz/hq17BOXFwspolhlf6dvpWn70rnglgTiZ2POIkdaXgSOJYNQHp7A2F7T1xrfzUL6uYBJS6HMZE72doa11lMmq5xiiSFLDo03Pbe7J25SESSLjBsekrSt3886rzr8Uqh0h03DHxdOOc1LoNrpT6DsmhydzrZ2inNnm87IQk0qcJUWXXr2ZYjeunevSZAOasnYy3FjCIpZ4YVytesP5AWnVmjKN4tPGisum9vsiSjXllT6syiGEVII4ioBiSRNSUwqoe2d3vKcHJmErhkLpWOashAgyt76btm8y1hHvCSCQ+XD3fGNHzdGGYxxjJma8pEuP3WlGx9eP6/XhmgNkgiWIw6KpXVrN641WvL9J2ZpVA6OhQaNUjSjghhV4cG+DuZ4hGeceocg8KhSKoTIf/fd9iXYczDvWJV/owiZX9JMBGYW+nz7IsMexEmIuatBVWIwlc/fmX/kvoKbq0LneM8ayfs9JiO090+q96qoC5xiQrwNbBUxOPmkW3/QFePeMaP06GvAlcvenaJ3WNeZRJ+rUCcu3TKPuWIbr9vu3fYdH8iyeVspuJcbb5t5s+ytLEOv/cmWEcBqMue0qrkreRfqqGU6XFE3OOw5MKiq1/1+/fUwfMNdGkxkSi/ONdNY9q/UEz5syaeFdp7Hi2KZVaPeVq4VfarVJmvs81EkNL8h6gDj03pq3t2M0kEGCOcZRkrpS7TdiiKe7N5Dz27GoEp4+SRBnDOOGh6k3X5LCwHckHyLxNODDxZufXENPYtrbj/1sCpw6Ya9GJfDb4MhADyBW022DYngQSx4q8E0uOck4FqCR/BZT765KT0e37JK8E9FMQJn0bC74VhNlevy66cuZc9Z54apUq1cf9ko67b+nZuWMYw4QQPHliwZmfdGRANhR3TeIK6+HcykbF69a/cXpyv0Znrz/Gjh6YQ21GoXs3IPpUJxHVoiEt+3P9QTPmTP1j8oZGi3fbXy4TEK39lmVrNb6c9a9ZahMKLgoi3ln6e0xb27HjJZD5FyMpbEVK3sazqgl91Ugbf8d2xlgJ1KzreMwB5mRgh7GqRZiSAJY5G2+4FgaKYe28ugzL933qfGy7z/LxpwKYoxS8R2HXhfJJWIhFF4XfilFsf+iPAeZY73Utcs3UDujWJLHQ2ckmrSVUW7hiN/3rLlHomWNJ9tNXdUvHPmW6/Ra2O6wC5jgz8aTDXoXdqqGirGPOeucatsh14iQ1YF5/7J0KYM5AoBTs5frBH/zBFyr3F6s+1Ew8sPXF1s4cKoEhwBzvtk5631WvK+uWKYsse0umfZJUQo/WNc5D29mOW08CkX08ZfOvLr9Jf4XWrHWwW3LQejIfe9YyYK7hIP3xz//8zycV9LJyJX0Wr9gx6prHCaobkuTY5jGP7aULH3+UwBxlkEfJmsh8Hys9tI3jGn22/kCJXOO9xitNTCoMRE0EyefE9t093lTWG7tudreJl/yP//iPnVEVpf0hH/IhnaKnXJKM4n6MrzAhtZ+jLNwv3lltV54lSWVhTVpoY/j4iLzre/oma5Yjz8g786+xVMPlPNWR82LMtRhPrSVQV7BkVUTmd1Y/hAav32trmKwAeosxr9+DRwvM9ZHjaVHu/Rq8FRCirNcX19k9M7GoecBG5n//938/+7u/+7vZ3/zN38z+6q/+qnv/y7/8y9nf/u3fdn8A9mM+5mM60KW8//AP/3D21re+tfv/Iz7iI2aXvexlO+D+67/+69kb3/jGrh9N7Ktc5Sqddf7nf/7ns3e9613d8Z/xGZ8xu8QlLtEBtvv+8R//8eyjPuqjZpe//OVnH/7hHz77h3/4h+5c3338x398992HfdiHddcJW1LjZm2MjBvX1RCKQq5KO4lfMYhqJbbmJY+T9RRHJ8zQDxElk7pmUUeXZoWDcwOwYUVqPkeM64QRndcYq8177SiBOXGNWHdiGX0LMIPQsf2i65uL7XRfIRZv5Ey2//RP/zT70z/909l73vOe2Tve8Y4OJH/v936v+w4wAuOUOI0BlBCCyfqpn/qpsy/4gi842coRoL7sZS+b8ZD9fo1rXKMDUkrgz/7sz2bvfOc7Z5/wCZ8w+/RP//TOU37Tm97UfUfpX+lKV+q+99KWN7/5zbNP+ZRPmX3hF35h990v/dIvdQBfKe4P/dAPnX3sx37s7JM+6ZNmn/Zpnza79KUvPfvMz/zM7jr+V785sbW2znb5+A792V/pEEUfkA7zUbPjGzDvXncEbJN5nXmZPAAtqkvYHF+3hAwzFV0qXJENYwLM6fuEl9pyxc36+SiB2aCJNZ4EhSqGUCw1C3szMR3n2QFYrY+H6D3WsO/Fi4AYj/Qv/uIvus9/9Ed/1P39/u//fge6wDfebybxPPah70nlGPdDPX/xF3/xDEDmOEALcLWJN3uZy1xm9smf/MknIOl8RsHv/M7vzH7zN3+zUxa836tf/erd8fr5137t12bvfve7u+8ALFB/+ctf3h2b+1Qw6Ic3/OaaH/dxHzf7xE/8xNlFLnKR7jqAnmHAy/cO1Hn97huPIONMO88SJZ6aAKGrw6b4P15VFH2VzXHOouNvdXJwjPXqpMTwztrkmkCZp44RFlCOsZVYctUx9ToxAo5fevt5gqMG5iQH1fVzURY1ZnhWrfRMyAAkC/kP/uAPZm9729u6P14vAAbI6Ga/o6N5xwHzCur5PA+AFw3fyJ6F/Vmf9Vmdl5qX9r32ta+d/e7v/m73lcmOckZte9e/DALGQsDwyle+cgeejtXWV7ziFd1v5513Xmdw+B84BzyWTSttC7gmNu1/4Ot87wwKoKxNjAY0Otrdn88VnFIK9LSPNx5TwkbVCM58DBjHWDnt8tiP6h5+1zBHWbYYDziGVOZeQDY5O9X5yfyIYZ/fjIVatCmJYEm0Hd7KdmSVwFECs8GQyW8AxIOuy6GS3HPWlELAGLCgiXmkwA9gveENb+hAOLLLBI1CDcUVmfk/lnLAuFrIQ6dSrGve59WudrUTbzehCF4vgyH3d936OYrjsz/7sztwTxsYF7/xG7/RUdtAknf/yle+smtWCl2sAuYYLVE82lqX/kSp5Tp16Q9P+opXvOLsS7/0SzuPHS0OzEPzndaxx3ADzORUi4ekkE8KUPT7cOh4acdNK4HM3YQeEjMOi5ZNfmq/pQXpQ++Oy7nGdmqgJwQU7zoFgFqi3/r9eNDAXD2zmt2Z9P+6VjlxrdNWUSjgGLCKh2JSxeL9kz/5k4525v0m/vuWt7ylo3jFcgOA6w+T/92uL9m1aU+1rgNyfWBN35mwF7/4xbskrWpR60/xasDKc2d4xSDgOfvjJQPCPL9YN6MDMHzJl3xJ5+2/5jWv6Sj56sVG+cRQ6wPtJjLJuSm4wKPmSX/O53zOjBEhrq7daHLtrEou7amJUVO0ZcprLJt/ZJy+rxR2xsdpNUqmlO8+rrUoaz60ds0HqOAc47jqn1DfxkkS/nJc1QX7eM5jv+dBA3OUai3zF4FnTV3+ryn/p2lQBJgrwMh45v2+6lWv6jKYgZrv/KF3Q9GmDOKmg7R60LGOtccrSjkTunrdfgPGrGx/oYYvetGLzi53ucudrIWM584CpziyNCoJJK4dZsR9gfKv//qvd9nXH/3RH91dizxkesdgSRJKXT6lvYmHbiqTen5i9gFZzwykvT7yIz9ydrGLXaxLTLvmNa/ZGSZZA0pWhwzMNS+hGsH6NWVPMzYSW2709ZQja/prZXli5lZ1eBYZrZXSnhdz1srqGFUnYvonOBtXPGhgNggSs4jyS3GJgE4UQzJp5yX8HENXzmt3siNR0rzJF7zgBbPnPve5XcJT6PzEfGK9Rh4Bzr7HvUoWmYTxfAKKSRwRa02ylCxqCVPJdvY/uhpYOk58FiDrm1QKyiSORxxAr6GHvndbk6z0v2d1HkrVH1nICs9yrTAIgFq82Z9YddZIRznF4AsAjYmd9+WY5yAbS7QwGMlsdWzkKCv82te+9uymN73p7FKXulQny1Dfq/pmH7+HbQkLEQVcE4rSl0m2PE2G8T5kvs17phaBfgzTU73gzP+0oR9eit7N0kPHZT5WlqQxJpv14sEBc1WOmfyUOwWcGFbNLKzUyzHENPpAGRooy728U+oyln/rt36rWwr0ute9rstMDsU7r8vjJXuPEZNJFku40lXAIElWvDqAKuvYZ8ACZP2hYf35Xka1vxT9SNvXGYKJd1VDYN5kTttjpFVDYdl9q/XvXsYP4AbgKH9gLd6O+gbkvgfeMtAlmwHxXCPyDEuTcZmxGtCy5ArQumYMynlgH9YBc2CZmDg1CvySl7xk1w+5X4yjXY7rPn2d/IOaxxHasoY1+mA8RDHXew05vvb3JueuM15P2znkl9hymK8+KMfzzXvGdMu43t5oiM45SGCuQBJrPLGRWGdJ0qkgvUsFtm7XBJijWDwf0EBHP+95z+uSlwAz4AAQfc93kVdXlXmSrcgDAPNoLf9Bo/LSfPYXkAUowBYFy8utu8fEws5SiEziKOKxCrWvXJPIlees16s0WwyPdajSXCdJXf1kFQYPWpxRJMZN7pLRGEeKoEgw87+lZZGNcyow+x5TAOADYnmm/lgJ+xCjUn85lzf9uZ/7ubNzzz13dtWrXrUDaa9dZrjWcZmxmrBADDHvlHPYmjzfIo9pEYguGstDxlQD5nU10P+e1zfY5/VjDQ1lDlYdsHkr2hX6OrFjKd67aHbsSV6aE4qx0pu+DzgDm8S06iQ+FGDuBHvOOZ0E62f/B4iBgLW5z3rWszqvWKyYB5eJEHYg3ZNJdGJRnXNOdw9KO3FcACsz2HpgXtgVrnCFLr4JmKv3vEyB1nYHfNOGXCP90veSxg6Z/tCbB2RT3DNeX64fI0Z7EwKoYyfefDxh7eQFS6hTFIXx9Nu//dsdUGcTDaAa+jr9vmhqxZjMvWNsZm9c9+V5o7y//uu/vss6Z0T1PZX+2Bor/75CSL/GWMr1vSd04BjjrC/LzNsK5vkc464Ce36rY6sae9UQS6gh/RHqNcfUvbw3kcFZO7c/PmvfVZCOTphq3p81OY953hP9fgjAnP0/40GkrGatIFQnbSZq9ZbHPPy2jq1GRei+KF/Z0ZQ5elr2sDixzxSw5+WlBRyiEE2EALXr8GplJiuAIbYLDACv/3nDEo5Qzocml23Je9fXrWCC/tZ/vGnUOMNK//qcbOWM2Qp0Q9scr967pWASxz7/8z+/M7iwHjEqAkpjveqaBFfXH2duxUvOmGQUYwmM49D+vkP5CxFgGrIGHgMkEdFvjBf/M2D8kY3zYqTWJTfulbHr3Xg3pl1bexgnGB1/MvUZCN6xDY41l/KbMI254PvkOmQ+xXCKfukbfzFEhvZVO65JYBMJVMM1bOdBeMyJdSSGl/da+i2NJ4BksvaptE2EM9W5SY4wuT2XtbYStmRQK6RBYVFUlAGqMoqtesZRthSPghzoTTFIZSSd44+S8nvOy7rSqtymeqYprzMFQTOE6pyyzblWrNmAYrxGfY7tEKO2RE3lsRe+8IVdAZcYVrUS2ZC2xStMZrsxz2NmjMlC/5qv+Zpu/TTg8VsNPwy5fowM7auGsPsxLoxT2e+vfvWru/8ZIr5zPHA2hp0nBBCGIUYo5ZICL5X1qqxNwHEee5NiMo4BqgCWMVCLxvTj3PHkU1rVecAZuyZXQuhGTF8cnzFrKZtjyS3zLdeMjhkix3ZMk8CmEsh4z8qHDt8OyWM2oVnTsdK9a3Td17N6k1NSeUOF26feomCirAEtJY2ifuITn9h5VX3azzNRsMkmznNQsta/Wpf7ZV/2ZTNVrkIbVms/FF6AIko8Xsg6u7psU5ZpZ/99HuDVfogiz3fVs1kn1jyvj+f156KxUI0nIBFjKIq8UoH63Drr5zznOZ1hBqSNjf6a8koPznv2AHto4CRcmcRYk1vf+tazr/u6rzsBGtcYYri4Lm/W+ETRi6e7pvb6LCRiLEo8lN0e5ZH29MMO87zMKtscXz3ymsUdrz3L2+r1gSxwtTKhjtN6rTAAdYzEIw7gVlkybgE0sLbuXNgHM8H7pm9kHWdJ0bLxUA2PoTqkHdckUCVgTMcJDdu2N2CunlOWwIS+C/UXJeT/dcBm6u6vSrUqCEAsSUiFLTS1vyQBpQ2Jj1E8Jr9n5oEEYNCT559//uyrvuqrTpTC1O3vA2EFkvo8NaYUsM97+o0BRbGHqjSwfOZBJfbKS/ScfvPnMxl6z2fXzfKl/vMmA9v3lGSWXnmP8vSeNdKUaejNJLTxmuIZVWVfaWnXz1gLsE2Rr5BJRibGh9g0sH7961/fedbk7BkzriorNKTv4yXLIZDdzaCzGxeWJQAXdinAmb4Nm/PkJz959su//MudMek6wOrtb397l+wmRAKs0PWSE6dgO4Y8Vz0m8yaes5APORljY165jnN44GSH4Uimse9Dndu5zHMzTgA3OfCwgXlNgqzyaOGjMb3RjiWBjB96KUxrqqbtHZjrxIgrH0+5WtSHAMxRtFGgvKCf+7mf62hLNDW6LyDiuRI/i0elA+Ipi8dFWfr+cY973OzGN77xSQbuNid6pTGrdxX5A93EEWWH85go6mxmkZhiQNbxNYaYQZb3UJ2VCq6Av8jLq4qvekL1c9avB7QD4AFsA10c0hIw8fnE6AGQvhDDjKxr/ecpPHL9mvWieV7xUp4fT/RpT3va7Fd+5Ve6Y2KcjAG/hC3SViAMRID0zW9+8y4EEsbFb9XYyD0ZTMax+PgDH/jArh1CJoxM/Y4CZvDwovte8i7Ua2VNgDNwlIiXeu5D2xBg5nl7HuM64zLXSKa5/8OGZEkhYxpQS8RTLIaH7TpkssqzHtrGdtzZkUBl36IjMh67JM99UdmZ5Km/mvc0MpW8EkceQs9N3a3xIiNEyoD3w+N55CMf2WXoZqvD0GqV6sszarvJi3r0XAAuL78BDkpQhwSs6/rsZc9VPd1KHfYVfEA0BgOPg3ICuFHM1kqLK/JKAHNkXxmM3C/f9Wn1gFw9NwZNKPfQf2MUfRRrpcP7YyLgU2OUOb7KM7LRVt4TMFODW2KVd3HI7N8cgJ/XB7l/34DIsaFXYxHHGq6UKkB8zGMe09HdADuJUcv6MtdPiCexXefksxwE22ze+c537kIiWXseIyjGZShk7/pdWxgLriUvIt78kPZMPf9i0ObenlefAUuyiiE5xJiJgUYusufzquc6JmMnGfKRVw2rua9EM3Xfxfn9MfIYQTVzfh86axt90K45vQQy7jIPjZWEXhjLewfmFNbQwNB6Wc6SpAximYJaHCreKNQACgtdFjWF9aIXvahTCl68H69U4epfP2DinaXvWQFeVXJ+45WI9UXRLprQ8XSdk4S5AHnkB3C1KxWvtJ0h4D1JPBQTJey4Wp3KdbUBWKHZa8LSPBCtoYe0baiMD+G40LzkTX4xJoAyT1qda7RmKM2s/9aX8dQzodJnY7Oj3dcfqhjz4k8oJMYbGQ/ZKavKEzgksdAzyua+znWu0+UtoGgzZpxTx2KMS21Bu//4j/94t5TPKwDtOSsTtMt+HEtrL6Kvswpk07bn+gBZPD510hl2DDxgXdmdzKHMm03v384/XglUGjvOqHkF87o6CPvymGvDkhVas9JiPUT0uwTmUArigGJwdmayOQRQzYvFTIjo6wB4f5gkzmeC8oQAYTzNGBuOAYa8ExN7XjJJpT1So9g9XRPA8rooUBngKHXf8exlzzIakgWeARADqO8NkbFnAi6hDFO3eh4wx1tG8wHyqRTerqabimbJLq60Zrx+cs86cdS3Y/QVwEZp2l9ahjRvtOYQjPGUQvfnHHFP/ShE8jM/8zNdP66T0a2P9aFzhR6ANWaAd/ct3/ItXRw6MeqMqXjcAV+GHEOBF238+9442Fc/j6W1h9DXm4y1WmHPvfQlORtXQidCArYjNU70RfIYaj7DJvdv5x6vBCpTk/mUMdSN830Bc6z1eByUXhRiPlcwnhqY51HAlA4lZk3qYx/72K4SF8XoVcsyJmlHvMpn3mkFT8cvo69zrGcecxfaAAAgAElEQVTK8o6v/dqvnT30oQ/tKNTaNrIArkBYWxQlSZKZhCKeVTx856Vz04bIOWBcqeco2mrJR5mJnwHcbMe4yGNGzztHO/alsNedngFZbU8d7fR1xhvQpWixDDFkHGOsUsTGAMqYN2qtMU87xUDSrgrUtW/9HqYjoFiZBwlZP/ADPzD72Z/92Y7x6FO2iyjcMAGeQfIS4zGVyvymfTe5yU1md7rTnbr2esYwVwFl52Y+ko+xyUjN7l/rynyT82phmCG09hD6epP2pF/rO7mFecg4MZfQ3rLnjRWMFMN+lU4bY+Bt8hzt3P1IoM7fGN97T/6qoogyivKvFOPUIquZryaGe1Naloygqn/xF3+x27kIJdxPDqltiZKgmCmw0Nopx1jp61pac9HzAGRVnljYPGyek3ivuK/EG3Fg3nD12ofE1taVH6VAYbP0AUQUe/XoUzJSW4+VytZ3DJBkk1elmgxvz28sxMiZx4yQiz5EYX7e531e50nb3pLXJGkphtLQZCHyDFgLoyTJkOca1mVIFneltfVhYsraIxHuete73uyrv/qrO8BIfDTGWU1ANK4ZrE960pNmv/ALv9DlRMSwS1vH5AysOy5z3iJaOzkfjqvZ14dgNAJo4RChBWPEnzFinlVDOs9YQ3mbyqudf9gSyJyO4b5Xjzmimue9xvubWpxRsBEEMH7Uox7VKR2eb6oTxVpdRFPH2nUcgKLUeCYBKJ4IRdinrxc9T+K7rmUCAwpeXJcI8D/lN5O5O7VM5l0v9+SZAC7GBaWXvrK0hgx97zUEJHbR7jH3CPNBATKwqjcYOp/Rsar2dT/WnsxwnjaPFX1sNymfQ4+v8pYqA0PO+h4oy95/whOe0LUp/bHsmdM248qYSp0A4xO4enasB0Pidre7XbfkqtKyuXbGnpAFilv8+YILLuj6P9WKMrfG9MG6x86jtc3fAPOy7Ot177npeTUxktFnDslfwLbc6EY36paqec3Lsdn03u38w5ZA9Grm/cEAM7HFW+lTROuI9OQBzznnQhRgygqK6T7sYQ/rvOOAcdoQRUNBLVI2FZizNlm7KXKeSD/7epV3G5BIB8Ug0Ja0IXT0OvIYe076IHQ7xU4h6yOA43uKMF5SvKax99nn8XlGcvXHm/FMvteHaPwkOi17voyFLO+rMslvoTO/4Ru+oVvORCnXwjl9j6mGF6q3pz1o5Qc96EGd4bbKSw37lOcDpKjs7KCVTORQ19e97nVn3/3d3915/jy5aqDGmHUt7bAq4d73vncXEzevqhG7arxv2u99WttzZGevlOVclH296b3XPT+rLsgmqwQShjIWAPQ3f/M3d8vcePue4/8o7P+pwb9uG9p5hymBql/2HmPepohi4UcxUhoKJaCq7WuMHhxbpGCRZxklwbM0oSi9FELY5jPu6tpkiKal+CiSJJ0dI329SGb6MN6jY8R0PWdN1ttE3vFcTTpeEi9a3NGaWKGL6inFSJsXYwTSjAeFaCzbG/JKyAYwyDLP9pYJS1QQJQNG2Fd+5Vd2f+LmyYPIcZViFX9+6lOf2v1pTwyBRSsVhrR37DExiBgSkq7cO/039lr7Pr5W/zM2JBky4hKC0JeN4t53L23//gfhMW/jMUOtUmSWIj360Y/uMkxN2GSWThV3CjCjBCkxgJ/ygdt4tl1fkzLg8fGUWfYoUM94jF7yMmDWj+hEzyW+75Ws9E1lHnD0HpCmhFWUAoA8pQrQAbj+fbUHJf2t3/qtXdb2Ks8093U990LX88SyyUSSlXKfeM7J6kZt3+Uud+li5V5ZJpbjk/FvvP/0T/90FxbKMrxNZTb0/MSb0dcMSPNbe/a1rGtou+cdF9A13xjCVgCoi47qFn5owLyJdI/n3KMH5n58Ol6ApUKoLIqCNU+ZJW4dZTXFxI13A7S8eCM8DoaBpKEaKzyeYXHhlpIXT8S7rHXPR/EtS447lmeNV8rgEAM2ZoASkMwezJ5lFQCuet7ERIEGpVtDJCkpeotb3GJ229vetrt3snZrSMY9UgjEceqxr6Ky3Tf9lwI5lL978HZjYKX9tYpV5gvq2/1uc5vbdN4bYM88yxgIwFu2d9/73rdb7x9Gal4OySp5jfk9meZA2ZwjT5/lfNSwwphr7uvYhNFqjg1ZMxhldcumB9ZJGKvtbFnc++q16e979MCcSj2hHIGthC5ZrM9//vM75bONpJRY6d5TPAR9HYVVs7VNslR0mr4Lt3PFmlxDGcfo8A7EfBevK57zpuC1nSdZfNX0YbyTZF8n5tzP1l4Fgpu23315ReK8vOhrXetaJ0uW0h/GkbwIIJ6Y/7z7xvgEwsIr5gVPNn1Us7UZsfNo7Xrd7HQGHCztE48nj8RNHZs5aFw8+9nPnv3UT/1U19ask3aPqeZB+s59a/Z1+ii7S2kLI3mKsNWm/Tv2/IThGBmMIysyALKVG+eee24XDqFn8qplixtIj5X2YR1/9MBsoof2k9D18Ic/vIsfR8luy6tzT0qgn32d7q3Z2ikfeFhdv7w18bQAMGWeZVpJ0EvWMmV/rLS2ZwxA1exrktG/WUqVjPQk6myrHyniAB0GRolQiVh2P2I86AfFbu52t7t169l5wPOMoUpf84xjQFXDInS6/tWHrtWntfvA7F7ZE/yOd7xjB9CMl5ogFu/YtSzxk0GufK0xwkgYW+N6kawzPgETo4EBnuptaU9qa4vJHyMwG4NAWQnSFDLSh2EIVBu72c1u1lV1YyilYExlKLY1Vtt1tyuBowdmE13lqwc/+MGdl5zlEon7GqRTe8wmvkmA3nXtfu1rXRaKOxZtLRBxDJ5lpa+1vZ9x63cKEVtAaUwVi93ucP/vq1fFLS8AZZ18g9o3AWfGF+UeINxW/yVTt3o7PKWrXvWqXRKQXAmJi8ac9i7yPit9LXNbGEd/1XkQY9b3lLoxLGlqESuQ2LNxkLKjPDa0tSpiWJSaDBiP1vEK4dz1rnftdtZiJOS1iRzNP7Lxp/+qQVw9SIaOsECt0LfJfXcxPnOPgLKxlxrolZoPwwK4xaDVQWCIkU3k30B6lz023b2OGpgNOsX/v/M7v7MrvjEVTbZIvIvo60XKLMbBsdDaffo6nnJVuFU25EEh8+4o3FRJO+SksEX0teeap7Cr51yLkGyb1l5niq+irxddE3jxfBkeQ2jteh3LytDb1mlb5pO+r7Sqecm4k+shCROD5Hf3GvOaR1/3t1et14uhc0y0dqWvEzNnhC2qpxDGx+/68PrXv36XsW9det1ZLMZerj9G7u3Y3Uvg6IH5EY94xOye97xnB8rbBuZF9PUyLyMeWoqQHDKtHWDGBHim0NeLiofEM2Ohp152KoQdqleyiL5eZEw4noe4a1p7rCro09fod0A7xIAwrp0/lNaubaP8yYindoc73KHLLu/vyJWlU8aR+vP3u9/9umWLEgnHvBbR14tAqxqax0JrV/qarkjcfpnxr+/MvyRnyr63FM/OYpbHVYo7xsoYubdjdy+BowZm4rKpu3rCKneJlbEuQ/N5z3rmeUDRp3n6GbDVi1pGXy8CoVinx0Jray/v1+St9PUy0CKj6jmjROumC4cC0JW+5uVZ8lXp60XtzHm7prXHqoKAVjbmmEdfL7pmaO1Qo6to7T5rEmrbuw0b7n73u3fUe5b+MJjrrlvodZ7zQx7ykG4VQ1/2i/piEX29av5pL8/yGGjtSl/X0MMqVi6hJ3OPUaYv5SUwlGxaYgOTGFHpv5YgNnaW7e74owfmJHykohdKVeIX5cLj8z/L3HeoM4OWMgDivqtxw1jeGbAVkDLwKRnXzG9DgCdK07GHRmuPpa8XDU3X4Sllu0HK1yv9s7sh/X/vNJa+XgZg82prD/FKt/X8lb42trKL2ZBxOa9Nm9Daoa/FrCWG3fKWt+y2mYyXpk0p0u/zS1/60tmP/diPdfUFjBffeZ5anGQsfb2s7/x2iLT2WPp60TOmtKzfUwrY54tf/OLdWmh/KO6sOmje87Zm5ebXPXpgrgooCRIVUFMxx2RnTSZxJtv9AWsgLoHEn1g1b0qySKgk56DqnJPNKgLiQ+Op1XtGGZpEh0Brj6Wvlw25SvmSazJwF1GNmw/fYVcIfU3ujLHUvh7ad9XDOCRaexP6ehmArUtrxzhzbXK61KUu1WWVi3sa7wyY6jlnf/KnP/3ps+///u8/yVGoIak+fZ21yWPH1DxaO8zAsFG0vaOSZW3Z1xD6elFLkqAn2Y2cjfWwde5hnT6DSchBwljNA9je07UrryOBUwPMWcoSb9f/VXERTjwb39elL87JMiDH+Z/SBua8bkBtkCvpCbhNaJmSfktsm7KnaPJeFUeljDJRxITcY9/Z2mPp62Uec2Rnwst2Jh/gvMsayrV969LXq54xtDZjTf/VZUvreqprTd7/KR7Sp6832VBkE1obY1LvnWvxnL/ne76nW1oIoJMUae4EsM2tb//2b5+94Q1vOPGeA/Dzsq/HyrkmPc2jtaMD1umHTc8JfW0s1WqEY5mYjHfv8kT0BUfCe3QawAbQ97///bsNSxgD0ZM5plHcm/bo5ucfPTBvLoLxV6AUrIsUxwM+qHLvaHI0N6pcxTHfZcJnwlVa26SoW0ZuO3mten6ZfHWdsucaqwzmSc9ErwUsarb2WE9nfO/89xlT0dfLPEt9hz72fFkuVvdsXrftq86bmr5edL9NaO16TbFOa7Fvf/vbd3RqYp11W0ljX9U1+6Bb+2xOGY9AGXgvy75eJa/+7zVbm3eZIiS7rO89FX29rO/oFy/PF8fDOE2+jPXPNlXxTtZhM1ot7rEjavrjGzCvKdN43KHKk0jme17zAx7wgG5ttVc/zlppbZ4zBbitCmXzHm9K+noZcFGA2W5w17T2VPT1Mu85tHY8Z8baJt7qkKG4Dfp6WR+G1qbcPV/YpiFtzTGRE6CwMcMDH/jAbvcuoJhXCgGJNb/2ta+dfdu3fVtn4ALx0LtTGXV9WptxxVvdJTBPRV8v6gf9lAxv+iW0dnUQxNv1gb2473Wve3Xr0b36u56N6et27DQSaMC8hhyBcOghp8crDr3mN5sgqMrzlre8pbtDnRCVcjJ5KIbs3bxGc0afMhV9vQy0/OY+qcvM46F0tw1clb5G5ylbOST7eqwQcx/95xkpOc84lmJd577pP0Aplu//bch1E1q7PldimfHaxJ7FlJUdzVIeYyN1uoH07/zO78x+6Id+qNuoo269metuIud5tHbAa2x/rHv8VPT1sjkYdo5xTF7ZXCROBACOg4E5O//882c3uMENujDUPDq7Udzr9vb48xowj5fZoDOAgfKg9qulaHZpjc9rYPUStkFfL1MQobUDJKHMN1Gu8+7Xp695XPMqeg3qwAM7aFf09aLHDq2dSmKJR47tw+xOZQze/OY3n33jN35jtw2m58sz5pqMKjtWobYlfdVQz1Te8y67edv09aJnSb10hpZwW9iJ2neOyXK3b/qmb+robX3unCzbap707kZLA+YtydqgR0/zCiS2HAowDy0eMpVYApahRLPD0VTx7NrObdPXU8lk7HUqfc2bQStvuzxov40pQiLRjHLfhNaOh49luMIVrtAVCLLvc4xH7wwqQCF+b1Ma1f3ULMjuS8cIzNumrxeNq8TUk4nNYOUp1+WhQDj/C68BZiGH1ELHWszb0WrsWG7HD5NAA+Zhchp9VOhuO1wpWbivzN00fNv09TKP2W+JeYktotR4XlNtCrEr+nr0IJjohBg3QHHb9PUq5Q4YZVePKUJSr1l3o+KJuZ7YsxinLQ1RvAHourJCnXB7UL/uda/rAKRmL4/12ifqltGX2TZ9vWwOhtYGzj5LriPD0Nrx5pMxT/YqiMmV+Yqv+IouFl2T9RqtPbr7R53QgHmUuMYdTPH4s27wKU95SjcJKJWpN9VY1qpMuNDXvJ2U+Rv3NJsfrS3ZlQotSTkEnNdVro2+3rxfxl5hKlo7fef+mBzxTZWqJCEFnCt9aqniwx72sNnTnva0jjXIPNrlfBorq33R14vaibIGzuZhaO1F7JU+EJ9We1tG/WUve9mTzVCwHe21PQk0YN6SbAPCPJx3vOMd3c4v2WhjiiVJQ5pds6+1B4XltY1EoaHtidXNUMimCWMLfdR7hb7mTcqsXbd4yJD27/KYQ6Cvl3nPYWA2obXjxfGYZV9jUlSpsppBaU+Aa6lVXjw81PaTn/zkzsMOC7WrZYbr9H/o62zduKr29Tr3GHNO5p9laGSeOgrzQgP6J7uG8Z6/7/u+rzOefNeWVI2R+vhjGzCPl9mgMwLMBrw/lJDawKnfPegiGx60L/p6WbOjjCksy4x4zTKLxxoLlb4GypbUhJpz/3U98A1FPtnp8SYZMCk3u63s67GNTsySkld+U2LWsi0j511f/zlf3BLFq/9iZAEMBUnsWOX66c/ERcnhRS96UbcvtU0xsiOW43Zl9A6V2b7o60Xty/wjw9DTjKs6d3Ju+igyZUBZ9yykcLGLXeykUExdZTJULu245RJowLyDEWJg2zOatel924krh0RfLxJvllJJLuHlprbvEMXa6OsdDNqBtxhLa1f6mqKfVzzENXl05gvwFdP2qt6zMWO9M4P3xS9+8cnynqyXH9j8rRzWp68xVdq77Xk/9mGyqQcPOJvWLMr7CEgzeD//8z9/dsc73nF27rnndoZVrbld49Bj29OO/18JNGDewWgwmHkUF1xwQRdDq4krU9/+0OjrZcCsrSY1cCYfNOUQz7nR11OPmvWvNzZbu9LXwNeSqJohHABGYwMMuyI98pGP7MDA8Xml5r1Y8z3ucY+O3jbPsuZ5/Sfa/MxDo68XPVFAlFfP6GFAZClV/5zMudRv0C9Krd7pTnc6ydbO5hibS7BdoQHzDsZAFAYFpOjIc5/73I2TnpYBHvrTJFHtZ+xmGzsQR3eLeE5R1LK1ATNaclEyT6Ovd9U7w+8zhtbu09c2jcmrhh5S2CTJguhs8c0b3/jGHf1dj019elu/Pu5xjzvJo3DdfYUzDo2+XgXM+iW0NkNnXsw+feda2cWKMX3FK16xKwQjYS/FdnK/lrk9fB79H0Povfsaveu3+ejOTLzZQH3zm9/c0UBvetObugkwVUbpMdDXy4yJZGtTtNlWs1J/eT7xR0qkFQ85vGmAGlXFLmvVjfcsx4mSXkRfL3qaVA1jbN761rfu9hbW/5Kp8uIly1WQrW3tbWrU75LWzvjUNp79odLXi+ScbG3zy1K4lBHuG0zAV1/EiDZvL3/5y3clVIUeeN7OyfLIwxulx9Gi5jHvoJ8M1NTUNuB/8Rd/sUugmKo+9rHQ18uAOR605RlkRLHVbO1QaZbV2NmrZV/vYOCOvEVobX2k/3hUyS73DpQX0deLbhVFb0xYonPeeefNHvSgB3VJYQH7LPdh6L785S/vlieiyHeZrV3pa4lsadOQnImRYt7K4aG1Uz/bHOvT2sAbsyVZjNET+TOexJoxGve73/26Pk551a009gxctAHzDjq5TlKD2YB/xjOeMbvrXe/agXOs0nXJC0rvGOjrVcAcihs4JyEsXjOF4RllALfs6x0M2jVuUWltCVuUeyqEUdYo3kX09TJgDquU+aFKmN3bPuMzPqOjT+smMY595Stf2dXifvWrX33isW8bID1bmJwa5972fdfoprmnBJjpJyArvl/XOfvd/BNqYnBVNiuxZe8MJ7JXZtU1wpqEUZiqvaf9Og2Yd9zDAWng8sxnPnN23/vetyvYb6CPTVw5Zvp6kdgTc07hfbS2CU7piZmfxtrXSX5LwZUdD8mt3I53ZRkbRZ5lUdmfe4obfu7nfm5Xh96ewjy2CgDGyBvf+MYuKexVr3pV99s2aO1KXwNm4/MQs6/HyttzCRVkYxbGhb7M0kbynGdw+B7DcbnLXa5LCrve9a53kknf6myP64UGzOPktfHRiTeHpv3VX/3V2W1ve9tuL9oxyuPY6etVwEw+KFFKguJFD542+tqzWcu9j9rXGw/kFReIF3WRi1yk68Pf+73fmzRrmqLnlaO1VaYKWNQkJTu8obVf8pKXdJ771K9jp6+XMVjmH2AGyPoP+6GMbgygRexeKGzGJsPIhhjZDGNq+Z/m6zVg3nHvVlo7FjdL+y53uctMXW3reZMws4ziPnb6ehUw+531fYlLXKKj+2sRhHUp/x139cLbHXLxkClklGVwKFFMB+9Z/1HsY1mhRe1xbZ4x8FAFTOELdHnmVOaQqnt3vvOdu4IkWKkUaZniOY+dvl4kg9TLTgEZspQzoP+W6aSwXa7rOH1P9vqGgdZo7eGjrgHzcFlt9UhZjs9+9rNnT33qU2cvfelLu8SVxM/quufTSF9Xwdbsa3Qa+jMZuAwYr6k2v9hqh865eBKhANVppK9r8RDZ2Z4zZWDnZWtPZWABgNvc5jadcSsEoh0ZI+YQb122tr2dgQNKdt3XaaWvqzzCdogph2kgYwZy8juGxM6zfOr617/+7O53v3uXEwDsk2m/bh+chfMaMB9ILxvoKbIBmH/wB39wZkcdHkaAudLXmh2gGlKU40Aec2UzavZ11mGb4BRDnjmsw8qLHdABNTv5tNLX8ZQZUjX7Wjd4fhm9+jTZ2kOU+5AupOx5zrKCf+RHfqQzCMyJ1HPWLqEiVcIsqRL3Xvd1WunrKo+afU33eGYy1q8qhEmwG1LFLEumyP8qV7nK7IlPfGJXMKbV2V49+howr5bRTo6gpEwCg9kfj/kVr3hFt1H8G97whm5CsPRNDhOFJ1IBuS4tqg2ui/zjodRlJvWz8wL+8UwXXSu0lN8r9V7vtyoeNe/aNfva84VWcy3eUNY59zN1d9JJG9zkLNDXSfICyn/4h394Iq14maFGeV48MWO+jqN1xZs54119bdQ24yffZ/tIGf08t6c//eknxu5Y4+C00teZt+abuDIGL3vIp//MTeElYYm6FG0R85HzAtAytX/sx35sdtWrXrUD56x3XrffT/N5DZgPvHcBkazt3/zN3+x2p2L5//qv/3q3TjNZrimTl0cJSCdL0oSSSJWt2gISJlfKIWYJRKxhnrpkNPfvF/qIN5L12fGI+qKMl7iqBGkmsEnP8JhXPCQGA3rNyzG+O3S24KzS14tiyYuKkExJa3/pl37p7D73uU+3ZMf9YgAYN5KYeNWqhBnr4qarXmeNvk7xkH72tf/NT+xVXee8yrhJQp53fWI51Vd/9VefbFqySv5n8fcGzAfe69m/Ocoh1HZob16AhLFYuCYJz0QFH0DMc+BpymLNWsV4uPF2814zxt3XPXjplJfMYV47KtJaVIaByendd7Ggo2AzWYfs/Rz6GtXJm/KMNU4YTz7es/is53HvRUzBIXTrWaKvKWveJE8542heH6QIybZobcade1hOJV9DbDvAEAbGOEZrP+EJTxgEzK4n2UyBlGMsHjJkLvBgGe9ZITCP7co6dTKmU+ieRbW1+2xYPGTXJcfHPOYxsy//8i+/UP3zIe08K8c0YD7wno5HC1QryMWardRxJo5HStGFeJpRiHncAGefSszx1euun3N+7u8+PGv0FqD0JxMWePszecX0gDvjwXvfg670tYm+LPPTbyl2kGzRQ/WaK33NcGHkJCt4Kg9xn8M3gAe0ElNe1nfauqgIyVS0NtAwhrTtspe9bOcZX/rSl75Qicj0xfnnn9/FnDMeF3l+Z4m+FmKo9fXr+Iqx7J1M9HnWbi8bz/oidHbYPUzGD//wD3f71LtOo7UvPJMbMO9Ts52ie9eJmc8UHiA2ef3xpngr6HiZsv5SlrR6yn0KLR59NSYSczbhXTvGwyEA3lmir3k/lKywytgSmFgP5/dra0/Vh1gju1LZ4OLKV77yhcIexo+xKFub54ylqfR7o6+XK6eAcxLC0veraO1c1fnOVf3Q3gHGQt3W8xSpxrUepQHzWmJrJy2TQCZnpaMpW5M3nr/PUYQ8bAlukt1e85rXnGwFyLuaR4nXhDCKnccdCnUqpb5uDzf6erjktk1r8+R5aHY+espTntKtia+JivqKQXjPe96zW0pVi5BU+hoL5DUkLDP86fd/5BD6el4r4wH7jVEmWSxLqYYCc9gT4GzfALuHtWzt/5V2A+b9z4+jakGN6UbJhU6vtLrfMkkDlgGt+n/OybpTNKQkNyUV1Tr2ziM28bPrVATmOhSoOGI850U03K6EHPo69b7R12EA9m00TCGDdejrRffdNq1N0ScjGyjzjD/7sz+7GysMxPSL8fad3/mds+c973knYZQUR8kuUf0Q0BSy3Mc15mVfL6OvF7WxGqCoaDkGGIhkcg95tmTN6wtr0L/7u7+7u06jtWezBsxDRlA75kQCgE/MmDIDiP54rBQgRVtBOmBbATsXqlb3IvE6H7CJVfOqZae//e1v77LSf/u3f/tky0xt0g4TvBYhGWO9b9rFlb4GypTdaap9HYODnDahrxfJeRe0trW06gN8zud8zkkiZGLbwirA+QUveMFJ4uRpqX1dZZ7iIaljbi7PCx2NmQ+VXaiJoEPWOuc+wP3bv/3buz6gT856EZIGzGNGYDu2iwd+z/d8z+w5z3lOR03zLGRzfuqnfmpXPOAyl7lMl2xz0Yte9KQKU2irJJr1Pex5wO2ceOcBWDFrn4GeOLXtM3/2Z3+2W0rme9naoSerx77tbmv09eYSDq39iZ/4iSeeV0Ihm1991o3T0Noq7Bmz/s9yKkad2trA4Td+4ze6z16Nvl4t/RhtGArLGa3WINsxwJyYtX2d0dpZQbL67qfziAbMp7NfJ32qACSaWXEGlBPLOF6ym9VJGLqTF2vf3Ete8pLd+sXP+qzP6gCbRew38SUKs+4OlKzweNsBaO/5LQCfDG5K9MUvfvHshS98YafUKYZ3vvOdJ9m58zKF+9nomwjsNNPXMZpSXUs2bpap1b7ZRH4x3Ly7jyV++nHKIiSV1raU6rGPfexJicgaTgHKt7/97bsQSsnoczIAACAASURBVDKIU8xm02fc1/lT0deL2l/ZlNDaqfCWc1aFcZK17XiGP8/ZWPNKIt6+5LeP+zZg3ofUj+yeQJK3+trXvrbbLQaNPPSVSSXjEhhL+ALGPGxeC0otoK2WrmL3smmj9HN+4tkB6HmTVXzr3e9+d5ftra02LpBUxsvP8dUDqvHyoc9Tj2v09TpSW33OLmht20U+9KEP7cZe3xgUKrnd7W7XhU+8xsRNVz/d7o/YBn296CkYVuY69kp8Hqtmno3xnhnsgJn3zIg/i95zA+bdz5OjuyMwU1jhGte4RuctjVFUlB6PGEUZiiv1dwO2vBmTj0IG3pa4qN70xV/8xZ3HHUozyULVQq/C1K4c4zNPR3uVNX384x/fLd2KonDeGGXR77Q+fW0dd7btXOUdHMsA0HepUz6keMhUz7VtWpvh59mML6EQ4y5x1rxLPPy6r/u6k9reUz3bPq6T7GtjFAsRtmgb4zR5JmE+1DEw38ewDtqnj37oh35odqtb3erEUN+H7PZ1zwbM+5L8gd83MVqTREa0fW1/6Zd+qQO2IYAW+ozFy3p2jXirfRo5WZjVK/bZ5L7YxS7WAfXVrna1LqMWzcnLDs2Vc1OIJf/HCyLmxKVR3eKLPCLLqyS+xGtOe+fR3v2uqpT6acy+3hV9vWgK1GztbdDagNiYMDaB773vfe+TGvQZmwy7Jz/5yV35SAZlVgCsKi97KNO6T18zShmO2161kCWODFfgan5ky8jIZpVB4NwY68qn3uxmNzsB57NCazdgPpSZdGDtSM1sikiBhh/90R892ZVnlfVb6ets3Zg1y6sm5SIxpMYyuhv9qDCBRDOKJlRXMr2zRKZWQst1Kdx3vetds9e//vXd9pq//Mu/3MUz4ymFdluU0X2W6Ots3bhO8ZCphvM2aO2MT0tzlAa97nWv2+VNAJE6PhluNl243/3u1wG5MbjJlpFTyWTIdXZJX89rT+ZiaO1sfBEDetUzaL+5zTCTSa+2NvkbD2fh1YD5LPTyGs9oArGyX/KSl3QbnVNSJkZ/U4tFkzL0NSprXu3rsU1iQYcmu+Y1r9mVWpQBais5S7dueMMbdkCtfe4NrOcBcxRDaoFTGD//8z/f1e5FezM6sufsMvoaNZ+6wo5b1+AYK4dtH78v+nqZ9wxIp8zW7hcP4dkl4Ug7jJ14lt79Znxox9jqZtvur0XX9wyMjl3Q18uAOYmg+i+1tVcZ9q4Xj5/MgfNzn/vcbrXHWVlG1YB5XzPnAO9bwcXkEWe7wQ1u0HkJyVBdtnxkHn29qvb1UDEAZtdXxekRj3hEt0mBuDcq8i1veUunNGV/X+c615ld61rX6j7XvV8rRe0zY4Hycp5nY4RYfiXrXMKYtdPxotPGUNihr20ekvj3sQPzPPqafPtFYob211THVVqbcpftu2m2dmpfYwJCTfPsxDRvfvObnxh18ayFYb7jO77jZIngUEp2KhkMvU6lrxmtqOtd0NfLjKqElpI/wpg111bNlwrMwNhcVtdcOCs5CDlmqHyO6bgGzMfUW1tuKyUMSA38t73tbV2pvF/91V8dlFUZ0MrWjZTepvR1fVwgChBRi+eee27XJhSXv3gxoc/Q54BZIYkv+qIv6pLWeA+x3ud50tn0gxHypje9afayl72ss9LJIclq2oPebcVDtjwQF1w+tDbF7m9MElOlr1Olyvis+RKf/MmfPHvwgx88u971rtetHAh4ADeFbaxIsGY+uRBDPL9dSir0tdUOxvEUxUOmaH/mpf6Tb8KgTQLpqph9llGZ//ZxtvGFzUliVE/RvkO8RgPmQ+yVPbUpRQEAnRiuEoYm1dCt3Vi2aCeUsAk3pTeJbpRZLR5ogluypZKTCR6vzv1SapEIPY8EH0Btecy3fMu3zK50pSvNjVMFmBNjJgPP/YxnPKOLMfLUGAbZA9v1V1n9e+rG0bcNfR1PctXWjaNvMNEJ8ZSMMQlZ+n5oERLnZv38otrXjErL9S644ILZ5S53uRM6lRFgbL/1rW/tVgsAFjIbkgQ50aMPusy+6etFjcz4Ml8wXwwgeR21Xv6yc8meEWX+fe3Xfu3sQQ96UDeHT3Nt7QbMg4b86T6oruc1AXil97rXvTqL22RfBszz6OuA3KbgVb3wO93pTl2sj3LlDcjURLUHQN0rXlGUdd6jGKydftKTnjT7gi/4gv/ToTVjPEo3m2XYrlJGOiqNJ00u2WqyT3cf00jp09eKQ4gD7pu+XkaN+s2YHEtrV/q6LpmrxhUAMGYwLfoafZqxEINNToO5IdO4FsHZV78fGn09Tw7xmMM0MIBQ7WjtmkzXN3Qz/81DZWAZ5+ROF9ztbne70F7Opy1buwHzvmbUgdw3yVCZ4D/3cz/XUdgmzCqqbtv0deLKX/M1XzN7yEMe0lnM2msnoDvf+c4dnTkky9OkRU2Klz/qUY/qPo95xXARa0Ttk9Hzn//87v6URp8SHXPtfR1b14IfQvb1WDkMobX79DUve0jyoragsx/+8Id33l1NOMKcCJ88+tGPPtmNap/MyaHS16u8Z3MbrZ092h1f9U0FWqDsOZPTke0iFYFJUuhp854bMI/VCKfs+HgCwAU9LI6mLKFX3Z92kSW8TfqaZyTZg7dqMnqxmG9xi1vMfuVXfuXEY1lFKZrkFLn1y5e61KVGUWB1bXWUOgUi9qw60ete97oLee3HMjz69LVkN69VsjyU5xtCa1f6Gj0fdmPI5ibi0BS/us3VkNP3AMLynVe96lWdOCrjtGv5HCp9vQyYYxSG+UBr0zWJN8fg10/ZMMUx+pO+0QcMJsb6l3/5l3eVxk5bdbAGzLueSQd2v9DOlI0Nyy0dMsgpm0UVvip9zdtKRa8pKNDQXiav5RE/9VM/Nbv4xS/eganfxJmtOZWAZaIuWtqU62iTc88///zZ937v957U5V7WDTFWoiDyvInBRwk4ToIY6p+SRnHntU9lvUwp5rfUvj50+nrRs9RsbYl9DDbjNXLXZ9m6Meuwa2b+qmmINgUKD3zgA7tMba+Mb9e209n1r3/92W/91m/tPN58DPT1sjFY55W5qf/Q2nRQXua/8IPQVQq81Fi1vrjiFa/Y5cGobVBZjchnVR8f8u8NmA+5d3bQNgOcQlPhyDKkuln8Ii/ZwA+VuI3sa5NVda+HPexhsy/7si/rYkspr/kVX/EVnVJcRbOnehBlLJHnmc98ZnfNbJixTLSsd/W2reH+yq/8yq6mNzlFMTg3ysX1gYJNNJ7ylKd05zg/BVr2SXP2n7HS19vYunEHw3XuLSqtbSzrGwYHxT6Gvq4XzzjR9wwvS/D0K086r2c961ldvFOIYxW7NKVsjo2+XgbSniW0drK19Z++85t12PPmerK1lVVVctfczrw8DfHmBsxTzpgjvBYv0MBWcnNIuU2ThtJCJaEHp86+RksBQctWvvmbv/kk+YyHd9Ob3rTzUCnBIXRkCuqrXIaijxJYNXFdGyCjyylmlLVks+w7XTO/ySMJaM4Texb/jsEypJ27GjbHTl8v8571qTFJ7kkWsjXoGPq6Xj8Mjfkh/CFTW3nYSmuLj8oQthmGz7t6HRt9vQyYYyx6N9fE8LNxRa3I179GxjKj/eu//uu7ftA35tu85ZC76pup7tOAeSpJHtF14sVROtbs3vrWt+7iy8uSmCp9LWmDJ1KztTfxDON9EqHJZU/ce9zjHl2GbKhJpTOBKwt6SDZslk7JsJWJjQ4PvT2P6opHTCaU8Dd+4zeeLJfxnJSz5VYA25KaWga0FlFxbUlhkoN40GLRMQSmoPrHDrP6rMdOXy8DZr95PuVajWNLouo6+rHjU58lq59HfqMb3ahT/mhXL9fT7+aBcam8a4rwbCNOX+lr3mGKhzCM89vYZxw7lqY+vs5HbWeUM36wdnIeElKaZ9xmfjsGoOubG9/4xhditaZu7y6v14B5l9I+kHsZzLw8A14iFS8vsdp5SiXASUHJjDYp+hShY9ZVDMmojFdsUwGTLaURUVwyxZ/znOecZGGv8kS10UQ3YW9zm9usTPjK8ifbRophMwQo3gq6rnf5y19+dt5553VxRyDgmVMqVPdm2RVQUIzC7kXi5AwKbXIfsl7V/qmGSp++1ofZjm+qe+z7OjX7GgVKtimXmnG57tj0bBgiff9d3/Vd3ZK9CoQ+izPf5CY36fYA99pG2c7Q1wwDzyKfATjXhKlNnnFffVjZKwZ/mIoYHkNqKLiGvd4Z1P14876ea9P7NmDeVIJHeH4AB8XrD1ikaPw8wKj0tXWujgVKFNIUsTWT0Z9YsB19WM2owVDHSmUCwsS/hyRWud4lLnGJbl9mSnUVfR1gVpYRmPNKUKGVNo8X5XpitBLKQnEn+SRA7lifGRdKfAoVvPGNb+yU+i6B+bTS13Xa9bOv9T1W4z3veU+XP5Gxve5UjeHlulgQRW7yIl9jx85lysMGNNe916LzjCPGKoPDy3aoQknmxDECsmeIwZ/sa7Q0Kpu8k9AHoIcYsfrGLnSM96zgmLoPdnm9Bsy7lPae7xVAo0gkrtzylrf8P3R09ZgrfZ3sa9cIjcQ74X1Vr3LoI1aKFagpoSnDUrk99zDRgKLrW38M3CogLzIgMtm1TZEIySEpHNFvW+jr0JKWiX3VV31VV2TDOcA3sWLHhHqLl+x6LHXU+7Wvfe1OmcRjzjNEafKYf/zHf7yrxa28Yz8MsAnj0H+uRfS1JKX077Eq8zxrNbRq9nVWEhg/ipAkWzs08zrPnVUK5Gp8/sRP/ERXhCTjUVv0rwRK7Eg/O3/onFjUj4Cq1r7OUjHGY2qHOzfPNuVYWrfty8Zk2pp2JvlLX6WfzD/PR5ZqKiwzxl2HsexcbJfiI/73WmWQT/V8U1+nAfPUEj3Q6xnYqfls04fb3va2HdjVKl216ZW+rgBVFQALl8LIZgd1OckqBZg1icCXZ6uYAxCNdxKwfMADHtAtWRlSSCTJXd4VJZFlTmlXOreCFnCMcgDA4oi/9mu/1ikB9zO5GSSSUAKk854LBfd5n/d5nVcP2MnFqxoE2Swevc0A+cmf/MmT8EGuOSR2PmR4nQX6OpSn7Gt/87KvhxQhGSLPeox7KQupZrN5kbGi76wW8Jt8jcyFVasHlt2/0tfCOf3a10mY6u+1fGjAHF1S25UxP28+xQD2fEJnQgOePUbvMpkp18pwUoKX/I51fXMD5rEz80iPz6CmKG5/+9t31bMM3EVUUehrlJlEjHnZ11mywNuljMYooXghgI+ncatb3aoDycSbtffNb35zV8ghXuuq68eT57kCZZQjwwNAZg1y6OiaWOa6lmapiZ0iIvGQtUcpT7R24vL9IZBMcvdhXNi7mrUPGGIIRP6u4TsVxMTN7Q2d11RJQ6GvgQha79iKhwyZYmTNALJ8SaKXZ+4r7niWxjAWZApaW58auwzJrG+O8jd2hE4s6UvOxqoxu+xZK32Nsp4HbI5ROjTJbqsM4iGy3cYxCSckb8Q90mfzvOv0nd9Q+AwTMlglT+cpufuCF7yg66cGzNvozXbNjSVQvTHKgreG6mFle/U90QBWCv73i4ekQQGugGm86mW0dkAq77xZ4CQDOxMIEAIoAGaZkozqoQlTmcyob+CYpS2+1654kp7ZfTyDazMAZKajmCOPZOR6dyzLHdXWV5Chy9L+ZD6rGiXmiOrOfeJFRcbA3rIwlDu6rnrMYxXsWaCv62TQJ8A5xtI8D0y/J6RAuaObh8YsF008wOyaDEqJfXY8qiyS35TslKdgzC0q0rPo+unHPn1d2Z0K0DE0eYoZn7U9h+I9k5cqfuaklQoMieR1zJNF+k77Y6AMobWT9HmXu9zlpLZ+jIA6RzZWrFu+QPOYtyzgfV6+T42+6EUv6tb88UBXZV8voq8XPQ/vhZdowlXPpSqGUHN+9xkY8lJ5PVl7mMlqDbFMV3HRoS+TkocoAQS1HO/bNZMR7Z2BkpgUhSdGjFpeVMiAsqWQKRXKL6A9r11RJO4NlC274lmRTyi6ug4aIMsAV15Qec9KjY4B57NAXw8dB/OO09/yDsh7qqxpO03JGwCKCV+4N0rb0rpXvvKVo++1ir5eJIPQ2pImGY+Z34cAzMa7/dOBszEtaU1IJ3NyWb8GTB1LJ3EoltUxcJy56k/fCC15mY/HFG9uwLzJbD/wc6PYAY7JACTUi16UyRn6OtTtmOIhsdyt911Ea+cYE9U+ySoqoeEokSRrRKFQehTbGHqXB2VJyz3vec8Lbf8YQ4BSBq7JlvZ87oHyXuTpB0zj7VKc+TwvAS2gm0x3CsGzosplm0fGUThZ7qJ/7n73u3clUf02dmOMPn2d4hpj5Hfgw3mj5lXDZSqZGEtYHWOuFh7Rp1YSCM8w5Ma8FtHXi4y0CrzOlY1uLBk/Ywy7MW0ce6y5bQ5gpNQTIJOhwBxGKs8SozgsWL8tmQfev/ALv7BjCIW2AHUD5rE9147figSSQOVdHPeRj3zkSYWiCiqVvmaVSnaqSWHLlEJoMxNhHq1dHywJO8D7sY99bOfVBvxTApE3Y2u97/iO77gQOOX6NZM636X9ksh4nzyYSoXFY46l7XkoMeAlm9qymmWJJfMosGUy6SuAZJ0q3ygpzVIz39UwgnvwBuxcJT5OcQVAFi0XOWv0deQa2QeUKjj1+yohlwBz5sQUEy51np/61Kd2S3VieKYkK8B+3OMed0LZrppHy+jrRe2dR2vLRg9tn/npfVPvucq7tqf/XOmDmqfBY4637B2zxZjBEg1ZDjXv3vPkGWD2m3CcJY3f9m3f1oU9jine3DzmKWbogV4jCU92Z1pkvQfcWJSoJtZsrZi0zqP1ae1MIJNDFjfaWNZkJkompuMAErrdGum63jeKtSpex4f6037FH0zCKEi/V2VJkSbWjPJDo6vQFW95iIJYRx7O8azaeJWrXKUr2ckgIOckEznG8/oT85aNzsggM3HReV7eWaOvY9jFOCNTMpB8aPmSJC9jj1yFa4wlsmTwJEQQOa/bj/W85DQAHcvgUhTHvfyZSzL9Az5hR/r3Xpe+XvQM26K1E26qwNsPl1V9IkQlxk7+cjSudKUrnRjbHABVB3/3d3+3G9vLwkPr9pVrYv/Mo2yEs+61dn1eA+ZdS3yH9zPgVbICBoBoXgx1E/p6mWIwKXjG73jHO06AT5awbHAbU0SpVo8bAFkaJd5qwtcsaO1EiVF46G9KWqathBD3+szP/MwuGYc3ShkAvCSSUYjul4xrn1/96lfPvuEbvqGj/WKNbxOYtTE0t3ZJDkNdU17xBONBe9dX5OAviWGLaLtkX592+joJe+TI25KxLz8AUxKGJOBBhuTKc1S0xvIma359vwggx07N3NN5qsv9yI/8SHeJAJd3m5vIMdCfdfekeq+x9PUQ73kbtHZyNhgglgiSZzXktYvMHWd1AiOcvM01rJQ5edGLXrQb88Jd5neSKclq6vkX3XaFK1yhC1k1j3nsCG/HTyYBwAWQDUKUtOzEZzzjGZ3XVamfdenrZUqhgmxobRM45SjF47SHV1OBOVb3W9/61q6Slkmb5RXxFLXXeUpiJr7k3S5QlANAB3bxprQlyjnHuycZUAY2yCCX6kltMyYXIyFGgLZc4xrX6Lai9J5lJPEePC/P7xd+4Rc6z57312+f50LXAebTVDykjrEKcp6X5yUnACAz/ABeMqXDIPTzAVyDEWezFln+ZJnXJmBQqXWemZUA9gfO3HIPY9+qAwZpLTyS+4e+NiZ5ljX7eqxS2DatTc62YgWsydMw92J8u79jMBg81Ne//vXdscpkkrm5mudLIZHojLHPOuT4SmsLnWHiyDte/ZBr7OuY5jHvS/Jbui9Fw2OkHCgiS6Oy40485m3Q14seh2eDYpSIkVKX/WMT3wWsKifN82g8j5KdAVdeZIoPAOxnP/vZJ1vFZbInxhXKO0r4MY95TBd72nTpzKZd6Jl4EDx38WdKLDRoaFJ9RqmhtiUUxcNwb8efxtrXfWCOMuWp3fe+9+0ybWVYx6iq+QT5jmzJJi9zgizRp5YzCe+Emdi0H53P8MIEAX7x04Ck/pL0xLvnYVbg1W6JSfOKh0zRpniw5LZptrbnsXuX9pqD5h+D0PMoMJRdoeyRLMZtDvOUATeG6zKXucxMYaPkc0z1fMuuE2D2fuUrX7krPGK+6atD954bMO9ihOzwHlE2auqaJNYhUwA1S3Mb9PWiR6QcrfWkCENz9Y81iRUEsHPTIkrLZELJMzK8xKgoBOCk2APgdy5L3LNmeVKSy5zjd0pSfBsoH0KdYfQ8JSELXeY2Iyax8chJW9F+97nPfWaPf/zjO8MLMHn2005fJ2kHLSpj3VrYyCfr3SVfPe95z+vG173uda/Oq3NeqFdyTNU7YwC7YEeol73sZd04mOKVWukS97AxMQqz/E/fWi0Qo9E8tbwwhTMC5FOxNtV7Nr4AkkIz62Zrux7Ply7BDvB+jUNhBMVyXBeb5TeeMo/ZHPUbGWe/ZKGjTViKMX2lzWFRjAWsmmVs5FHHxphr7urYowfmDOSaFLRKeJk0q447lt/jJWQysl4tjRLfChUcOSVbcUz29Vg5ZDJ4F9+R7JVdXxIDTJu9oxklyaiaVKnlet94lxQMa92zUrYA2UYcWUdq0mdJU72X66IK0ekUeZT1VEtnxsoox4cB0FayQm1f61rX6ryRvPJMvB5Zvmg5zwJgouT29Rz9eVcBZt5vaW8FjmWyA3iWAPFyUdj6kZfGULFeXVxXCCRKmGfGyDO+0/+un0TIfEa/Km4DOAKWm4BisuwlUNqtTV/WFxBT+IYxoF286ino60Wym0dr83az61aeOQbrkGfHUKkVTr9gwgCueanGvPsJLTjGkkwvQK0fJL/FoK73XXfODD0vzGDeUewMOMZvA+ahUlzzuAo48bb6FWVqB7lNnbC57RhgX7OpWzstXrLnMlke9ahHddQn5ZUM68iAohP3NVFSHnJqCzaesWVL1ioDT55hqKWqKMXdrDXkDWaz+XntybmSu1BlASJLUq5zneucJNwkySvgHMXjmhQmunxM0ZKtddqcC+sbzybOzoCgvLU7S8mcwiih6IQo0LIZ68uqKG3zGRJnjZy9+64yFfnO9zUBcci4Y6BYOifjPvQ+QOMZy4QWw60FQ9CmKFQgNG+ea0vmhOMsX0upx6mSwhiZwiUYjQoAlsLd8Y537OaC+devfb3NfkofbEJrh3pnHPtsvmJsjE+Utb6ybEyRIWCNLeNR85KB+T5fSb4UNrJstIY59tmuhYbVe4eYSofY8v9pUxKHYhHHW6sxhMTtEst0aiZMH7QP+FEXNi2ZphSOOI7BB3wSV4vSNIHWKR4yViZkT/lIhuElpOqOdkbu8XxMYsox63aXAUxVcp4F/SuO7l4UfmpiO46yTg3rJIFd7WpX6zbumGKryrEyGXI8ZRGDQ71lBgtlV2tuZ0mVBDm0HAXonNRmHnKfKY/J/AlAA0QeCaMC3Z7ELCAEjChwfT40vo8SfcUrXtF5YsAAU5BlbhkrtT/1MY95WRyxHs+AxbgYj1MBM9pdeMWGFlUPWQIoE1/7AsrRTVP2Sf9aU9Ha5F8TL8kf0DO8sV0AWN8DZ+PTnN43oxNZGJ/JO7BFpzZGLofolB01lR3lHsUbUO4Luk9dO75m+ya5ZJuTY5vXjhwoO7EziVA1xuXeqN7slDSkeMjY9oZKdB5PgceXhf3VU65LgyhCSpFy1KZkYi/ymJPtSunyjCRzSOror4dO/+d49xFfstdylkyNfb5dHB/ZxDO0BAyTwABBHdb1nmRkKdz3fd/3dXsBi1VW9mib7a3zi+yBpv7wZ5xl7MUQTj9kjPBQhS+0v24bWq+bY60zF5ZJiOO5z31uN64YnrlPmDJGgP2SzzvvvAttiNKXRfXm5Rzc+MY37jKLpwJm7bBOXSKjuZCXZ7WBjEx7RvNQOn/TvlxGa2tHnJtV98n49J5KZwwlFLE/DA6jCzhjthjBvOp9sTn1eaKDvDOYeM2Mx8r4rHr+Xf5+tMCss5OyH6u9AnAlAjLh+0k18bJDF1YFsstO2PRensuzWKtJkVN88ZIpeUBGeaKTtkVfU9ABFIr03ve+90mWdBJj6nNqr4kr4cuyrlW0pr5xHX0u5ojKtT60Kgv9HIDP9RwvrqdNPLbKmmwq922en6Qn4QBLzAJOgC/PTKlKgLPWmXedjO1tK8IYwDxiMV1esnZF9uTSn4uZW+QfoNA3koh4/XWzh4Qh0KC24QQCzvN8+lx2eqXELRnzsmkIhZv14kOULs/VHr7yIKZiUgCzgifimeZdXsafxDCx8amMgHXHIBkLaXl+spxX46APbImjY6IkYgojYOjIGRCrDR9wDmuV+XZIxKzxqrqgJFBtXxTyWFe2U5x3lMCczMLE3moCWD5XRe+7CL9a5Tk2FvS8Y6YQ8rav4VnRfakmlWdPXIUnk4xM3w21kMe0m+xMWMkhPHZJH6GP5ilIljSa28L/IXWhefvoXZWcrPu1NhQwhLKMNxmvm3Km7Hkpknxe8pKXdMpn3azUMbKY4tjQ9p7Rn8QnzAIPLGM4hqXnJA/gkkzlbSpCMkbXUs7ZMMB9sxY7448RSOY1vyCg6xlShY1xYdOSnOc6frOEDNORBLl3vvOdHUOS5K/IOZn/kuIARIyAIQqXnGS6WxedHIdN+48hgbK+613v2hmTeXlOhoW5ugoIN23DovOr95wxtqhOfL2GPrCdohyHrBx41atedVIrwPeSvxhTDOHM6dxvX8mJ8+SgTcJ95osxd4hLp44GmCs1S5ihn6tlHoq2T13Hgvd9CltEuYUGi2KPN7CtiTHVdeMlux5PGEXGQu/HyiKnOjGmUtphKhI7Vvta1jAKtsqxMhahJFXponhN6JoxO08+MTDQZbJdUZU87SRwpF/Tz1H+DC4Z2DxOStd1Ko0/VV9MdZ1qNFKaPEFKXv96JrF463gx+SezqgAAIABJREFUBjU+5vl5L6h9y3XQxHlNZYTVtvE4lFdkMGT+uJ++FGe0RI93mLh3YnuMNctmJLj57JXrYk0kY8XrN0/tDqQoRF62x7QjWXIq4u0ADGyRLOB4y/Xay/on620l3Gn7uq8ayhG/BPbi4zESXNfzAWYAPZV3Pra9fVq76sZlYO487I1+90yYDH0mEcx49GyeifwZZPPCh2Pbuq3jPQu2gL6ks4YYcNtqy0KZH0vyV4AoST514pmoWbgfOrUOuFDYsdJDp2USV9oziUq77oix9wMw2fid5cdjEmf0/LuiyQKY5Gs5lHig5JskifSfKZY5xX3LW96y82Kj2OcZC5WmFg8y4a2JBv4UfKi1eGrVO3GseBcW4V3veteoXarG9sVUx1djBnDxNIFy3eiDx4iu5Zl43kprOw4g3P/+9z+JOU+VFJa2aZc+Dr2c/uPNihknpmgM1NBRjX9LaKPk0eAps0qG4ryoUeMEM6BalkpaefE0r3/965/EZ10HUMursHNXQlJj+sM56HRsjPuv+4rBb0yajxiOjMeEFqwgYDyRxVRbT67b3qHnZXwxEj2bfgdmtraUzKb/rn71q89e85rXdGN1KqN/aPvWOS6GorKhqv9lZ7t1rrWtc47KY06RgFihscoM8lCasabjAfcTLByXzMKAfK4X4JgXE91WB6x7Xc/OQmW1smKzT/Aq73Pd+807L1Q10OSxpCZwBn7/nBgMEnRkFMdAWhYT1Vdo7Gte85pdTPoWt7hFt3RGP1ZjLF577kk2qHIF7IdQdVPKZd1rGasUPCVIpsIPYSUSP6dEGCWUP4VY6Uj3JQdJR+KmDLdab3zddjkvRizDQGZ//tc/b3zjG7sM3PRHnkOlqCTYSBLiKSbZyDHA13aAANaYcQzPy5hmAGBVKM+8xEONHQB9yUtcYnbTm92sA2Rt8dzrxAudB1DIUibxuq9sK6jCF+PI/Izh6JmN3etd73onNPwhUbvLnlk/0YfW1jO6FA/RpzKxU2ceg4K+Dvu1rgx3dZ5nyn7s9IO+H5KPsKv2uc/RAHOUaz8DNwkn8RQzQROX6lvt9TrxtKvnQZHVdaOVwttlx8y7l2fJn3YBY57ni170opN43S6SmzKIyVzSj3WmsrCzbKkCc435xztRupA3W+NsyzxmcWtKHl3Lwk1CTdqR+Gb6ynWtGbWxAICeymvcRv/X8UWePBJAhVWIfALO3YT9n+010fqyzHl6vvOcgCDMEm+T58wbDH2/KsFu2fO5NvoPkPpcPWUFPrTV9S2fwZ7Ia6irHbTLMcCZZ2rs5ngemGd2Te1FkzLGALN8grxqqKoa55VpGEtLaoO2uI8M7XVfxn42UmEseGmXftGXyoi+7W1v677vh5vWvecuzvMM5h4g5hWnclf62VjAlPg+YapdtGuTe1Rjl6GvKlvG36Ho+6MB5tB5EWoGd+jUeF01gSvKPsKuIOF6UWTVI8jkD7AfkiVFiWhflCLqWKUozzxVacFVA969Q1OSn6UrQJkinZdEEc9A23kOCixccMEFHViuSoCJR07Jix8qDmLpUPom185x6TtFD2QxU/AxVDYBpVUy2eT3RfT1kCQ1iU7KPFru08/W1iZ1m4U4VHsKw7JuW/W1PgA+YaEAjgSgZPpT4EA268cT63fPfE4CHpCy5Z926V9xWS/9xND0/IC5Utnrtn3ZedpjvGxKZTNaFD1hDFZqlGwe/OAHd4l7GIFjeiVuLpeAx6zPhCxiXMTwOhZafp7sGVFYGFt3Vods3/10NMCcxIKArAncLyIRoK3HmPgVrANsBG9SJq2/xpZ9n0F3KBZUJkOybk0Q1h7vgyx2lUwSWQIC9LKSiLI0fV8LgPS9HO17+ctf3ikuVCVgXgWWAVxAbJkJDxBlaAKFOQiwxVN0H5XPZMWmH7e9fGiTSbyIvh5CdQIAtCKlL0mqxjRDK1tGJbbJKNqEOdBOXp9+19fkjMIWv/dCZ/I6o8zjISds5JjMz/TdS1/60s5oMA7ErSURabexzQtXNc4Y3+aLnBXHUK1L6GDdFzqUwYnNqQZqwi+88SF9uu79t3VejHBGoE1kyEpyYfWOjyGuvEg+9Ae9Iitfv83TYduS7bLrHgUwJ24c8KzeMsGazDUbM55lwMx7FEaluqK8/B46NNcLKBwSMGujNvsTZ5VIQkEm/riLARSGAr3s/iarV/X8ajvixYpPWbbEC8qk7jMaztM/AEdfB0wszXnoQx/a7dATIAuTEXD3Pbmo00vJAv+acHRIymMIfT2kvWEOeKq8NeDsOwBcAVIFNjt7pSgHOa8yivpjCdWXTUb8xvuzxEnCof7iKWtHDF7UJo8Y8HqJGYtNA98AtP4FzmLH4s3YEL9hfxRNkdjF28zY2sZcND5VjxOOWbRf8qJ5FRaAbGSMC9HU2DIZY4jsBx2mYBdzdJ17hAWJgc0AM45SE0EfmPMy6q0jz8v3x2hwZCxpv41RMD/mzqGU6jxoYI5ySkJTTcoyaKKYTICaYR3AzXex0OM51WN9RxkkRldB7tDWt0UO0vxRtWMVyToTtk7AALDJyTuwjnUV1R+jCj1505vedO6etIkXUgqUO7D3HaXO45AAxAjgjcSAioEV4NdvYtBAGYWtP8eCzybyGXNuQDOAlezrIfT1ovuI+bH6LQ2rORPmCeCTyc24YSDF4x0C/rkfUOUR5xxxWQk/ZIzG5fG6r/+xOIk7VzA1z1wntKFrO06BEddFlzLCfFa20jPZZELcva62GCPrVcdKWPr+7//+jmUZS8lGH1mvrKBOks/CTMhzuMMd7tCBW+bBqvbs6/cwhPrIygf0NXmgr7P8zrzUP4ymYwTjyLbOP0BsnAkJVdZpX/1w0sZDXi41BJgzQAKiyfxNgkq8swBIMrgTq06md5LGqgV4aMCsjZKmkhG5S+CJRQ0c0aNo7NCaywaxNgIGMURLLOZR7vGIAJSsX56UY8U09R/FySOLN1iBJzFkxhjlqsQnZVtZk31Psv79N6GvFz2LTG5KRnZ8POeM5eQfWDf+zGc+s/NIx2aqW9qkP1wz45CXoX+ALWD2YkxJEmI0xkCuxhsAoOAVo/A7Q0GWNfCyTallYI4H+gBB/A+Fru+3MR/R5rKlZWSPnU/GIW9LmVCAFWPR+JXpzaBMslTW9x7aWEx7YvhIKsRqKOQDsHzGQplT+gcLQgeNldWhPXcy+T2fNfdCMWj6WkJ1n20+aI9Z58eDBcCxUENlp0QjAcZ7pvgTxI/SroPPd87PJI+CihWVxKpcc5+d496V9qW8FPAHQAyKXcWVk/Bl8qJMUdIGsLbN85jTZrIm39SpXlThy/Upd4lFKE/KzCThKakFfdvb3vbEY+qHGHIPMTzVfFj4NXt33/1XrfQ6DudlX4/xYPvPFW8V4yBb21KxGJ+OJRPKVbKezPZQlEPlA0yVXIxnJWEKle0l/sig8hJCSDU3/zMYMCyMAWClvyh8XhlDzJgAzM7T/wrIaLdrAwDf2csb8E1FMybp0FiynSTDz2uIx5yYqzYyUsX3xcHr94wTfaASWWqY7zLcNLRP63HmHePLUjxyYFwxmhgexlS2bqzJnOvcZ5/nVPo6yw6xbMam/lOMiBEYvbaN0MnQ5z8KYI7ynQfMAd8AbaWka6nNmm2dpC9CCsWkYzK5oiCjhIYKcxvHxQjxjtZN5SDtHqJIpmgTBUb26HOVpyjJZS9tS+wbrSxxKyVB52ViAyk0KUVAeQMA4MzTFp/jXVUvuQJOlunwBq0f3VVxlbFy3QZ9vagNkvEsAVEhLeUwAzwKeNzkJjfpGIkxhgBPSuginhJvFqD6n1Gl+pZnlKkNmANEakbzgnmR1iiLczPqeNjAQBtcBwirlGVNfgVm/S6R7853vnMH8lO8so+wus4Ucbz7IfRsdgDzLiYOfFH5SSrVds9pGSNjY6oyn1M896JrmN/YEF6jMIRqXl6MY/NJv3iO97znPdtsxlav3aevrSLJ1rfR82qt2xUsseZVYbptNvgogZlAArpJ1ko2HUAILdPPrs4a5WMD5hgVJjtvJ3HxsV7PugOJbO15jFakKFdlLsZjpvB4I/am9QqI9ttBUaPGxRt5Yqx262UpPmUoxbuSdObcCsz6+8UvfnGnYI+Bvkb/A6QUDxkCBmP7Tf9QskIO4rY1UQ51q/wkI28MMPNyLV1yTrxvAAxwPY/wCrAKNR12pBYkUZxCtSj96Xgep+vxjil9Bhkg952cBJ4nw8JxCqrYdGCKlzYzLOQjJL49NAacEJl54Pm1OTkS2m2My6UQI/eqm3NM0fZtXEP7hYq0n7FC5glNJMwQJ2Yb99/VNUNfW56XDX3Cnuo3jAHjXg4EfNlnoamDBuYojniNmRQ6MhnKhJdEsMTUEi+OFZsKPMneTgJRaGvfJ3EjiWKV2t7VwJl3nzy7ghESSUz0KMcxinXsM9Tn5ynxDFjOQ2J95Esxs7jj4Wdip2/S9lDTFIOlP2Jb6CXUqXW4rPf0TailOi7EvGRro7Ijl7HPuq3jKxXGWJyavl7U7iQ3AmBhD1nDMYzI64Y3vGEn5zEvc4icM5cYudgQAOc7ni7PWd8LJwBg/YEKxXh4folcDC/tYXjpb+OB8ncdY4B3zeB8/vOff5Lo5xjXkcAG6JMNHYNjmWeTsVI9WkbA+eef3222krrOrjGEbYk3JcQikztx5YSVJClanhZmaB5DNEbuUx9bx2Q+ewdWZKzv9BFw9r/xggWJXkx7+nNx6nZOdb159LXExTAZMfK9G8dqzcvRqMtnp2rLmOscNDDXB6mesO8NlMSTQ3VnQ/nqOUXxx8MOQMTry8SpcWeT+FDWMXsWiSk8VnTfruLKGZhoOp4yDyfhglUUD1miCylySjeUe8De79nQwPN4LtcExigm8S0ZxspKptRhVSj6R3/6swbRZEoW9iElpcyjr7OGe5tGVRgj+84qQpMdqcjNuuMkO41RFK4pmQmbkZAP71vs0cs48bsxYk4xrhiRPG3Gs//1q2VWPGAeGWqagkT9UpYYEuNC9S8JRzHA007jwzJB4yoJg2S8KPYcMDEmtEU7UPgAlZduXI6dT66B3eFZZXmY9nkuxohiL1nbPUa+uzo2fec5tF9/YW/0mVwBXiOvORt6JAenD8xhCWqy7K6eYeh96vzzvMZo6Ot5esKzqHEu1mxsthjzAEkHQAOYoUtDS8dbqp5vPOJ0ArDJGs8M0HjLjsn6ynjUrrkKhAY0faNDeA+qe1EEwG4b1Oe8BpIPkLTDD5o4soyhs+yhyNR54oIxmhwfZUoxi0lG3oBZsQrPJinI7853/8i/D8z+BwoUYS0HeGjATPGhr3mHqS287T5MvsStbnWrbh1wVTJqWjPyxsYL9YNSmzzjsB76WRiBsvO7+2BX5CAkjBTQAr4pJiKeGQoYpeg3clJ9i2xkZPteH1ePkxzR4IrUGFuULc9uUbZ2dIQ2aKO2mkvi3PGOx3q0xqZ14dZ0a09ewjaMBpT7EM97I6WwwclkRW5yOsgy+SAxjvQxZgy7wZipybF1bsUg8qzbHs8bPO5JUjA2J/S19i4yjOMYkMM+df/ReMxZw1vXJmfiEnKANoMkQg24+j+JYrUCUV3SEeuvgs8+rKZYp95NGNnGWXaxzUlfByLPSNKNDOy85oFkfosSJGO1c9Go4neZ2I4LbQSU9aOYo74QV3QccOb98PKyRKZPvcUAozS0TRF6Sjfe1b6BeRF9HU85bM8mymbVufGYgZdkvZo0Scbnnntu56GO8dpdkyJnOPE8yNmzAiRKPBsY6E/KzZ9zJPDpn8Raxb5jlHkOYwQjBNApT5Q2b7Z6anneALA5rtgFRgAlfulLX7oz5uq8dg5vnFdvnD3rWc/qAD/bSlZvep48K83rcxg12e6AOUsFM6bFlCU56uddJWWuGgf5vf8sQguMI5X4yEhin/kuvKH95mA2G/Hc82hrukBoxh82JHp0rKEz9BnGHNenrxmK2mgsLpt/nskYs3LBSpKEKcbce6pjjwaYDZAkD1VFQxABq0zcqhxrjCmTKwBTq2ZltxHHrEpumkr4i65TvUy7MIm1VsNiW/cnNzI0IHkllkZRsAHVZfdNmymlhzzkId2fz9WQSF9I4gEMMoS9KHyeGGUQjySKdl5fuhf6WvsoEf3lesk72JZ8hlxXe2Mk8pJ5kWJ0m5TDHHLfekw8Zkvr1DGPDMlHpS1GD4AaC8zGICVOqXv535wke4l73vPKtas8ZIunuIg+pCiBJZBTNUv/y0sYUhpTn9MDlC5QsY2kfAQyRyuTOUoc0AB7hsOYV5g5YQDg5Tks+xL7BmwxTDw/udqOkkERD3TMvbZ9bIyHgKz+Q1s/5znPOWE/xJOFEYD1EOM2oEVvJsOZHPZtlIS+9m6MrKKvq+wDzMaS5Mjovm33z1zD8JALjPQbbMAkszpAlUFXJ0SUQayjeM3V2w6Q5HwDLTHrfVIY2py2ic+iaqNUllEwUwweMgB0knB+/ud/vlNySfZZJZOwEShSlKRYHnmH6ahhAooNXUYJ608KL3tJKx1JyWlLXSIVj1w7ALpjQk3xwtyfAh6iVKaQ1aJrxLjp09faNQYIN2kj2UmwsmQK2xJgNr7Fzxh7Y5mX9L8+5TUrzJCEKm11bX0uvhrvOJQ3w8t6ZMCc+abfUcvCM7xfY8JSHV7bkLbF+AlAuFeSwgJAeW5tHruCgScYqpfH79poahnX9V5kYM0yDyuV24a0f5P+HXtuGMAwggwZcXLsCSPI/KNjyGhouKzqA3oi25QegsecMTGUvo4869zlDMnF2NfrqDzmAG2qdVWqgVCr8otF65x6nO9DdydRxe++i8W0r85Im73LhgQ+qLjqbU2t3CvtAzwl5cgspUSr7FZR+jGaZI6rPRyqkGx5v3Zx4XlkM3oWOsvUcRQCuhHF6dy6PCr3jbHCG7rb3e42e+ITn3hyD7+x9r0S74yhsIu+PAT6um/5U7b2ZcZOpH2UptKRQGRsXDCA6j68JOEH4FwN4yh+njDgTXzd8TGkvYs1A2BbQBofruWF1h66f3SlZysQx4Crv7vHELCsYCNpjYwYjK4lLi/vIVuOxhiRpKbASMpWHgJr0x/zQJOHjL2RdQ2EzUcZ8NGNcg+Ey2roadncqePBNVybMYM12QetPY++pguSfT1Eb8bb9tzqIpgn+9px6miAuQ6SKGnCroILGFQLKB5oBhKr1gQMVRUwr52yCoS2oewTO/VOiRgUahsnAWMb93RNsgh1j6a0vEb5zLFVlshRaUJKitUdRYhqBPYpC5ltAsk/NZA9I4WmOL7s73mxnSg861u/6Zu+qUvgSfvzDpyNh13T2odAX9fxARAxEmqqe894JmcxUvHQTTwb1zdmJMgwsIyhGosMa1HzPLRPOyT6ob0BXjxuSj1jIAb2tsb7suuGUUvyWqp2AWlLta597WtfaEtHjI1QgY1ZDnVLR31gTmFQ/DEkkizp/1RPZEzFqBkCYlWO+6a1N6GvF40HyXHqAFhGtii5cJtj9GiBWWdEWSfZJeAbRVSB2rGh1iqlHS+8KpF9AHM8eR6D2BjKjLdMgW6iRFcNnhgpvFRbOCq6kPXiY5IfKCnrY61tzXIm9wb2LHMJQgDfO9B2P4ovLIGqO5K+sjyq327X5FlbUiP+E+CvlrvPvHDHAu5d0dqVAqvZ17ukr/ses5g9ACbnjGdjC2UMHDcZU6FGyVkMFhUNvHjGCRu5Z/W+eGnWmvezwSugZy6OBYZVY3zo74mXajdvK3KzrpXBmozmXM8mFXbAqobo0Hvt6jhtZlAAZGBjJQP6Gp1t/vUZivTbmPZVpoFxbEwA/yEsxZj7LDt2Xfp60TUxhmpHpKLdrjHhKIG5P3EDav3YUhRjgDiWVf9839fvdt0J8eoTj0XVAqnElLcBMPFykm2r4IKEL14sxZQksGWTId49eT3ucY/rijYkluc77IQBLmYtqYTyloxjqQwlyHv2jGJBts1DacbIqkra84dFUNs4CTfxwvIeBRFam+ecuOPUMqxjJN4/D2SX2deL+kbf6UuGVrX2hRGsBd40ES3zJe/J0GWUMATCtpA5TxJ1DZhrLYHM1Trv9gHIFVTkKhhb8ZTJl1GpVrc1v1W/6Gf0Nu/f95sYOpuA0yJdldwQ12bMynzXNwxodLyYvxUfwgnRP7nW2LlSjeNd0tppr3c5HUOzr4fIG5OAsZSPEedlyHlTHXOUwLzo4RM3q1Z4painEto2rpNYqyIFyihuc0vHUK8moAlsWQ1QRSmO8ZIpWuBrKYKiD5JJPAdrHAAAXvdSrQlo8dSAJgUugzXLFyx7SoY1IImyDCNC6UmEsxwlnvA85ZHzvFdauwL5VH0XGXrefWVfLwNmRWHkKFR2SPxeGCBs01SyOObrVPramDKWvcc7Vj8A/Z9X1u3aXlPMeV+sSNpT2YtqqErQU8EL8GKtMCWp6JVNKXjOmUdjcw4W9Xmf1mYcJ/9kynGyDfq6ts/1rVVXAnkfGHLqgLlab/G6VmUUTzlg1r0WBc+roAR4l9u0wMkjVqY1rbYK5LVWb3XIc2gjj0hpQ8kSEi1MQtQm7+MlL3nJSQxbRSHes+PRalknGW+ZV+16tRRePGXeiWpNYtDklHP7bax97xnR2q65DVr70OjrKgveA9qYAq5ZywqOyMrednb/kLFzKMf06eu0iwyFdXhNYWD8hhESIrDjmXG1Dy+/yo4BoZ9R0tm9C+tl+Zla3nSKsWopmfXe+l7inbbXcTDWS17Uf7uktZMnRK8wAJKnMEWfkBkHQ7Icw3uMwzLF2D5VwJwOCcWW/w8VmNO+JF1QmrxX1N9UFmzfCvR/BjSvFgUtgSce4CpZJW6fNlvypG6w/2VW84IpARY6j7ku6s8Sl7QJCCu9KVM4a9MruCa+juZ2HFBP5u88RVKprW3Q2odMX4ey10ZFNxgxMXL0DQbm6le/epcVv8vY3xRKaupr9Olrcy1VyRLiMYbVh5e4WMMBAA3DQ75jl2BN/Ryup208YtQ0xkps1zPIxse+WcJWM+Jr2C5zaAogy7Ntm9beJn3d15XmFJ2MDdx1AtipAuZtDPxtXjOxKYONVyiewRpP1vmU9640r8+WT1xwwQWdFT2moEq8WNeg7G93u9t11bfEh1nqkrsoOvS1wQy4sw67JuMZ9NqgwATvep5FygJGf9vVSNLQGBahPq9CASlCsgmtfcj0NfkFnO3opc64FzkAYv2A2q5FQKYcX8d0rUX0deaBMS7PQ8Z1n8ExZ25/+9t33tkhGDjJBZF9D6BT59pn88v/5lDfWdlFf01Na2+bvu4DM2fBWmaOQfOYdzFiDuQeATmTS8lA+x2b7NnxZspmBlRcU/KH5DLJKwbcmO3NgGsoMEVIUMyew3UkdaEAJZWgtXkbjkddy1ytwCxBSPxOGySlLAJmu1OpUDQ2YWkbtPYh09cpxkKujDsVtrQ3MVDe313vetej2IZwynE/71rzsq+NzSRMMVblQGRZmGsY86hiG3WI1Wbubrutq66vjXJDPBPqFSBbGSGrnBdtSVuWSO06t2AbtPY26et5wCyMgc7edRWw5jGvGvlb/D1ZzUALQPFqQitNTWWbJKm+ZY20RKpsPD/GGkwGPOqPIWHHIOskVXyisNDjrodW8xJD9n3WMUecqDbArBBGNRry/ID4mc98ZueRA/mhhQ8qpZbPeb51srUPmb6uQzMes5rTT3/60zu5JtxA9kBZ4ZgpacstTo3JL72Ivq4sDBkq4ciIOe+88y6U2MVDVkPZEpqcM4bBGfpAdbwliXVZn5nD2CrvYsqAOWAMnFHy+j9rl3fZ/1PR2vPo67HFQ4bKv+qMGGacJgm583TL2OsOPb4B81BJbeG4UNnZiWmb1FiAWaz2Hve4R+elrvNKG4EqZQ/sgIGENRmtsq95yrHaE9+KV+2ekinsemStdmjFmqTEKFFJSTnJUOPOXzdBpU9r8y55P0No7UOmr/sWPlmKf1pSliVLnpFSlsjE8Durr0X0dQVXhiuDVY1xAJ2XYxiJd7zjHU8K22xLjgGzRfky/fuaf+oDiCczgD2nXAKGs5yPjH3PkLm4rbYvum7Nag5bMSZbO16yZ8P2Ldu6capnCztGZve5z326sEaqQ45xZNZtTwPmdSU3wXmARnIGawwQbROYKR0FQNT7BUzrDi6DUwEUBSx4suLKvF+xLHFgVDbFAJizg1Es/2SDiz9TdCaZ37Lkg0jDIijoIM6Xfbg3ySTehNY+ZPq6DkFKi7GlPraCGPEyKGSsBg8w1Z0mGLpHd4lF9HVlpsRpLTOTDMnAzMuyIuvCVZ0bu3/zWEFlvIkPA1qeehIe510rW22ai0qaeh7Jf7xkc9CLnskcWNe4Hfsc/eNjIGgHw3xMEZI+fS3pbtvL1KKrtNdOeXYUS7hoXd05RoYNmMdIa6JjYw2LJVuO8YAHPOD/7MQ0xa0CeO6HbuaZm/BDiofU+9e4cvaHls2dl7q7risZLAoNGFBiMTZcw4AG5E9+8pM7oMgr4ByaXHUiW/rZIaiuTV+XhuvT0e67jNY+Fvq69hHg0Q/WXYot5hnIn8Wf+tjzZMiY0lfbVnZTjOlcI15Y2lyzjXPMEPq6GoWS5iz7M05rIhiljGUy9rdBX1e55Dm0QVKkOVXLlcbIdU5koLAGQxlj5TyxZnFla5jT3nXnzlR9NpbW7tPXjHgswKqtG6dsb2RMd6o7LyxnvDRgnkrKB3adAB2LmDWGckrJ0CmbGgUDLNWxvsIVrnCyVGrVsqjajpTYpARRy+g+oFm3eBPTpEgoeB5G1jTXhC/3vOUtb9klnjEOsgQhgGwyopglfGVP3m3E2j2btkjomEdr9+lrxoRlMmMT0Kbsy1XXIsub3OQmXdy+ZtnznK54xSt2m6LU9scjMDbyfMcEzJ5Ru7WZsg6gVQAaQl9ngw3lKi2N4YFmbri2ilnvvYNVAAAgAElEQVTWBAPIbZfH7fexcARKHSAB52p8VODyzLxQ63k9M/bNPMrc25eXPG/MDqW1K33N8MC+Dd3gZNVcGfs7uUp0NY8ypsZeY+zxzWMeK7ENj09CjsmiSLp1y6Fpp97LlIIBlhJW0MdJ/qpewpDHiSFhHXESYJwXQPU5SiATr3rBUQxKctpYwQAPOOY6jgfqgOWe97xnB+wpUTqkjUOPmUdrAyyGRtoZOpHS5lmL0frukIFL31IettysykOGvCIy/e38jAGeMuMkxSY849SG0NB+GXscxe05GYSUtrGZPsq10n+eKbWvM5ZzTGSAaZDJnjFAPgCf4WwP68QXt01lVzlog2fkqfF+Q2vX0FDGZDVIqtFNJtv28sf23RBaW/86TvEU/bsL+nrRczDehTiwfMZUZdTGPvvQ4xswD5XURMdFMaCdrM+Vij9lTewMaBOWpanUpYpPtdhEBachj5U2i7HZbIKSp9CBp79+9mi15nN991cO8gd+4AdONlbIcVl68u53v7uLj9pvudLnQ9o49JhFtLb7RXlTCPEkD6H29aJnqwpYXFRWLi8ry348k9joC1/4wg64Kg3I2xTnMw4pvSj2fVOeY/oxzAbq1vP5q4YF0E7xkEXgRAZkZN23z5kbjlfClJHIaPPateGS/gXOnlFfMd59r636ynfVCE47814Zq6Gy3fZx82htTAUATj11ALhr+nrZPBPm+K7v+q6OcdxFsZEGzNsehb3rmyjZkCGx5SmbkHXJFJK9kcXGeH2J8a5zr5TelDzGA4uSoAhXWeOh07VB6U6xsFByAUlt5YnIfLSkZ2rmYBWwUXQoQ4DGe0zt60OnrxProijuf//7n8RH4zlawmYZHm+LkRbwogQ9o++3wUqsM8Y2OUe/MRR5lDEyKHVyYGwx/PrZ1wEsy4uMS+Vbec/Ggt+EY4QGZLKvGuObtH3oufoM+6VdjEYGWCjuodc4tOP6tLY5iIbXnz7vk76ustJOpZIxj14txnxoI2mC9pj0vGS0SAoVTHDZk0sYNKzNa17zmrMnPelJnbJBxcSqXudegFLykD1pKTDULiXPwFgVv0osk5FgidQ8a9N1XvziF8+ue93rnlSqWqedY8/pW+6odgpPe46Bvk4iCs9Q9bWLXOQiXfvj2UlYsaQNw+FYsTKxUmMidZ771O5YGR7C8YlHkgMGx3g3LoFygLZ60gnlOO7hD394t4c4OWSeeCZGs6Q51wb4+34BK3PHbleekVGVDTX23bZN7t+ntRnw+mrf9HV9JmNAiWErT8JIbvLMQ85tHvMQKU1wTChCIAegTPxFmzGMvV0sT8oIKNvmTdY0qzPW3Tr0dZS2ovf/n707YZbvu+r6/80j8BFEEZSEwQAiEQdKGQQhIaIYUYEKUAYIFBYgkgEkIEMggIVBSQJSZaoIYkLEIggBSTAMCg4xSCqKJsqg5cPwX68j7+9//Y7dt/v0cO/9/n63q2513+5z9tl77bXX8Flrr+3cWbAu4cCD8Lm9xbvgz55n4dmGAk4lOGe2q3ESLkoG8k6cs3zOfuWtdJtCwWfwbufUNtZrJOVt7ee+6ysqAsmQOaz/jYnwlmEsA7754VUyrCjlakOX83CpPt1FOxl73u0OqJQr3gqdmQZkuxJ4QdYJhTzj07YZOVmIEYNfbzOuvKZf/ddH2+EYVeZM39a7Hu6C9uc8c8okn42NjDCu8h60f9eIhb5BLBzxyfjdkjh7Kn0eFPOplNt4XwrHHmCFM0Bkl8ryzQMgqFnUKhcpOkCpbKmDPYcU/MeQUHDhx3/8x5dMT1Ahr4yQBztZNOukm/qTF2JvLa+kfYCeU1yZEHVuMGOlsp2HvPCNpN97eTFK/QQPgneDstHt2CIkl+rP1nbMN2Etbi9OmsAwJx/4wAcW5WKfvHFS2sZHIYtPijdDPZ4uitkYwfUZIcbGOEmxTePR3FonaiA/73nPe0x2vIgudgUoa3rXrxSXvps7BoX5M++z0MauMd513499fmhHYxIzN07j7bSsuzSMjKN5kCBoTT0o5mNn955fN+FCmbOSoKo6dQlrEKMQNhSmvcoOK0g5npqokGJ2fKCEL9BZBSoofBYkAc+z9P9UzjGudwaCjEaeqP5N5WHa3v/+9z960YtetMTOivvdVgJSipmlThBU7N/3PMt1tvZ9YzNzDo1QMlCsdNIWH1THvOIaeSHuE68k5BlDl+DBu6RN2dd4FgR6KFvbXMtnkMxThTT9p8jtCnBaGtrc9SsYnvHFcDR/XtZH2dqMY8aya5+UjPpJ113Z19afOTJuIaVrFl46Zo6TE87ghnQ+xJiPodoTcE3eIQaTia2Axk0w8LFDmnCx2IzMQdY+hk65ncpEFjlB1RF3TojS52mdU8yUWpZtirXMRULPWc+85bLCZ8IXDwVEzlipZOC1hUvPR2P9LPvaGLLMCT1jOaW29rFzd4nr9NN2O7HQ4FlzxFt02IIQBF4wT+KtHVOIBq4X6qCYy6y/LaTiEmOfYQi5AWVfJ8TNre9LeCvubty2RdmzXMGI+FZZS/Xf7Qq4rQTEXbRojVXNzRqb2/lSztYUz9nanGGx2zJsT53H1mDw9cy+LknV/DL+IT3JF8+7CyMyx0ep4Z/92Z99yMo+deLv230EHqHvyDjFOS4BzcTcFqe/l7/85YuQznM+lwYEXOdD85R3Wa0tnjWs7dn6YQsPSHDWHa5fBKnyoLappPTP7fMx90/4msKy8Am9dfENbZWtDYKHDBxTW/uYPlzqGkqXEuHdT2EHchMuYRgxLiABc8+556fIzQ3FfNthhHNpMIuHEOb7sq/xJoPEmotG1qGiIW0rKxxj/UiYw5t3pZj3wdf7FJI5ftJg7QlfQ9LW2ddokOEFDcGj5bRcQnZu5b3QR/FvCCKZce3XQ4z52hT+PehJsgZvWWbfJaCZFjAmd5C37FJCuO1J5wyLoBObJNyrt7urzwm6NaxdVS9xaQUv8tq1mzcgM13Cl8pKhM5teWtr+BpE7zWLh0TblPN9hLUJC97dG9/4xsdb4cwRweXACvPG8AB1NraJRkQHc/MkwtoTvuZR7cq+ntna1h/6CCO99rWvXfiw404p4V/4hV9Y+LFM59vix/U6XcPXjMabMuddb73JuAd1Pwmw9oSvGVSMwnXxnomIkGt3CWvXFwaCdSXB8NqvB8V8RQoXe/UIeyVtGcrzCo7a8vhpSaY07AsmnJ0h26I+J67cApGM9a3f+q2Pt0TtgpjX1j1hyfr1+ot/8S8uSWig4hibgKGEwW4KN7zhDW94bKRcUxDeBF/v8ozW1xvPfYG1s971R2z5Ez/xExd6V6TGKV/CD2gskSZPeBe/NX/tAybUg7WDd7fw57WvncKaMYGXxIKnNzn5qOspAp6ZLS8MWOeGt1bcK79BCGgeu3pNftxFp0Pw9b7+NI5gbQbILF15X2DtXfA1/qzozZom83rzB87nqXYqletvE9ZGX31w+I6tqFNGXIPvHxTzNaj6e14yxsFUhMc3fMM3PHrHO96xwKZZtWsr8VBX8nKK9RIwYMtnP/vZT0liOdTOvt+rBcwDUTuY13zsq3iYpA0ve6glfnllKJRQpt4276RklmOfcep1u+BrzzbeQ4JrJrKxmO8a1g4RsQ9eMZYMBp4eJSwD/k1vetPjPfLHxOyDtUGiBOV9hbXX8HWnlx0joEHaDE1V8DqHHD8Zq10BCrSszww/ld+23jcNXCgHJbA2OI5p8z7D2ofg633juw+w9jRgbUuEVD0o5mM48h5eE/xEaEgq+St/5a8sSpmAEPMr5rXFMk/BEFASWxyN6MjF4sznkoEQZzQ4s5lwP0ao98yYl3AXRxc7zltOuZWYJL4H0r+tON4x8PVNgqFFaBziTJRgMa9zab71fnMN1nPmMlg22lYUxZnB9oznQR8zh08KrA2RYfhZW/vg6330tE6U2OQ5zy2Ejkp0kplysLfFj+s+boWv943xPsPa7bkXFtoHX980Lr/h07uAtTMOyF1I36te9aoHxbxVcN2X60u28c4aJ0gp6YQL5pyx1UOeW4xZdrPjIp3UxEouk/GUsbePFfPpq1OowHodNXdsm4QCb5JXqXQdiNVibFxlpovvoUew9rHtb71uK3x9k2Lut2Lldwlro/FHfuRHLjA2pKRx4iXFRGyRkkwX3Y/hq3hLW/cN1t4KX895nNn1kCUIjjH6vnj8l3/5lz96y1vestx2idyPLXx6Knx9kwIz363Du4a1JxwNpeCUzKMbj6XVbGdma98WrD29duFIO01CAK7lOT9A2cdyx8brZjxV/JeXnACknFnu4FSeM2Y7BtZ2HYZ4xStesVht2jn3lcKsTjSoj8fldYy3NZWWvtn+xGhof2gGCqHnjFhenlKkx8DI54ztHPj6kOV+l9nalAr6ftmXfdlTTpGCdMg3yPM7ViGvx3rfYO1z4Gs8jSetFX8TXeAd23XgtLRCQ7eZ8Xsp+Hofr1p/87jEjIBT+eKUtXgqfH2TkbzO1i457tpzl4x22phja6FWU2GfQp+b7nlQzJem6GiPYhOTUK84xmlBsmopZ4x1LKztHqcviSN2itC53bdQKU1/b3vb2x7ZRC/OWDz42PYtQke0SaBhGc/Sm8Yn0UNRB8/A5L7boviP7UfXnQNf3yQY7hrW/rAP+7CldKlEmHgJHSmZl770pYunjLanCuB1uOSui5CcA19bLx//8R+/FA2R+BVN0IdxKElOTYESkI6JVW/lw0PebcVDDmVfb31usLY1WV5LqNjWtk69/hz4+pBxfNuwdgbBn//zf37hJ8hgiZin0udBMV+DcgfaJARsVfnsz/7sZa/ptOiKKcnyA4t23NmuePOMbyga4SAJ9VrzbM4dWh4zAWzbFUGVwjwU/06Iu44AlVyjPnPbIfK6Kf23v/3ti5cHZs16v7Ri3gVfi3OLB18ifrhu3/gmrG1OrlFbOzrjG6EAceT5wj+qvUEkvI5BX24UCs961jJHdwVrG2e0Pib7eo6l8In1J99BpSaV60KXfA9dUMbUrgAQa0VWbgPKXsPX+jXzFQ6tuWPXezLmtmHtCTuTbxTYKfD1Tcax35KLFSG5NqydEfwn/+SfXPa6CyM9KOZjufEeXUcA2MebMtq33QhjSShSem7XKTYmv032inU85znPWYT/qVui1iTq2D8Cn2LdAgkFrXtXTUkmtv2UVf5KSYDsld2UaGOM17LcrwFfH7Lc17D2MSdubWXTxvVxH/dxi2fMMEsATj7bt/Vk6/O6/q5g7XPg6/Ymmxc7C8SPKYh4zvcMZTWPoTgUYUdiisle87WGr/VVH67tqd8mrB18jc4SVK91dOOEkc0vlO42YG1FkxSoUQK3sV6DZx6g7GtQ9dGjxSpXSQjsse/M2xaqhWOS7SFdv1yjdKDkFUzRSThZjed2n1B473vfu1RC2iqY8oz1SVlInhzFxJAoUYo34nvJSsZZbW39PhVuvcmabs+j7F2IRclt13jWbcHansOAEwqQX8CTbTwEnzgpYXGNMWZkEbK3BWufA1+jDXoR1HIlHFZREhgljB//6l/9q49++Zd/eVmX+NXvhPtW/t+69i6VfX3Kc43xNmDta8DXh4zjCWu342UrjY69/kM+5EOWEsIf8zEfs9wSxH3s/cde96CYj6XUkdcFRUnCUWRDhatD0OL0flK4KT0CxulOYssls6TUJrR6ZPeWy0rIcj+L3fYozBasfWxbLcKP/uiPXu7nLU+DgdJXW1bmqyx0wq/a2m3nOVeZXBu+vskI6Ldd2dqXhLW1j7aKG3zsx37s4y6h76/92q8th7jbPnQuLXeNNePx2rD2OfD17Hclab/5m795CavkWaWEbTG05aV1UDnOaxiK9eu24OubFNg1s7WvDV8fWoO3AWvP0ApZ9/znP39RyqfK4EMy9kExH6LQht/bu+wWcYiXvexlj2GqLbEjE07A8ER5m7wkyT6ES1Ddhm79P5emgL2/613vWhRnJyttiftiSgoIXAgaDF5PCPKwlPX8V//qXz3uQzGvfUdGbh3XbcLXNwk+v10L1kZXvPTd3/3djw8D8Tzenj24P/3TP331LPcJa89DE7bw9U1zew58PdvFXyBs5yz/gT/wBx7/hCff8573LPFmR2Le1uuu4Ot947sGrH1b8PVNCjo6XwPWnrA5BEaN/z/xJ/7EYgg/eMy3tZLOfE7JP6DhX/3VX318lOGWOBJGAOdRdqBwnzHBpeLKefCgc1Vs7F1mCEiQ2qKYLUgVqFiQMxEi6F5yjaP1OjkqWJmRISmLl9fzTvX2Uswd3XhN+PqQYEg5X7oICW9ZtrtEM4I1K53B84IXvOBxhvupNDyG5aNzxW0uDWufA1/P/kOY7IT43M/93KesF5C/cIvjMHflchxDg1OuuSv4+iYj0hwq9CGsJORW/P2U8bnnNuHrQ8bxNWBtbZKPwjl4h9H3mZ/5mQt/PSjmU7nmFu9L8VDIDqyg6LKqDik8zM3ap8RMuImXgS0xpUzTS0En7bH+x//4Hy9x8DKWg5dvIlnevGtlzKoQpnasNickL7sblF9CxrpN20TETVPO7j9WsdwVfH2TYu63fbD21n3bGTraA8uKLzOoEgQSvewJ/6mf+qnHoZJj6Xfqkrg0rH0p+DqDFa3A+gzCDJi8OXSSiNkOiFNpcOx9dw1f36TALgFr3xV8fWgNXhLWboxtbbXmHCPKWZKn8JCVfexquAfXgRcJABnKW7ZfECC8BkpSZSd1kGXhXtJTjjyUhDrYn/RJn7QIqi3ePGbkncrettnenmqenLFqBxMHYb/73e/eW0Gsdmyn2Apr3wf4+pDlbny267C0eSZbs7XzQp73vOctldTAsjORTezevmVte11bKc/xBmszGiVMdRbwVlg7+BqdvLbUvp79QWNtQRacEsVgjCbtx7fV0K6ArXkUp4iU+wZf7xsD40UtBcYxuZMxcQwv3TV8fZOCvgSsPeFrSXNyceJzBUaUHZ7XnMInN93zEGO+IEUxtGMMQdCSv7YIqjxRUByohMft/pnwdamuYjBFT3i7FOxWA8KiBEX/2I/92KNP/uRPfsqRexa4bWIgbFD5vjOMg/hOgbXvA3x9SDD43RhPhbWNES980zd905IDUCY2pML8QTogHlWtOkaYXop/LgVrXwq+pmAoZggTTyZapZSdlPYt3/ItiyDFu5fY034IVTIf1yoecql5xJ+nwtpl6+NvSosneSjJ9VL9PtROqNI5sPaEr41NXkXG3nd+53cupW8zLA/155TfHxTzKVTbc4/FyFM2abzGQ4o5yy5G4jkQIuJj1cBOwJ/bzaBigh3Urs626kdeWzzmPLkv/MIvXE7loVhTDh3uoP+gbK99i7WxuwakzUC4aQ/1Gr4m9Dz7UsVDzqVv989+TuPDNp1D4YzZB4ve9jhGzod+6Ic+pSa2M2GFCa6ViX0MLSbvQlCOHV/wNX4Us8NP8yjUeOaYPnSNtcKQ5cnYWtgLvZ1kxruR8NXcbJmHLf24r/D1vjHEnyWaUkA3GXj3Db6+yTj2W/3lRJAtW3MLyCX8uaaLrH6nBbY1bwuPHHvtg2I+llJHXEc4vfzlL19iXBTSMYo5WBADOJGJJ9tCOeKRR1+S90AJy/BVqGIq62MbwuwgQ8odDFaWeBDhN37jNy6ey9ZFcOj5E77OEzn26MZDbd/H39FV1SpF833OeKNUKOWf+ZmfeXyC1H3s/74+GYsxCGEQfHYDnFMtDV1CmZRLnPXjbdGzpn70R390SXK65mvC1/iTsXAbxUOuOaZ12/cVvr5NGphnMl4xpocCI7dJ+Y3PSrmZMB6o5JP3ve99eyHc2XzwNaXmWEjbYXjNQUwbu3Lj5RQyj9a+V1W4ysbcKhQJVvuqFbXopKu8HPE9ML7nXNoruc/w9SXnqbbsDf+VX/mVRdFMy1wGPcXstTWh7Br93NomhUUh87LlFuD1Y4zY9XPy9hi2Dk6xdtb14+37liDHYL4t+Np5ypCcS9e+3krna1y/C74u7+Eaz7uPbaIBRNRpgQ8x5vs4Q7/XpzKcCQpejBhX1vk+j3laWj47K5aXyRMtbnGJNPyZ6ewzQcircD703KZ0KD45GVCBC+faOkxBXytWoqQoAami0tzPvXXqJlzm3rK9fZ/Qu2/w9dYx7ru+LE+KSyGMMj9db76ERz7v8z7v0S/+4i8+TgS71LOv2c6ErxmeeJ43yYCL9w7x4Lp/xZElx1l3JZDVzv/8n/9z2coHwt5qfG6hxRq+ZhwIMbT2D6FmW551W9fOMFPrzzu+vHTt69sa06Weg5clXdqS5zVDV5d6xtLu/9m6Ii759KdBWylmCxDsKJv6pldJBdW7lnktiSdFd0mSZM16Ju+KV/HqV796EYxbamK7vpi3ZCRFTzrW0TN4IxiVJy3hy/POEUieR/CikX6XbCZWxLg4ZlvXJel4W21VOtJWuR/6oR9aEsfiL+/KbjoRqUSU2+rXuc8xl/iBUOcpg69P8ZJnP7SJH9BJTkOvkhlVsys57loi7ukKX4fkoSnjKcNKtrvwQNnJ5/LFk3q//Bxbph4U8z2eQYueMLDHDfwo7nmMYraoJaq87nWvWyoVEVjtgb3kcFNs73//+5eEr1//9V9fFOeWTOzi4JKQbNOxfaCiIZQkCF+hi5mJfqowRAOCgBAgAHhWLHVxu07huS/Zn5ecJ22hMxjUFjTJdTOubFsSRELN8VNpe+n+Htue8IdxTfj6HFTFc7VFITub2ratXoxEh70wHn/nd37nqrQKTofkMBKs/XPHdSxNr3VdjoMtkMIoDGHfySdhEJYIdY7hfa2+31a7D4r5tih9xnPyaHgzyk8eiq1icoJqbu/IQr00LBLM7F0mIYFfXHKLcKcsKUdZr8GreeGMEtCOspzGnrDa0v4kv/tnkQ4CWLss9eKEE6I/Y+ru7NZCAzM/QWeMXVhDqIB3GR3MH/pSNsdk+9/ZwMaDp5FJqHtN+PoUVKUYp7YoY0ldjuGbYR/PwI8MSLHla7yejvD1pFPIDWPYnxfHYyI1T7JiXq+/rbLqQTFfY1VdoU3KjsJyAtQhhsUUlI2sPokpned7hW4tfdE38TYHxhPqp7wIPvCqrTs+MyzyDNQElwzBu93ihe/rR0leficUeOcEAvhzxiO3LqZTxn2te1JavEjzU1gBPCtGL26asjGHvJRP+IRPWDxA1z4JY68aF6VsLFXcOmS43kTzTlbzbvfCK1/5ysWb68AQz2HAWFeesyVcc+xcr+FrXiWjccuWw2OfdVfXlQNjrE5T8lKQKNn2dDGMjYv8xZtbXg+KeQu17vDa3/qt31r2UWLeQ4LHQiY4lFmcXtE1um8hUWogPwlDpwoP21EIPN5JR1RanBJrJCOByYsHnzuOdfY1eFBiD2+Z1V7c/ElQTvtoQQFXXINQoEAIwy/+4i9e9rHPGB+6fs/3fM9S53nGm8+l87XvpzzBu5AWf//7f//vs423to05QECJzalA0Oy//bf/tiR8eRbev4ZifjrC12teWGdfM3xmUltr8No8dK32zaH111GmWx2WB8V8rZm5YLuYlKcsKWceyjAfkVXvXWlA+5zFl69RBL1Fg/kI9U65yns+duhByvr4F/7CX3j0/d///ct+0axmbfP6xfh4y6dAk/VlQviEQsVDKhXYXlVj68zcJ816n5nJrHRKq7OpjeU5z3nOoze/+c2PPuIjPuJxbXTfKyMJjWEE3XdPZWbzVuOdN+l7vMPzL0Z5ylgIU0baG9/4xmV3QcYZOoGtbeFjQM4QzrH8fui6pzt83RoM0TNf1lrzhV8hPObTCzoWTZ4EI3nC152wJexhB80hZ2rNGxSzxELjvnT48bFMfMjKPrQkb/6dF0pBKdM2t3+sFTNrHyzrRKBnP/vZj5n6GhOLYfQF/IuJnEy09eSorEr9BmErvUngUZza5p34rlrN51BxwtcEwK7sa891Io4+lGTjmacI+HP6euq9VUyjXAg94YUEm+8oFWUjedNevL2MH9n0p6Idp/b3lPuCr3/f7/t9jxO9asf4wdqEIV48JStb+/I40APa1Ith+I53vOPRl37pl16EH9djf6bB13YDQHKmzEADBqW5xbtPmmE8Qx7k7xzfofDjmh/woKMfM7ZPWSuH7nnYLnWIQgd+B4Mo+cdr3qckMIXtUDwi+4Avcabyvm7VB0KdZwECBQH7f0sMGNMRhAqm8LrbY6sd8PjnfM7nLNW/trS5r88pZgrK4qd4E9xZ4xUz4TERxPrwJMHaaJlS7lAL9DB2B1S8/e1vf/Tc5z73sQVOKDJ+FGz57d/+7TO59HZu54nM7OuMTjwTPBp8yFPZyjtQJkVD0MlzeskclrH+8z//8w/w9YlTfah4iLk0v9As8ksBlXZHbFVsJ3bxrNvIL/2vtjf5kWG8pf/uIe+hnhMhOqtzO25+UMwnUjSFYYuQxKgPfvCDT1HMKTbXse5f85rXLJCkBXBNxRyMR/jzaEva2BIXSlFiYrFphU98lyBVIxtKcE6Fr33w9b7iIdM6RU/jKTZ0X633CV/zNCgT8Dzvtz5T2LbMiS8XvwyVoGxAs1sV2IksfdJtc4zga/9XinLOS0KMgQUxAD0fA2uHILhf/J1QNPeEbIpBmMX+fAbbJZGFffA1Q+Oc0M1JhL7CTfvga4b8LtQAXxq77WESWO87rL2GryuOst6HvQWK1+ZXfdVXPc4FmTsCLjlFD4r5RGqWTasMpeSqEngSDBXloISdBCSLtKIcQX4nPvrG2xJWEsyc/rQlAaaFilExHGj1Fa94xfK8hJHDKb7oi75oyRA+VzGXnbwPvt43UPcJC+jThLW3WL7XoP26zQlfQwJmZnle5Kd+6qcuaEsJX205+7mf+7lHL37xixfl07net9Hnrc+oUl37Xo0RH+1TkO2JPxbWLhP70z7t05bjL2deBlqJwTsPvGz1Sxkxz08VlOwAACAASURBVCT42pwLE63h65sQLsYVBX2fYe1d8HVVGbfGlaOFdepsdMWUqrmwdc0cc/2DYj6GSqtr8j4Jn1e96lWLx1MiQAIJU4B9eMkSpNpiNPfpnvDog7dguJ/+6Z9e6infJCB3NTS9WMVS7BP98A//8MdJNjwcito+2+LYpyrDvHKWN29yF3y9b7BrWHsmhG2xfg8S88wLJnw9ob/4h3HhiM+y3SszCZqVG8AICvI9lc5nDuHg7VXgKvOasCp7fB+PbYG1tUuJO7Xtj//xP/4U+BFiYs/yO9/5zseG8aVqYj9Tsq/Nn2I+Hd14DLK2hrVLYjzm3oMMdcELgq+ND6+oSuh1Sn7DVMyqH5L715TlD4r5BEZIKbn1+c9//qPf+I3feKyYJ/Qmm1miCkh4QrGXhj/KuNYvi0RpUNtJPGcLtJeXwLN3StTXfu3XPjYotM2Lk/hAERbL3qIwtsLX+6bmPsPaza2xMjja55pHl0HiOspX0iADLtiUYaXcnz26CZL7VoI05Wt+wNf6HnydYXSTgXQI1p6xO/C/86gZhDy0XvjaCWm8F0I3w/hUT6h2H+DrwwIxHkZrvMt4ui+wdryT8QDJwR8lUza/pxrw7heWVLshNOcwxbZf8aCYt9NsEQIsczDOR37kRz6OAZq09lra/iJpqt/ncXQnPPLGW4or82idPlSFqGJCxz6vmAxYSyY3S9PLAsTcily0H/XYNud1LWjfEbgW9bm1r+8brB28VRlR44uGM5HN2GUSK/ySMgfDorO9uLzlU4XHKXOz5Z6t8PW+toO1JYRV2Q0vVzDE+OU3vPvd7172nLaHHj8yWsDboOxLHTE64WvhleKoW4zbLXS8i2vb++3ZW+DrfX1Fs/sEawdf4yPJguD5YspbnIibxgshtQPgmrlCD4r5hNVBYLDAxLyqMqQZTMFjlo4vI1oNbNeZwDzpEx538JY8eEkbhDqleoznsm7YomVA/L2/9/eWcRULB6c6g9QBHcZzqqBKMd+UfX1wsKsL7husrT+MDt4d+Lr9ntPrNX6IBJpOQcnYa+tduQJb6XEb1xsjw2Jd+3orX8QP+AxcDYnpOFL8i44Su8Tagw19P7eRGe8DfH38rOM38wfFYwydW/v6vsHa+KTwByN3Zl+fi6Yk4+1h/ut//a8/lo/HU//4Kx8U8/G0enxlHrO9p/azebWdSNxQpaZ5aLvrZ+3gEx554y31B2xOsE8Becjrykv2ANd+xmd8xpIJbPHqM0XMYwEn8pZvih/u6uQu+Jo3QmldQqDeB1h7wtclQeUBBrEGoaGrylVqq4O6+x3t/u2//bePPvuzP3sRJvdNMU/4utrXBN85Rzcm6DJoy9auYA3hpz57+RnFMG2Lcn75oeNVj11nD/D1sZT6f6+7CdZODhX2Ov0pN985Qx9tSWTk4aOSVi/VB2tdsiYHaBrVlx7bg2I+gaIm2cQrw/ne97738dYJHoTDIl72spctwqQs7BMesfmW//gf/+OjT/qkT1oU6ZbM1KAfDEwwim9Szl6UA4vaFhXx5TK8t3hGu+DrSiYeMhq2EsGiAX3qXwfVN46tbW25vqStvEjPNu4ODNFWELd92CxuMGx7y/GNGO0XfMEXLIlM6z3cW/pyrWsnfG280fcSXog+T1ibwgdDvulNb1rCJ73QU5IgOinUc4nXGr7mbYE/t/D4JfpxzTYuDV/v6+tdwdqhKcYp5FGZ20J8l6QtFEf+Dlk7nYJLPmMxWB8qf20nKYXyX//rf128Ykomb5mF/9rXvnapXEU5Eri38QJh895lrnptESopDO/2YzuBinJL4MrAtm9Pm1mfW9pPMZd9TaBr5xoeYbC2/YoVIUkxX9oImPNaZjLFbHwp5DnGlLfkOTzCW/Y73kEPiUy21FU45VIK71L8x9Cc8HWe/hZeuKkvE9b+/b//9y9b8pypTFH24iE7f1mdeYbMJV7r7Ouy5+8b/c8Z66Xh65sUc0VI8HslikM6zhnDTfeaQwqTUpb8ao/8Kcmpx/SPYa0YkKTfB8V8DMVu8RqT/pM/+ZNLAgDIEuODICUFdLi97lw6+3oOMUjZu73UYsKdV7xFqPBUyi6kHD790z99eQxB+Z/+039aKn/xUlKmfjuk5K4NX++b6rlQLCCK71pFSDLG0CL4uhOUEgqTTgQWROJtb3vbsu1nJnxRMvbC/5t/828eQ9uXSFQ5d0lMiB58HVI0M8wv1U/0Sdl/1Ed91HLutIxvvJmBI9nyRS960VIR7dwwyISvGdIg0BSJ3y41rnPn4NT7W4PeGcV4b24ZOrXdQ8YVnkG7dbb2pWHtQnB4JvjaOsKb0yA+JKu20kGVPmv4Yz7mYxYZea0Q5YPHvHVmfu96Jdls1SAg7EPlrfLUZqnAE5s+6jbMhwktBEbBu971ruW+rXv0goF4/2piFw8HYdsjygDR5lZ4PIYt+7r49G0JPOMCh+r3NWDt4MGb4Os5kRSPgi2QDZ9TevjHPne/3bdCInn5+JoBd2n4etKn3Qye8zM/8zOL4Ovc8niv0rd46JxM7GcSfG09y3s5tnjIUcLniIuCtSFDv/u7v3vx2topReuQM8SoSilvcUyOGMpTLmE0kpMf+qEfuijlB8W8lYJXvB4DfMM3fMOj17/+9QvT/4N/8A+WmINFMKG3K3bh8VnLvFwnW8WUGHYLY7oeY/O6/+Af/IOLwtCWbVegRNtSQENb2yzDmzd5Tfh6H42vDWt3rCFvZA3Z7bLS8QeFMxEKff+1X/u1JSSC5lsPGrkmf2nbGGWXMyRs+8oLuxR8PftvvtCG8rW3u9wH7/EjeLtypuf04QG+vjbn/F/E7ZqwtjmEdEDGIIUMtWvB15NaEjcVXrLVrLyIa1DzwWPeSFWTLw5or/C//Jf/8tE//If/cPFYy1q9ZrnNmVnoM0hPERMW6fQgDsE3WZs8DwLx67/+65etO9UfltgGWnVIhdeEsfeR667g6339uQasnXWMvgQCehEKxZTXmZ95nCBZSXUSvoL60IsXQxFR2NH50NxtZNfNl8/wi5idF4gwr/VS2a3rjoEjHU4hMY5X4oVGIR7qhqvbHiJ0CvKyhq/Nnzkod+KUNjcT+Io33AV8fZM8uDSsHXxtnhjEkByhxGvD143R8xnRduII7TzEmK/IzFubJpjEXCXxfOEXfuGjv/yX//KtJXl5dkIEM8oAF9dmDLR15NjxVBbxD/2hP7QUQnne85633EoQ8lj8ba2zHaO2j7fa0Hct8C4Fa2fQFD/DB+vs60l/80KAVJa1MAdFzjsWq1KlrQpfx87dNa+jIMvQRzdogNc5Huox/eWZK3Oo2tzc8y+kwqixn/l//a//dfKRkQ/w9TGzcJ1r0J4SNcfnwNop5vZhM4pvA76OKmSmUsfqOZAB5PG18ogePOaNvGgyxEvFGQjc4m8bmznp8rIbMei/+3f/bjmRiNe8VXCmYLzzlJV/LGb6K7/yK8uRjjzwrYr5ruHrfUS9FKytnU7WWR97t8vTrdgMXhEzbRFTchKZGHf/+l//601hgpMYZ8NNFLMxMioIvjzkLaGMDY97fKmDKIRlrKdZUUllL6gQKF0CE7TqlCMjoz2B2j76a2ynOWXsl7rntrKvt/YX7cvqPydbO/gaAsUoDiVMLm7t17HXz0QzCb8KMLV98FoI6YNiPnZ2xnW8HQKCEGnSTmhm8y15zN7FlcF+p8BwJXyJk0gaU6mMsiD8QPT20nodUsz3Db7eR9B9sPY6NLBLuU74uizh4OuQgHlfCSHeCSOJXX/tr/21x16gvkAlFMKHduClu0YUCsOYT/B12ezXhq+D+sGC4Hzla1tP+JHgFVd2KIs+6aecBV703BJzE/z/AF9vFjMXv2FC0KFNQgihTR64L0Qy75W/Q+ZCcdYn210zBFS+A/5Ts93a7XkPHvPF2eXJaxAzEOTve9/7lupRp8KLGI1nRDGA4/2vXcdEyjS3LxrDHfKSWjTeLRoZmPcFvr5JSW/J1m5RgqGNkaXutW8fdt4epcPTA8N6Bc+iqQpfyrWyttt6dJfcWGUtcXOv24Kv26YHsRGWSchFE5AhaLschwxKNdzLMr5pF8KEr82fv6dr8RCyQf0Bc3ffkggnb2+FtUP3zL3xWX/B17dl0CbnrP/v+q7vWgpIXfv14DFfm8IXbJ+AwpgvfOELlz3GhxTnvkdjNFu8fvZnf3ZRDhicF6jM3H/5L/9lUdSztvNN7dxX+Hpfn7fC2sHXJQqlkPfRJy/QcZkUy8d93Mct9EVnfyBs5U1Vrqry120JmH00MTZGFeFHcd0WfM04BPE7+lLCVwgMb+gDH/jAo8///M9f+DwFyxAtNwJ6cQjWfoCvLyh8LtTUVljb9bxsSEkHUuRhnyr/tg4l49w64by84AUv2NrE5usfFPNmkt3uDYRk+5UxoiSYV7/61QuUs8VjnnAMgSibXCJD9bAlIdkGcAgaf1Lg63Ngbfc2Tl5kcbG26tT2vrgympbpngftWvdT1qAwqMTWPeeX5LwJ71c8pNrXN0GL5/YBLfGY5xN03/d937coYDwZzcWQv/3bv33ZhjgPIUDDlDS67oO1b4KvG9u547jL+6OT99sqHnKp8R4Da89n8VLlFtw2fL328jtb/Zd/+ZcfJ8peiia72nlQzNek7gXaJsSK9X7wgx9cEobyIrYqZkLR35/5M39mURAEGyXilCxJDdo7VEhkF3wtW9brrj2/reSmHMTX0XcWITFGdCIU5glKs/b1vmdRGPa2g6sp9by20A60N4/XjIkdQ4eSV8qTuC34ui15aKysoS2HJS3V79/8zd989Mmf/MmLUhZP3vVqD2nFJYrVp7y9g64lehnblrVyDP3u8poSNa03YZn7Dl/vo9U+WNv15jf4Wu5LjshdyJhCKGTB//gf/2OJc1/79aCYr03hM9uvwhdGFd9wSLfvjlGia6uvhCRK2d5rbVKqL3nJSx45BIOncojxi/l0dONdFA85k6SPb98HaxujzGRjbJ+rm46B9ylj5SSV3UyAupc3qua4k7vmiUyXGsvWdsq+NlZ7QW8Lvu7UMomHkrqUOKy4SGPgRTuhzX76fVvJ4kM8PGHt4M2H7OutHHH7109Y2zzOtcYotpbIF4Zz4bVD8ukao4jXJCfaDXPNc5jr/4NivsZMXrDNyg/+9//+35fTrDq5aOsWgbzANsjzJrThqEgKf1bOWXd/wtfFfDqw4dyaxRck1eamJpybFUxJ5en6PL3kfV4uoeI3FrVqaQ5ZaH7a6+ikJIlMnf51Fx5zlr8xUYyUmOIhl65jfNNEtLdbOEZ50hCYmd0K5hdqoZwJ65s8rkI05gwPMy4JdUaRsaWo74LemxnyhhsmfD2PNrxPe+C3jncXrC3XxfwxjK2/28y+vonP8JOaFW9+85uvtnf5KY7Uw+lSW9npdq8vNgnaU77xVEjOIgBds/jAf/7nkfyRP/JHbhR+RruGrykxSUx3GSO99CxQDOhCKIBQwYMW4yFoXz/cy+tzRKEsbF5gWe0UhUx1cVQnkpUxexeKokQ/Wc2ef1vw9ZwrdIImOLXsQz7kQ3ZOIxrpmx0DSsUeeuWFKykrOZLRiObHzN2htu/L7xO+Fn6htLaWyr0vY9nVDzJGAqI/8/k7v/M7j3eL3Id+o7+tjzKyr7V3+UEx34eZPrIPFLHCC7wLHsGpxfvBLzw2ngomA606bL4yhzd1JyiHR0ioU+juP6ZU55HDvPPLLDaGS2X+CD7j3rctaq1s0EaykqIzlLL73G++vu3bvm3xAH0u2e4uFLNnS6Qh/IQwQgNuK7sVzSA1ShpKPJwVviY943FojkS5Q6+gRfFkR0b+1m/91hKbfropZuO0/rzEXc3fqYb6IZre9u/WCoMKkgMFKC9gKzJ4jX6HNNnFoub9g2K+BpWfgDYxY9nRLMcv+7Ive6QiFxh0y0LEUCX58E54c23fkd1NYfDodgnmNXwNWrJwQIsEu35QXvPeu1A250xnUHZJKJQpGJWCrsjGVMyzCELZwd4JTHF6IQHJTRXscL2jHL/gC75g8eRqa18xhXPGsu/eCqT4Xfa1lzk3n1UvM5dlMl9jDovle7Yzy8WQO6u8git4m9IulqgfP//zP3/U1hRjxJNoz2j0ucNXovU1xnWN+XqK1/SsZy3/rrOv0RP9wL4z7+FJG+MuKFv4AVRvfMcWIbn2PFRxTOIX2XCtoiIPHvO1Z/LM9lPMhJU61n/rb/2tZQESoFu8m/Z8encIAA/E6z//5/+8ZHcrd7hPSezLvk6Ayzwm4AlCr2MSo84ky8Vvz7OVPOQzQZdSle0KUq0spYfPxJMqfPneEXBCBBSDl3mjrCl5sC3Yfx0ru/hg9jSYtQ8JMEeQjhAQxprchbbjXSuxRh8IWt7Qe9/73sVTDo3wzjtS5taeZvxY4RUeiiIth16EJaNRG17mZp2tfa2xHerbOb+vs6/nPl7IB0MGb0XLJ22MGbcUsfkylmRfyA7HZFbYuwvjwzx87Md+7FI+t2zxc+b1mHsfkr+OodItX4MRCVGC5lM/9VMf/fZv//Zjj2YLPFdijDKLtqV82Id92NKuIyvf+MY3LotgX0nICV/zQOYpSnnTYDVxLt7Jk6iYLTICgOLg/ad8g6ooM7CqmHO/JRgsVve5RuxJffGUtWvc4yCQv//3//5y711lYlc8xJwFz7ePuL3AnWWbgL80u+fRogeD0P+MzA5f+aVf+qVHn/Ipn7IYMzM7XNgFCnHoRSnj46D5DFIJYYyjU2prH3rmbfzeLgrrjCdpnU3FZHxlM6/32N9G/859RvA19IZ8KWclY9K8zmztu4K19UeOiBLIGRPnjv3Q/Q+K+RCFfu/3NYw5b5uw75HN3XhZmdjiyjzmlN5Wwdl2BIrjS77kSxamskH+xS9+8bLQ836zSPfB12DYXdnXPB/wKI+LJ7aGfS9Bi0u3MSFonjKBVt971lx8hJ9xQQZmTD14FkxNefDamh/Xqez10pe+dInlptQvPZZ97U34mlAv+3oadc01xc1wE7PE4xkQoQnn9jnj8NM//dMf/eAP/uDiNXt5FqPn/e9//2Lcid310geekvCAhMf4c45rhnQaS0qr+bupCMm547rW/Y1lwtfW6r793AzDqtIds4PgWv3e0i7eMldyAtpnvjbs479qazMq2ya65VmXuFZfoI3OEXjwmC9B0Qu00WLPi8VAFTeo+UvHHDxLUX9C/5yEL4sblPrud797URoWtyxsinaX570Pvt6nWBKAwdp5lvc5KSxPN0Uqzpqg2AWTuV5CEa8L3bqGYiZUFBIBZccDxakdvvD2t799U+jhAuy6NDHha5/bYrcP1QAzg+5BidWpPjcOPmmq/Z/8yZ9cCtvMhC88+EM/9EOPKG3Hj/bSBwmPtp7h2cI37mVMMZL2KapJw31FSO4z5Bt8jf5qQwdf7wthldBnN4FM9GkcXoqfLtlOhhqjiZEmUe+maoOuN+cUNORwSyjvUv1GW/UHbDVNRl6q7X3tPHjMBygcfFKWLYHDeyyemCC85ESxDlXiUoAhz+KU9kFEDqpwuhFh57gyCV9BiOs2Y7oOpJinKO1SWpNJeV2UV6Um7yIWdAyNqlltobfP9SYkwnwXI6UMEuoUu3CAGGiHMXg+3pBY943f+I2L8XMXSmDC1+0DLna3i0aVGzSmzrjdis6s283j0TYF+y3f8i2P6di1+BuiAN6e64mB95f+0l9aUAf0K2Tg4Ba0loTzH/7Dfzg43fEnhf6kwNpr+Np62mcYT9ljfO5t7/1d8N3BCfm9RDZzKIQEqbJeQu72yRjjYgSD8rckvx7Tn2OusQ1PdUSJs/o6kZtj7j/lmgfFvINqawYpazUmYv0TurZ8UGKX8Jg9syL9//yf//MlWas6wVutxKxSHgqPhNJ8z3vesyh75zfr7zzSMfjM92Vf74Ov9zEZAWzBgSVbaKcw5LXvmTB1xtYhI2JC/EFwZWGnlPMwxUs/7/M+b5m720QO9sHXx8Kb7i80QbjPEpf4YisPluD1R//oH10MTHzlFXIjf8JuAwKPkO6Fjiqn2cNcUprv/tSf+lNLuMB9lLhsd98fMiCau+LOnUx0bT7b0v5W+HpX20Hfc9629OE2r01eHovKrEMVt9HXKSf+9J/+08u+ewlqD1D2bVB/zzMS2H4u7mZhg9BAGvarSpj5kR/5keX4vmntn9rtoHLPAz+rh32K1TstOlVqeHSEkY3xb3vb2/6fvasTvgY5dnTjTVb6qWN80u8jUCgc2cP24rKkS1gyNlAwg0r2ZvN5yhyeQqet8PW+Z+BlECr4u2pwrt2qmK0Xytj+bYhNL7xIeXzN13zNsnZsn0rwegbUBf8zIK0F9PW909AqPEFBMzRlJTME78KLOmWO9t2zFb6+5LMf2tpNgRQzRazewxve8IaFF9t+em26PXjMOyicJTc9KpAS694EgTTFFcFtYomXUMwZAPZ4KqpwTqlLQloyDU/FZx6+5K9ZnCRBuxW+vjZD3uf2q+lM2VAoean4hMLx/Xd8x3c8Rg2OOfTiUuPdCl/ve24HnfBi85xPMdLQxvqQlV7Cl3bQyQ4Be+rVbIc4oV+nTjEmGTf+n/urbe1iENnqZy1qUziC50yZP8mvrfD1kzzWJ6XvOTiUsbPCbVktrDURtGuN5xmjmIO9KKSSYIIlJvTqs99B1SaivcN/9+/+3cVK5wX4voLriiDMGOPWiSrxQf8kErHO9iVnHdO2MYFcfvzHf3zZe+d8ZZC7NqcHVFvnwNfH9OdJvybDJeXxN/7G31iOJBTzmhC4PeEU0e/+7u8+pZDINcc/4WtzjpeOre+9r18JnZJzKv14zF7SMtXxlL2p/+Jf/ItHH//xH/9YoHkmg5ORyFv2XjKevltTDN13vvOdS7Y/z906tNfau+1+UAr3uN56xNdbvflrzsmxbU/4Gq1kV9+UfX1suw/XXYYCeLh8lH/2z/7ZkqBovV8ibHlMD58RinlmVrPYIzgh0QS0UIIgXWPBU8y2G0le8X/H1pWdLQnlOc95zkkT5lkEjmdJhHjFK16xwOMZBsdM4PoabUnrdwAARezzW9/61qXNPOYH+HobZbOUnS7zq7/6q4+hV3xFGYknW7i2/uzbF77ticddPeFrfSnR61KKSmiDwpcQhndSzvvg+UpjUjRQH6dpeaVI8R0v2S4Be5pt5Sofotjyl3/5ly9etZhyStsaVPkOUtWYZznKQzkCx1HzOldNQT7p9gBfX4fel2o1vQDRUeO+qnmXav9QO88YxRxUjCB5zIgfZFGB/+kZsGD/0T/6R8uRiLYiiPuWANZ9L3/5yxeo4xRLasYh7S8G4ZUJPZOzDk3i/B3ELlGBpwIyFFs2jk41cu0DfH08RQlQ82RLmDDDC17wgkUZh8CAVWW72+dYUt2lFOOhXgZfh+C4vuzrSygra6KMZoajeK7XPsWcIlUUR9inBLCU6a//+q8vxW2c0qMgSyecRWPZ2ZQ2IWj7FCNIJu7znve8pXKYdcgIKhmtMV5irIdofervNylmhozETLQ9lH29TkA8tT8P9x1HgRSzkODP/dzPnSTfj3vS7queEYqZILF4p1L1OcHRfkcCNeFKWIiPsex9R9EpevCBD3zgKRVqfK90IGgzz+rYCcljZv3L5H3HO97xWPBtETYZCe6R6fqt3/qti2f/ohe9aBF0awH2AF8fO0OPFh7BC+gKNRHXRO/2+wplfMVXfMXjQiLHZpoe34OnXrmGr/FORzdeWlFNWLvDSyjKtWIuUYanLHlQrN1534WIXE/54EvQsy17FJJ1l4HD6JUk9lEf9VGPjWVFTyhzc2D/PeXMcw7JOpWG8z70rA99v57DlGthrlCAjJQMhcbrf331x+Oq9rP/jYVCrrCLsUwj3LPNadXKMqirZ+B7f4wk300jsPnXfqG4HJGMtjn2mbGejJxjvAR9n9Q2QnIgj5Cf24grP2VungnHPiZIOnAbAUosQfAya312rexrwkWiCSvdvskEYklZLQJQ34/+6I8uMTPfbTl5xPUWmRiGeNuWcptr4UIYGIdaxLw7e2z/9t/+248X7gN8fZqIIEglGv37f//vH5/TnECmpJwmxTC7i+xrc3pbRzfiazHfYs5RM2UUfzEwX//61y/ecC9rTcEc+5m/93u/95EjTDMmM3LE5+1p/vAP//DFQ6HgP/ETP3ExOoSL0JcyA2df2vixtoOWZ93wPP2QgN4Z4YpeoIfiM4759IdPOjrU+P3V7uS+DIHWO8W9Ngr81vNCQTL80ZNi9sfTZuzgA5nsjBn/+yyzHo8WhgghnA5ICii59qCY//+ZwvNydOQ1nIKIniZx/u9dzwiPOSXaQpg1dRGhakSuszDBkuBJCs6CIxhY/H4vUztB7F7wHCVYOv2xE6INC4hnK8Hl1G0fZXUqauFoR0lk2qzYxzLRz3rWwlzHFg85dgxP9+sIX4l0kJG5VYKwkwT22te+dpm321LMlJOMabxIafXcwjPXmo/2OStkwXBlUKZgEu4KMNi18If/8B9+fHqU/ugnA4bSeNe73rUoWPegIS+SYSPpizKWsKgMJwOA8kN31aGsk7kvfAuidBNN8mCtC2MDo0NFePTo7H8KFx/4TPFKADWGFFzKLO+79+lR19+UIzkThD9RkOm9uzaZY56n5z7RiL5PNpVQGpqC/vZ/Q/yEymzr8y4nwW8+e0+B31Yo5lq8eol20Rd6w9Fpzi7R7rFtPCMUc8TAuCnlBNokukUghqUQh3OKWaQWLCs9uKmF00IzgZ/xGZ+x7GsF9x2yrLJ+vTMUQOW8iJlcc8zkpWi7lnehMIl2KGdFGhqva4KvWfsW4jnbsY7p36Fr6n9CJKgoGJDwC30wZ8bF+g/16PoguEPP2/J78SVKg9H11V/91Y9hWX0yb+grQ7vD6i+lKHb1M1rpF8WAFp2HfWn4eh+dKCLPG5hvqQAAIABJREFUqiwmo6+4KGUqPiwBjlKOt+M7IQAIFMMRLNja68QtcKFqaeZWgt2zn/3sRTnj046C9Kw85ZRSfW2rVYqp381VyJhr+p0BwDMnePWX8U0p+8N31ohr8lgzbOea992c82mk1M/178maOY598137jcU9yZaeNZX1vH7fHE7ZhW/JOn8MLR43ZBBK+Bu/8RuL0jYfKWky0D0ZZFPOzZyd2zJQt6znU641Pvk5HUIzjadT2tt6zzNKMSNOjFY2tIXbwkZ8liVBgkF5nofgZQuH8LBXGJx9aAItDs/E9LL91MP+4Ac/uLl8Y16K9ghNmeOqJanPLB5aLLDxuobFL4mNwDo1uWwrg910vTEEaSoaYa+qms0UYgZMwtGC9wfuFOef24IurRSDMCkaJ8pUV9tzCCceh9CDuGjK5dJ9mHRDA3OmH16Epj7e5olVnje3Q4H3xH0lLKqMhM8Ysb30DZ/zOJwc9REf8RHLgSze5zpUjAX0ja5KcDIYJXvxUFVR48kd8wqOdm15ARk0Esn00fr0fNuu5svcrSHnc2OKKV902QVnzxDATbwzjYHWwPSQZ+3xY+i0Hrf/zZP5mgag7/G57X/ve9/7ljWH7xiE0D1KvF0tOTuFArf24z5eT17aa2/76oPHfAszVCb0hIza+uSdRfjKV75yOV+X5XhIgcXMn/u5n7tsdTq0UDxXm5jZpnUZ1CnrQ0bAJE8KzXiU3nRyD0sfhC0uHgxWm/WzhX7Xlm0x8cIFjIaMmuZmCqCEeQlDvCkGDUPj0t6/ZzAQKBJIRLG9Er7wh1KneEWfJ8R6DRbWH/tczWHHUyZQr2kQzLGUAa7IByWnoP9Hf/RHPwXSnfkV+NvciCuLGTMWJX2Jp2Z0oRsP+id+4ieW4iFeFDm6MtLESOd41/zf/5USNWe8bR4wZUwJ84ij3TSazWloS3x2yKhez+0+2htXCWrGkuLru/n7PmVWRnxKQZisAjfB762hXTx3jGExk+jQoroOyQbv5d+QI2LXHBeHSVDOsuYZpxR4tLxruXKp9YeHhLAYn+fUqTi1P88Ij3nG4YJOE6gt0BSXa5Xc5DUfc46r+6qWxOInYG5a6Clm3oBtIzxbL99vYergVs/ncchoJQR5eFm/We0xx1ystyXQ18I0L5n3h+nFERMIa1h7l3Xvu8ZhnCz3ypeeA2uXma8NMUbJczKLE9aeScDKnBcPDVpt7i5Nzwwv70IkHa1ZPHsN554qANy3jnHOMfudspOc9Zmf+ZmLwuPNNg9l/7Z+ypMAkYq/MxjNq+2A7i0UQNFDjBiVaOl/0DL0icC39lJKu2KeFLy19gmf8AlLXPq5z33uEhMG9Zd0VR+DsOc6y3CNl6ahnrIMKg5G7hpzAfrNcCjhincfPNy7sEN7rjPg5vu+eQy1ySis9kL5JNAJ48Wr3kHvxs7QLTbOIIE+7YLAJ5weLaJPa7T3vp88hgbGKG4tcx66CP2ANKJbcfYZhz9Fzp3D11vvDYXUZwmKwpNyDcqJ2NreOdc/IxRzFvr0xPKEMWUeMyHDOqI0v/iLv3iBTQ8lZKWYtcNbte+5LMtd3rM+WMDi0iCiWSZzy0TGRGA/8fBf+IVfWMpE7trOsqXda16bECQwnBREqER/c4BeIM0SUvJQxf0IGzHABJVrS6BhwRMM5yRhaZcQI1TA1OL+JXullAkhhzLgk2sXEgk6ZsDgGZ5j/bi0ETCNPPOfcSIOq+DHC1/4woWnrY0URnwS2pOgNyfmQy1sfOmlDWdWe7Um0BC/mjf8oHIaAchYg1RN2NZz/VE8FPlnfdZnLQVIIETmPENi3bd9vJwxkcJNYRSWKNSED41F8hkj4jd/8zeX/8G7HTuZEkrZTmWm3UPy49T1ltGSEWEs1WJI0VpfkCjzqAiS+D0kwp/1lMJB22Lx8dZU3PWxkMraYJ5QNjqpyS8Hg9FcSMM9hV+uRZNTadl9aBkyQQYwLL0y2s9tf8v9zwjFPJNNsuwJkBiyQvl5z5IheLMs90MwqfbK0ORZ8BBAfQnW9WRgVIkwipIk4LdM2GQii0tsmwcjUYFy1p9Tlf0p/dhyj77pM6XMwvfyHaEGmiYAeR+VDk1pN2eUA+8RnQmcCn24jtDkOR8KPezrbzFK0DUEgneX0NW+fsm8B7uGelxaQc6+BV/7Tlxvoj6Xfm6IBfQC/IsGoOo/9sf+2CKU8nqarzVkrW+gTTC0DGuFbToDGm9WNKT70Zrxq1SsOcUPal7zQjM4bUMSx6ZQGEP+zElJaNMwmEjQMXD0NP4oWfQF04LejYMBpi8Uc5579C+UkpKZHvdUainOayihtQccXTMw+n3+n1PC+HQgCFpaQ4wia4oMRDvrswz0YvXRehpLrckMg0JmxdPxjEx68yqRL8OmUsZb5MZtXZuThRa8Zfw5If7b6scyn8+EfcwWRzBphDYJKd3KbMZUmIyFbzvMIcWcJZhlRUG++tWvXrzBBFgeu2eLx0j4si82b+PYCZ+Lwb0Sb2QNUiSyhym0lNmxbd7GdQkKQphQoACC8PwG/pJckkERdDk9moRPiwdkB8IsBoa28gII2touPJDBlaDKszBHhBBPAozKs+CxUQYJ4ISRmDIag12nl3JJ+mk3xUJYdr51Wa/1f8szp9IqMzm6pmyM2ylkn/Zpn7Yo5rm7YEKteVVTUCtDKreCojWHhWYyTJWEVWd+3mueIUsqqbmeIUsZukelJV5xikNfZu5Bz9Zeyi+lM99bl8ZIEVO4tj0y3uYeX0hERTvmWCetC5FEy6mM13MxIfFT5mvr3GYM1Pc89l1Ggt/ML36PdiW8BkFDIShnEK41YQuckAFjuOS/1lVw9YT84+HJd2Qoo4fsY6Q5XIcRFyLW+ky+JS+30OIS18azZAoER85CrzmeSzzrUBvPCMUc5IlBKIcWdcI+Jo7RXM+CJqTbEnKIkAkCex55sZh5Wu9BOhTpN3/zNz+G6nbFz/Y9K8bRfwtFPJkA4+Fg+vv4SlB411eeTwvZd4S5ZLW8MgqRUOAxoWVVjAhQAlXySUYWBc/bKjnDNSpDTXjTfKObdx5Y3helDtKjnFO+0/BpIZo3IQ0Ko2dfi85BytAEfeKxhSic88zg/wxPbaIHj5jiVEIzr3lf8mJxWmuDooMm2QkApUF/ayt+14b2JYepByDcEo3NDQUpj4MCEKZ4/vOfv1xrPqaXZl3u84BTlhnaeKKkSrFPglVcmyKgjK3j2pqwbeOdxlyf2261JSnznHm61r3JNd6yENo8DQ8ywKiaHq85kblOxnSt+WQMU+yO5WyHQNvZpnKuZvo0YCZyYF4hXJIrQd4hE1VjnNu0rkWTXe22TqyHTua7zefPZz1jFDMmwRzFVWLELNzKc2KwLDn7VFX1OvblGZjSxP6Tf/JPHh8OP6FPW3BAO5igpJAt7ddPW6N45gSrqkqnQrjHPvvU69CkGI3tKuLEvRgTYoxlqVLIrPkON5iQbcIS5K0aD6jUS/Yk5czSJyR4Xp6XYlc73Gd/nQg1ob45rp7XAvWb9lSzokxuI/uasvICr3rlPZwKX2dsoAl0gGFCsPKO0bpXXktCtWf3O4+HAUXZgat5WOiRssvAJLx5wOLAtkkxnhLa0Q+8SXFaJ+YvdEJbE9Hy7H2K2doh0M0PPuIR894pYdn6wlEzTlrbjat1HwKDL9EHD7rW+MRIXfd0UMzGbe7bZ+5/BgwDy7u5YaRSvDzFFHLoUOsPwoHW1hqPmvOiCAyjyrr1ysCMd6LhpHm/MQz0gQFljZlDc7fFYTlVNq3v02/r701vetOyJ//QDptLPXdXO08rxbyGdRrwTPZwTbHJmSxEIEyoBiPKMpTQhXFb5DdNRjCOdiQPUex5dz2TJfaVX/mVi/dFIG2JB2Oc6uzyDDG0TGxQXLDkNZnllLajCYaX6ZiAZEgQ8iU1WdQ8J5Z51xTj9dwWanR0H2EgGzeorcpr2qCE89YTxtOCn57o9JbiIc+hHGXn8+4ypE5VkPtolxGgD5SCucRveYRrBTnbce9UPimyqTDRgrcvXoa+DJSOLnW955qLYO4pTP1GCDMyZaNTeGKE0atr3StWqbqX7G3C3TPyeI3FWisj2/xO40d71kHfN08ZUHOXgeQrfEO5E+L6A93iEYe6pADio7Vc0A8GAb6BGuAhiWXGUAiKESJ0IeP4mHDWKWvjtu4pk9sBLIV+0IRxhIboLMsbLfDgLh5r/bUOoFfu1bb5/rN/9s8uCt2apPzRdPJJc1Kobc6xzyFTjG4lin/qp35qMbwy5uKl+P0YeXwMfSdKBqmCEjASZmb/Me1c+pqnpWKeCzHBFkwyE3qCuGWBSljhfZZ5iIFYbjxTQiko7pBizlqslKP4HUEQ3ErwqvYF0iaMtiz6FtDXfd3XPXrxi1+8xJhZ9qzYu7Awj2HGhCuokoeGvoQ0w4S3jK4WgYUd7Bzkiv4tfLEu3i8BSslrdybwtZ1Ee2V4t/j39TOaJRgS5ObEH89Q1a+Sr65h/JT5zbP0TM9KeG0xAoKAeTrt66Uk5TOgW8jFLpqUVYsePuNR8fof+IEfWEpo6oe+TUSh7FVz4Rn2KZublH1z2P/zABnfNe5pCEy4u7g63rY+ne1sjUoQnMI6JKx28FKKXHsUjr7qp/wGnpAtVtZn3ngGweQTvPXmN7/50dd//dc/Pk7zGH6/j9cYn7AQAy15aC7xN4PGXLS+5u/QKfxoXbZtyO8ZhCBwRpH20RZNtcthwIeMQWgTFMU8hE5kFGe0R7OM0ZJB0V8Slmfgn/jU9cfI42PmIgOxkqxo5JnF4I9p4xrXPO0UcxM2lXOWuokNqkN4ipHV17mxIAxCrElxvdq/SgnaHnFI+SX89EE8B1Oqu817CxbxG/jmVa961ZI0s1Uxs2qV3iQ0eXJzn+Q1GOTcNotvgS1L+kJHngjl7DtCwfaX9mSiF49L1mgCoUVbVu5cmMGwwfwEs+fugkGnsmsvJlhcXwgi71UXwxs8tJ59KSt90lSfwaj6HDLj95nwtW8OpteBVmBFcCUjh/LJa80r2CdsPNu4QYnvec97FgUIEo7frZ9ZG5tnISxByYGsCf0Qp6D3SfugavQ2f3nPM6TgWdYCenu2LF4JkpQyGL0Yd21V9SwPLhqhpfgoz01OA7hVjJuH3NrXx9neNCZqR194TrZNev6T/EIzhnFV14zFLgPIQ4bxn/tzf+6x8wCFsD7JqYkgoanEyMKBZGLV2njLcl3wGnpB9OI3+Rz4xbv5MD8Z4RPFWmew6xvDjAGhSA2UpPV4qbBS8LUxeZYdM6p97ZMft8UHTxvF3GIzuYRdEHLvfs8T8Y7w4BhQsP2W7jEp9lYmVNxDQPA8QHrHwM5TWFI09sLxKBIKCVyWKKisGHbJK+uJr695hDLFCV1ZtBZQ1uMW7+oc5krIJ8zyIj2/rTXRICjZGBTrIBwpWosYjcHX88CAsuOzpLPMp0WdcTWt55J0EvT1KSEejdBc0ol5LxOcEuY18M69z6P0UvjBcJei8Rq+JhBmwZLGG88GCaLZ9PL9D47lmQgTgKkp6LmdKQ8oRdScaBsN7aXHg4S0mGowesZInq//eZ347vM///MXqDJDa/LTOnM7RT23tlUvwH2ut7YYAxLJJAOKGQdNt5an8pzKX7+MWSY3b0e8U7/8MUy6b87hNNon/B2/oREY9a1vfetilHeC1znr5i7vNS55GNZfYzfvoGwvChsf+c3ckIeFLOKDlKw1y4hOLoH8wc/kmy12FK41JKkr3ktm8Ep51Qwle+MVrMFThV6S4fFcckQfJBwKpVDSMvrniX/TcG6t30Tv5Es8bb2QDejDWdK/8mLuat6eeMUcoyFy0HTQpHfCvmQuxA7+ZO1RjDKby+I1Ic7X5bFNgSbO+JrXvGZTsYBgZ0ymfrX4XlnhfstDApUp/aYPuxK4jKE9hrxlxf4peovhLpJSplKZiqMQQDFwSqL4L7ry5DoKMMh0ZsROTyjFkmIs/IAWcy7Nkf+b13ghDxDsaVuGP54gz9j1KYa20fWc21qEGRDB14yClMJUGgmmrHdCLw+bh+PgCLT1Ci1YjyEjJQ/T+Ckd3oc99yXfJdwmrdEH8qOf9vW/9KUvXZT/TAxK4bX+MtA8x5jqF8HaHFsHnTTFKCgrP4U7QwbxW/Sp2AgFwVtn8ElmS5hPo+RQKAOtKipSGMOY9Y/gN17rDFrwJL/QjtEC2Ygm5p1BZNzoJ7bqN9sNp7c7+dK8+B/CJY6cwizUxzgyL9b3W97ylqcc8hH9ksn+h24w9KASkEryQZvmcFfiVaiKexUxsd1O8t88SGbmDe2bs2jQYSWgct9BgNTHlnE+QzF3MfdPC8VsMvOMETHPOOUac+VxUMpivLZ7pAzdb9H/8A//8AJB9/I765FHwts69hUDEjYsUgqVciqeVR8lMb3uda9brEBQ6voVPO57jEioOnBeu3eRiU0oS5LxJ3ZUNisvmMVpgfvs9xQQehdjMp7ma3q0a7gz63l6Os0fwVmSlIVJiIJis9Z5AmKSVWdK6K496pTgoRDFsXN+7HWEDk+BUih7OF6dAixe5mWAIglEwo+BRqigQ8Vtqsq1SzHzYKAEjBNxQX/gxjVcnkI0R5ANz8H3tthQyOiXJzEhyBRqnr33PNHapIgpYEYSo8C7dRU61XUzRJHB0WlQ8jWsIYiRNZUBHe3QkyFx6DWRD/0qfIEmoFJeOxjd//pH8D/JL/MmU75SqsYibIEnjK+kQN8L3wgfeJXJb5sho7ajN61toSnzjLdA/jxOCh7c7fVjP/ZjexXzlIHNhXt53OBwvA4FWb9CeVoXZCGjwPZUxoQ+xos3zRd64Clrh/x1jz590zd903J+QfkPxxh21+KLJ1IxN5m9z32JPmepJxxS2oiPkUDWPGCw3fpl4RPqlUIM+rPnTnLYTJQ5NCnTysfInstqnVaoz9oUN7b9CYy3TpQhdEF0YGwZ3RRPwu9QHyZzBSmt4cauCa6aGZjoICZUYQLC0QLveDxQNKWb0kuR6leCOiRjGkx5ZvUl5ZlVngLXDiiRArb4GEcEsEQjApMgBb253uLWLxYw5RN8e4hGl4KoDwmD6KvvjIZiyvVz0of3ADL8nM/5nGVcaE4gzthtxovn5vFm4KArxUdwgRWFZPBW3t96zqOBZ6i7LnwjHth+1V1Caj7fnDA4mmv9NEYQuQxbyWSe3zY3fSYYZ8Z1/KLdynOC6dGBsccb26V4S+xMYO+Cp1P8FAgvmMeoT+jS0Yfe9b81Hy/ftuF2iF+3/o6vGDPWcWOyjihn8yRu3CEi4GJ0SYZK6iKzzKVtntYWgwhiY77Nn90r1qhnmCe0llk9kY91n3fxk/bMMW8cKogHzXfzEX8kW1pPFDRDj1OF18mFtcHX8/SJUrZOCgWGSOFVcnaiVltpfanrn0jFPAUuIu7yroLUpuD3HSHxFV/xFYunMi3hlCWm401LAAiGszDFvGRoUwJbN8BjCm3ZO+pwhGo+Z5nFCBbLy1/+8mVhYLasP0KagHUSFQMh+O0mxp8MEgMn+Huu/0vkKJPXwuIplajBC87C9by5pawFchMzuidjaV6Xtx803cIBpRGakk8ITR648RLo0Z7C8GdefG9BoRGvgKGAjrzD21C4xy7ENXwtrjyrlvH2jYHwhNgQSryGSfP1s1oH6FsohOFZ8QYhFHweQjH5pSQ6dNcP6IfDOWT6WwPmfO5pns+enrU5KDShrcpberZQgrnxPvtaW8HUntX4weaUsfHrE0Mrg3IaJbM/Kc6Mk7xcfIPODAIhKp4dT9h3rpke2LHz+CReZ70zrCUHtiYYIeK1KSqyyXyjjXh/xg5HhceMr9BOTgZDHIqChilm6zAom8JD72Pl06Rpc63PFOjf/Jt/c+EHvJCSzgArbDHRQ4mDCjgxIowl/ZCOsMbICAbGdAKgUXh1H8/f9rw/kYo5IjfxFvh6L+baIisT2ESbPJNa+cDp3bkP00mZD07xPAworqFeMqW5BUbWPxNOeNpLyDMWf9WHCa+mxOx19iyKiCXKg5EsIebFmEjBrrMYb7JK2w5gTJgcVMkLo3jbf8harQjHRCXq4xSo0ewQ3JPwS3mwvC1cC5mVSxFbJKxyYwPnmx/vFibBQGiz5H2vnRnjIvQJDAKdYmY48JYJ4/ukmNvri2+qJkfpiK0RmLxiCTr4wmt6vhlD6/kt5gbKZ8jYpmLsPMJ4I28jBVob2pe1zCMCV0N0eMsJPe+74nzdH+TsOZQxQwgETHDjXQiHOfHczo/OQKgNawLvmU9wqr6gRdXYXDfX+DqprXZai9alPjBM/DHsoEsdDdq6mR7xoTV02wL5nOftW4sUqHUvW38iUZLtqk/O2yUL/G6t+XMfhW5tQlrIIwodikKRu7bvrWs1H/AMmksuO0Uxx38lC1rDwij4UwwY1E12mcsMtQlfm0+y2jY/fOi97HJKmUGKHydqqC0OE8frJp4/Z2623vtEKuYC/FPoTGgumBTBfWbtERg8EUxjIjEqZqpIfduWtEMwSIxxxnLtuodAdVIOuKR0fb8fA3XlkWMMAlgBEkw/veYJv2AeApewpUDFPyRr9Fz35SHkeUzInlCUGETQe45F15F4xkcB7zrObMJFE4nAWMV4U9RZtxkU/s8TYfQQzpRpW154v+bOb5QwJUKxus/iByMxIAha80Jw+5/Xhw7efUcBEw4WEYVAERHovGhzzRPQ/l0o5tCFIMM8XkaPcfsTDiDECEoeMkEzIbsJEWfxT6MIDSkhW1VAhoQg5VNoJqs/pKI2Qk7wBaiQsDMn+GEap/PzNIIbW8KveYFCJeRBosbC+wimLkzResV3qoIxUqEzDEX8ujYA9aM4+ERd8D7+8C5GSPhSGvjMOrd25vaufXwwldRacM6+FG6aa+MmQdsamPDpNHh83jWvM8QV/0xl2/rSvrH76yQ713cCmOtmmC65YMuS9RTiRvky6PzOSLT+zIU1FP0oM20zfq1n10LTwN++9xxIBB4m18xT+5tPVczTcIoXtSUvQ/zZzhmIpj6HxETP6exYI9BHZwkIg1kXeCNFHl8Ys9g62uxDZbYq1nOvfyIVc3V5I2wLJ4bP2kp5Ef4KIGCg4AvvFB7hMgt9xPyEp8nMg/Q9puPdYUAeXwtwS3Z00CHvRMyZ5VlxiLnXOYHUGD3P4hDP4QkUHzFGDErpKuBRIQ+GR4ozr2Bag8d4um1jyNvSF8xNcfrTrgVsPiSGUJCV1eOxZJV6J4x5hZXtM1cWNYHeaVJoXUnOtk4RvDxr86TPFAlhbizuo7Al8EAUKJiqGWW8nbtAtt6PJ/QdTcyNzxa++ZEZqzAM3tK/rt01Fxlg8bT20IsS/qf/9J8uZVh5AhlL0/PTXl52ygePQB9sDySgS+LS/j5PNKTI79ovpEOIobskLuvB2CAc+NNzGUgMsvaTa8fcEt6yqF/ykpcs8GgJa37f14cUcHA5vvNMcKtcEM9kMGeknqoMdinmDBlGIFTg2HUe2tHabX4LjQXdT+XKMEEf60Ooi3zA6z7ja/NHSVbVrgIvM0Zff9c5JDkozWEFdBiJcjT8T74UP0YL47XmKDcGD6XsWfpMZuUM+M2aw9v6by1ShtVX2Lp+brp+8jVHw44WXrT5aaeA+Z+fW4eMN7twICqM9hS65zniUfhyl6Nyyf5vaeuJVcx5qi2CmG/GUxGCV/zKV75y2RZlkvJu3c+yZ4VhwuDFJt/7137t1y77GPNAgswkasneCwY6dsFm/cXUnm3LC0HFAk1xZtFN5pnjC5JLCEWDXRZ9lnce77HMkVD2DMqxY/F4ZmWxgot59bwUCzHhmJCtf9oijEBSrG2fE1ba4/WWQZ3hYm7M1VxEhBfIs2Qzz6UgKD7GkjYsQPPc9qBjx3up64ydMIVUmFNeCPiNZ6zfKdDmcN82J/1HU4rYnusUIS9nKuFoHO2NI37FX2BiEDFh6nPe6/Tq9inFnmN98KwYthQi4SaeyCsmvCkRiAXDgRGVUUSJQGs8HzqADgxG/BA/50nu81SKmaMBPmH46csskzs930sp5mLs+mv8M165i1emcUWBCsPg14rk4An/e/cHIaJQKqRjDuKFwgTRxDqYc9Sz5rijaX1bowSubWthtC9Rr8S9QoKhBZ6Lzv6SAebWvKa08QClLiyiPbHdzmG+1Fw0Jv2KDvExvpOPIKPbenNNKIL+z2Q+RoOtqTLGK6BjrpwcJ4494fFLyYNT27nXinlCcPNzCtLET2s+CxyBMZt3R8454aZs1Jglz9g1rFSMFqzdZFpI9rXJQHRfyTqUBWiZsqfQt8ap5sIirFl/Mr5B7SW7zAWWwg0W3bf4JhNMpdiibUHWXkq7791jkfF2KQQeMO/cd8YZFFvC1rqPeXdBUf6fxoUFQ1HxBBIc3hk4rG7WOVpOoRJ8ahsGb1ob2tcX6IE5Y60Tcrbj6G/9OHVRzPt6fmMJcVmP3QKv5CMjgeDlQSQkMspm3zLoZhKL9tFf8hRInqfCKJp7aZu3lGvKrWxkz5WXYI8oYdXBIQncaazVH8+dCsD/DB1xOrWyecnmx/eMJnFpHnOFUfAtIUkxG5c9xuBGCA6DLBQruDYEahqc+tIYoFwSHiEDIUQlRK4RhumZrhXSFh4IYXOPdcmwMT60X6/x1pR7OjoUfzLIrGc072CVYptr5ZpMm+uluZlztPa859pufSXPGm/Q/3rNh4Kl1Htv3VU6eMqcyRs5Ab5DF7KwXST4hQdNbuADxpTw23RckteTD1obefrRZZ8B1PxHF30mH6BmEKFi0FNnTOfF+uI9MzIZjuS4XI+JIm3hm2tce+8V8xSIJiTYmlCKmRA0oRKTs7QRnLdM6e565V37zeJiGQfzxCyEm9KXvLLJEBhOrIMy2OIxz35oL2bwLgHjFa94xeJVtkczy33Gj29ihBZRC7sFq4/+ErhBo+2DmAzfAAAgAElEQVRb5IVYSJKxetb0zM8RePVXexYRRUpwrT38vHLWefA3ownt27ajLXMLLuO580hspwlC25KUd8yC0scymGd8v7KhYHXWNuONIE9xx6trJZLyycM1JxQOKJi3z6IXFiD0PK8529XXBD268lp55WLHioFQBkGlu/ow25tlYX3GA/ohARJdu5+RURhDWAINXGuOzJdrKWMIUPuep5ezHsOkgeeig/CRGsmMrqqwef6E9o+Zt1OumQYSQU9uMAAZInm0xiwUYd4Zmd7RPjg+hd37Idqf0s9Qv5RuazPDK5mZDJtyK8NnJk6tHZzp6YbuTW/S7ynR6bV3nzXeZzKVjORJQzwY4Dxwc9v8tmYmmnlM3k60KyTkf/IA0klu40sGYcbIHDPZAcWB/KgjkQG+Dz06ZZ7OuefeK+ZgnRRuCjiLMMbAnBMKZmmDm9cW2yTWZGSCrFjShLUtStaVyZ6JFixFyuFLv/RLF0F6ykvfY+IWj4UvuYn3QUGLC4rhhQbsW+jrxUegEPZBzz4Tov7ElXhic0tWscpi22uv+hKwVIaQMUpAytjpWc1Hz5rzk/Cx0C1uMLbvKEML0JiuccpWsLs+i4uKn7KyO9fZ86P92pKfkP3kjwp+QCVAaviI0Fqf/Z1XsUYRaguig08YOuLG6wpYKYtDykH7+ETSjpg/T73DCfxG2PEEecX6zJu1LngZPGLhBV6i98p0TnRnzuOkg/kyftvjqotd8taEUzNyTjWAj12bCXj8BIo2buOyr9YfwwfPtp0smTPDEz0rmu8b++zTNHr3zdW8JqMtBem3mVMxkbAUag5AqF8G++TdtWe+i249E62SGXmmIQ4ZJWuZoS8dG8lrLfubjPYZMjcdi2PnLeOvMZHj1qkESzkN5mwaFvqHl/AeeQL9WSvvY599revunWKezBETmPDiIXlSrouYWYYlKYl9SrLhDdbGLgLORZDFZFGaLMIz79wiBWmLY7QtKyXDALAvumMctxxKkcCJkSV5+ON5GIvn6g/rvX3FYjm8TVBbC9JC7WxaXi+mF+ch6FmnFoNr1hB0xk60ifaX8I4P0ZuRA9Km5Coa0XxM+DvhlycHJpvJPo3hWMOhxZtXMXkggRYCQxFBMcRnwdMWOGE9C6rUTsJJP4p/mcOgQd8z4Cg9EJo5ggx0Fu56Dqrolbfod8/QtvnH37xTvMFwCype032ODw/MBEBrCa/bGy+hjLHmf89pHJ5H4aMJnseboGW0kDTjqEc8us5ozaDOq2uN+t64bQn0TG0xGvXNszJ0hDf0da6nrXzZXMdDIUF5361h74Q5w0IyEaPLPJd0VdW69fPXnuVaJsUTKedpuM179cf6xQto4c/40anv/QYq5hB4p1hK5kLbZN80DBpfSjn0zXrrxCihDsaHMXJOOvrS2P0/aZS8MY7Jb62beHQa9YVbdhko7jMeyISxWh+QErsNyLGZ5Bu9eg8xja8yCshMfUM//We4vuxlL1uUdKWNp9xFtzmWQ0bstRTxXP8LPf/PVm6/cs+mcmhxI3rbZ4JQYpiZNFIhCtucxDiaxGNgkX2wdpmIFKJ4G6/Jy2QGxdkDp542hbFFMWsnr8pCwVRtfJ9e42RujFP8fFqsk6F8jnb3bHofc08LlQKiXChp45+KLcFDGbCqCanGduq4poDI0vZMizh4mgfK0qaUO593ztV6CWSBr5Ug4858OhkH74D08A3BmpLdl5+gLXyfENQ3RoxkQdC5duYWq2OWZR4nHtUvdaorBZunkvJKqZkfSVuMXXuO2xbDMECzWYlr0jYv33ftfGAsKpJju2HhilCB+q8flL5+ZCAfM7Zd18yYcbSyZtDOvPL4hSBs3cpA1O+8wankdrU/Ubs81owARjA6+95nc44OjB/oDsMM8oCudlj4rfnJu3N/cilZM/m+tXCIPtMwmI5PRi3DDhowcxFcV9GXFKj5h5yYn07rQktKvXPUc3BybDLojkEC4j00QyeJZRwfaBJeQMPoTMl2qFDjsEb8rYuHGL/aFLaoGkNhiUN0u4vfM+bupWJOqeSNZB01cWWdJtwioMkUU7a3s2v9dkxy1mRejBasjRkSUjwUp0WB62a8gjWrjrWU+33x7H0epOeWxclSLqY4F1Ae2Gwjr24tPLJW+/6Ysd8FA7aY6i86ZMlniOh73kHXB7Wfo5i15VkWKeHM6ALJ2oPL8EoZpzTwo8/TeJs0i18pG5AcqF3MniIG/VZhrjlLCd4kWAk8gpIXx0AQCwP/573dZCjsm08KQBxbVaZ3vvOdSzhgerZ5yt6rdQ5tobx4kWgEOYAkUNgE47oaU88uhwFcKG7suQTsLDebl7fmWWOvlnjbAk/h0ZSEtWxeKRVjaG+/BD30TOmt19ehZ7a20AgMO8NGFK717B2axoPzFx9NGdf4p9E5v5uog8/7HI19a2IaP8k518bPebxoYV47mtP4iwfXxrwWqoBPqpHAuIaeoKs/eTvWUkbmTfQMbaj9iZoxzPGRP2vLu50BJUTqG6OeXmC8t4WsNaItv5HR8oIYEfcllrzLyL83HvP0goOep5eYFWsQManrLGBCzzur1NYmhUEM7BQILKtuwtpZ+56LYWVPO0t57pXLolSr9Tu+4zuWZ98U75xGACEXfL0vcWktuNBhLlz/T0W+hpYOCZj78PuE+WZ/pqU9hUM0WAu1ySNBVtM7p+TEYyk8CpkCQP91Kb7ouYbVo3W5DoQyJWwLnS1NeUB4YJ+gTFBlPKb4MzTBixUAYTxQ0BMZWhtjk16PLe5nPetxqENfFPq3LUTWbAdn1L88tNAK6wl9/I9ejnlEq5mxG6IzPcwgYsYU45hHDp4kWLt+zld9nfzsc0hBlciCteexq7ugVDQKTWIwMCIcLQiKR0dz7fvp2c+1U5gqJZEcmOvPONo+JjeAkoDmMMqMO7g5A3LO1eSlvp9rdfZlvSbXdNuyZmf/15/Xa23Ns/v6t6tN9KL0KPjOVoeGgZMlaHpvTlOa8UC8V39a63PNuxbvlmciLAR9QXPPxSclt7W2up8n/aY3vWkJVQRpb6HhNa+dxnHG2b3wmNtzmmfqf8Sj3BDchEzPLwgSsapQI06mXGYQyjmJIlmS+sPywwwJWsz3nd/5nUt8Td+CszCCz4QfyCTvd9eEHoKvr8kET2rba+s+Ay0hm3KrWIu58Ucg28ZEQNvHS2B0zz4POM/R70GyeAFPCVdQNJKVeIE8YsqYsJgez010Lls6JUJoEFj6Car2nmc1lcOxc4dXKRl8K7Hqu77ru5Z+rrdc1R7hyRiQOevlf6VrecrVdZ/PRuuKMZTtb92hg7ixrGr837bDrahNRshNsHbznAAuHgz1kJErHwSy1frcVwO531PGGQnaZXQR+pQu9IPnbx81VAQtJ+pz6d0Ax871fb4uHs7ww/cy2hl7wkXmiqdLkVfIKcNslyHqt4kWmDu8bi2S/+aHh89Zm6EFfCQc45q5W+C+0K4xtZ984av7EGPG1GtvKMhGJ2f6fRAMoiK4SbC142u+5msWoZmHdUxced/ETI82WLsYkPYJUUcv2pZSPKp+6Y99n46UbE/t2irV/oSvS8o6FZ69Lwx2iX5MD3l6EMUGeTwWMXiSMCZ8fS5GzyvyB0YTNxQPqwrWeh4SrOt+5yXgIVY4r08iIRitSkd4zXMIALyRh7QLFl23rz/6y4Ow5YYi7mSekKLGnlBb02UXrTMoJMiJzUmwStlqZ+7ln7xmHJ4v85hSZsSIOc7Q0RoCjUbipJJ1wOOS2qrQloe8NqqP4ZHp0Vr75pfQmrC2782tpEh01H+0rL59Hljrcp+gb76sQQYXpcsDNufWr3nHA535u0ZoQmXOcQSOocmTeE3ra85ncX90t37B4DKo8R7j0J/Pnd2eodR6iG8zpPBoc4s/JI9BrqAZkKwKFNmh43CLnLo1anKX9C2kU87Q4jDcpWJucRNueckpVN/N1P65x5BVVKEJcIZN5az1GVs4V8lNWNtnCRKeW6YghfDd3/3di2WeVx9EielY1l/1VV/1OAltenidcCL29KQt6BZB48lTXSu9CV1OI2ttgE04NaNHnArED62wcAlgn80Bowi9eWz4w5/PKe61F5wgnZDZjM/nFTd3rjMvtg5J2jKPvD8ecQaksUqCqujK5LUZgklZh5C4j8EgsUy1IvFt7RQWSQiteXefsTIhMOuFYHrDG96wVDayLW5m4U8hOeFJnyEJ0CbQbydaub6M1byYPHw00759zjxksdV1mcPJD1vXYhnp3We+2ivMMxeKcBymPcT4gmExEZU1L94kdPO6FEuhkI1L7F3MmMdsjhkb/mYxoclX2p8o2/TCMwxaA3mRoQj+f9JkwDlKbBcvZ9xQ1Iww69+WUbAzozVZn0zp+SmykNbmhIzurAF13PEMx4233OsYQ/eccR5z71wXrVW8voR270ox1ynEjjEL0s84QUJ0Cq+2VnQwRdmuE6o7hjDHXDMX3IS1fc+bJghTzlMAGwvrm9Fg0RcfMx7wjYVfTO6YftzlNTFxQqaFkBU7lbPfeITFAM2bz8aNXm0BowAki0jKsRBBzr6jkBNWKdv4wfPyhLZYvNPKzkPST4vBvEgYIZApYwuZl1RG7CzwkVHBKPM9Zb02NKrxHU3agiJ5StxYEhc6pOz2ee3HzLcFrP88OpXCQNaFUHYpw+YhKJ3Rgz9Bv5AIY/KeEVMbGctlFf/Ij/zIggpRXFt3IRwzLvOeIY5f9AmfOJJSUQjGTHyQQXVMu7uuQT/PMtaZ0Jnxon3P6mAHYy6RizOAb8orwEd+cy1aVoylErHxSm2mkK5Bw1PpcR/uQ5ecMoqafGXMQkfKyWmuykeYinau92QGHp465K7HOddnDqX3ZN6dKeasn7YjzUQYncPUCbn14sPIIDT700AXJVVcI86zD9ZOcLPW/87f+TtLgszcyxmEZyETYqqQ6TNBDTK7r/D1LgbPk/NuwVgc/YlBEp7G5TuejcXk3ff97zcQdN7uVLBTCLZggmXXiqtrtyrmeITiYjDZrgLyBU/7zMhrTkMD8hrj1TKli99OuLZ+u5flT4jIouaF8uwYIRP1yajZVyt7n+Bo/NaLLGcHOTAm7PucsOwuxWw9UXK8ESc7EXYl4zTWQjMZFpQ/mqmTDRoHW4u5ZqRdQ6mgCUhdAhr6gajBndVPnzxxrmLOOE5JTochDyxei2fn3IRauJYsa58xGqEbz63P1ZumvBnm/XYNGt614jnn+Rn+0xHAEwxi/IAXlD9l7DLop6Mwn5sMydCce/jP6d8l7p3reK61eO7OFXOZkJia4ChhRMfXhGzRsFCdLEIg7UtoOUS8FnSLLSFLMK0XSsoqjxikWkKY7yglp1eBrimjrLnejQlMJlNV7Ln6wnNRxzyH+j0Vknuy9hP0WeP+T8H0OeuxyU/hdo/+Up7Gx8ho20PbIMCw1QD2u2cHKfvciTe7lOYhOLNFmHKZim7eO733fbSaW+Xwla0VUAtKRRIUAVm2fQtk/dzoGfTof5A6Q8u9fV+/zbGYtkIG/ggMgmRtpcdnZXX3/3zOelwzX8L1nm/vfMZevzcW8wCFqFCN9syPWOzLX/7yJUNW33w3wz+thbxI6wAsrrgOxb+uTBaNDvHs/F3fgvit7yDd4u6UsS0tnURWKdbmZyaG1e5N8ePHgu5Zz3rcjfg9vur/iX6s11l8t4+355pqXTUfrW309Jf33fnj9nczEsVExbU7OGIaoXOeJj3rV7Jky1zc9bUZWI1h8vmct+LSjHt8Yv2Ss5ATYRjbWCWTkV1TSU/DublOhm8x7K9Bp4lGzc8lPd+ZYq4zM3suC6cY01TMXY+xX/Oa1ywHU5iwee7oFgKawGBWgsr/EmUwx6Ha2q4N1u5UJc9W+MGhGXlHCeW8Z30Hk+q/TMIO7G67WIy0bxxrT2EKgxREDDch5KDBtjJQrtWgrrJYUDIEgDBsG4z3lEiw/oT8WlS9b5mDrp2KN882I2IaGDN7sWxgNM3rYaQpLsAbYbwJcUBUxEA9IyQmOueBxXe7EgYnfK0vvJ0MErQiHFQGIxwo5uhQwtk0JCbPa6NCI2WkRt81DTtbumMy8RgPv7ju+vqMRe26BmTtHHGHpHS+boUfjDnUqpASwae4w6tf/eqlgpx+XcqrS3AmIKMhiNpB9Z1RnlE5k+Hi7WlMZXTs4rsZtshYWyuDaSj5rTnYZ0juMwKO4fvZ5toQj/f0B/1tw4KIeKe0fYe/yRtGYDk5rVN9v9QcHTOWS1yDlhRR8m8X4tl84eW2lSYjWpt4mTyGAkEu8TvFXSGRaO2+UKv7oJgzCFt/5vaxPL3rGLMJTiA0CRFybgKvkg7rXZUtQo3y4cGc8vIsE62koP3PJso2D54I73bXaxesLc5I+PkNo0lWELdzCH2ZhcYzF54J4MGBBtUmlgFqfMcoZoxcRZ6yk4ONCTlWJcUqXuv34ORK7JXNnLeTkJtKsu/WnvW0Orv+HIW8fqbxtxc0z5SSzYPgsYnj5fF2HJ3v/NZJQNO7ipemVd440Ivnrz1CbRf9J3xtjmQrg6mrYw5WQ/MMowyK+GHt4eODDtzA37JQJYFNS3/NewwL+5DtPpBxOuPfuxRIhhjIGlzNg4d2zL5Mo7c4OmXPmMGTYtag2ITmpRKU9M26RTf9s17QkgdvHXW+t8/WSXFs/TC/edspWm3tK0KCNhlR2kuplixojqyl9rUy1PxVaKOKVhW+cd2USecI9+Yt2WBuyqUw1ioL+l7fGZpCYaqGMZb8+R8veVkDFbI5RR7exT3oSU5Zx7tO8Moo31U8ZKIJ02Azt/gJ8uKPw+F3vCy0RIGbw3MMrEvRKh4gd0oYvHPFPAdXx+poQi1l5n9M9xM/8RMLXDwPmTikzNZEDHp1n8zYb//2b1+gW5NF8IKSxIxle5eFOj0d7SVEvbu3jN0UGUYCbdsL6nOWkfEU3NcOwSMDWPlQQlcczwIjCNxXCUTZhGDUajUTYpRuXnEQcoJjel5rxVD/93kEa4XddVMBT4aai2IKqhmPS2lhvg7X6GD2yhLyRAkZC6hqXxlj3t2b975WtruMi8a5nv857kozojdPe22IGE8H2DO0eMZiW9U0b7zxaYblTOory5Iyhcgozcnwwx/iZdpPSSak8wTwnwpdEBax8EIgjWnCutNoZKhZJ45+xDtdl1KLH+MTPAiBkoVuDjrKb+3VXUIgVeITLwfpVg9a//yZ7z6HqGVsrUMOBHtbqVrDzX1xybzN5idvPZ7u/+LrGTb9X9nJzk/ubGXGDnRMH8iBitWkUB4L2d+D0ac8a31k+DQnU75M43fyrXvMkbWEdkI1wjS/+Iu/uHjXVVebhvR8TnS4lLF1Kl/oB+fFGsB3rW/toT0aVWWOXNjFj/scgxwva9V9kBinBEoibF5P7fc17sMbzdHCA3flMc/BTetxErq4iu8w3ld+5VcuWZDnZF93ShOrSt1esIfnlwWoX6BshULUEfa8PIppBCTU9G1ma7f4WNvqs+qzOEiZuJ41vZWu956HgJmqPTs9MZ+DcfIGLskkxalSDHNepkJviwm6JEiDW4ubWWg8MJa+P4rYd4RkCIPneVZx8hTTLkj5kuOsLc/2R6Dqg3lv3yyI3/wJTyjjWDLiWin6P4WXMDEuPKo9/GNPsSQtCtAeYaeVEeqePZO/2jboWVCU7//+71881+kpTjokYOIR42BAqEynUpd+tdWkfmY0uMf8qFgm74HgmwbFNeidwmrOjXeXsD3G2G79udb6KwTVlja/ZzQz9M7hqWRS/NJ8F3JrTTLwGEWMDvMrgY0i0D+oSB65+8ompnhyTDIIMo6P8ercO/nPGoPGUdK2+kFb2vaF3q21ayTKbuUZdEVT9GDsQD6SKdraBV8fwxuzH7VvH7N1h9887xy0Y+s4j7l+7SjdO8U8B5HVDL5xvCJG6wzPYwa7vgYjELysJ4oXtJG3lYD0fxaneLAEG8KrTOop1FNWswiJ/pWhTAn5jedCwMsibO9t7eQB5E1PZZiCTAitDZhTmWsKw6xn/dGXMksrfUcpGIdxUa6dWe063i6LPSi5soR5t7W99mhTyGsDoD5sXXyn8MJUEuLEYFWwMg8TX4BaJ2yZECnmuaabPhN2Mr4VNwAJ+5PQY5yUvKQmsVTKsjlNQOsPg0WSlSx+6BCDxnPQepcC0xftQFe0j89UOCLso2VlNKdiNm889053qu3m/1R6HnNf2+iMq8SvFNEx93fNpP8sQoI//c8L6zzlaLGl/Xnt2iubnvY0lOOpxmNu8oLqEwVEcVPg+I7xQIn7873vOtXpmPWdMT3pgg/xFeMQ5A1tgQR6J9M6CvccY+VUWq7vax1UOMicoRmljGaz9vVWuWCeSipkrKg6liyaa/tSYzmnnXupmPcNiDKw0F74whcucG8CZD2IQwRJ+JlYzM8T4bmsPdfan9AixYS5HVABbg5WnYsm5rKoig+BRrNKtQeW/qzP+qwl/gz+6p4C/+tFnTDJSvd/cYgMgu6p3/VpMnDwbDSzGMV0eG8WAeFPmeiv7yhff+3B1D/PbX+xhUJwzAM31oKrZ61h9Pn/+rfGtHVu59wbf15r0GACPAGaMiMQ7SlWxACiQZDzONdeyjSGpoExP/M8ecW82yBnXopn87yFRsR5CeWpaBMO+obPITT2xfMcKjXb+OqHe7rPO49MjoRxUNAp4HjC8zImzN1b3/rWRSGD1UOCJg3Pof+hdTj59pLPqdxmRUistwqCHNOnU67ZBaGu+X5tcOxS8Oam8rGUEx5U+YrzgD8pE7wav7m+WHTv0wDuurVSd23lRckzVdrwrK2CGUitnYyJGRo4hUbH3lP/0YGBgk/NoXWQc3ZsW+vrtGNbrWJQ0/naB4Gf+pxL33cvPOZ9g6I0vu7rvm6BAU9N8tJ2Vrp3cd8OoZgHUWjf7yWC1KdgIkYCYQb2YyR0bJ2FkCJk5VG6PPwOM68dbWN8HrTMQcfmgbcIU4sozyaGWcfSioNlIVs8ZYR7D16uYAampjw7Zq7Tb7xXQrJSp1nYCZae3f8l7BRjM75d8P6lmXNreynmqZTRvaIElBjPmIEkVpyCS3ntWqyTFgkJgoMhgx9s2WONxz/BhZ4p8UpmM2Gbl2xMVY/TtrZs4ZLQKFM/XtqlNN2rHS+GhMRF25/aRlL/CwElpPUVtPk93/M9C88wNhlhxhOtttL6Pl2f4WGuKbXmZ3rk96m/N/Wl2g3mLv7kTMhHsCUI6lbdgEJerjOvyZB57/pZyQ/X4FnoidwCuQw+kxuVNsYbt5XpnXfL6BcCEMopS/mcWDhnibxmtN2nAiOH+PFeK2aewOtf//plgs7JOLRgMa8sPdA0LwYjEHIYFSPyiFlrtr1g+KzdFDNGJvj1Q5IWa9OfGKLfMBTF5fcyfVmoeQl5ajOpQeGJsgdZyCxji4ui1CeeLSXaoena813nt/otKNn3vK62VKBZAitvMQg54d+YpnfVuKfANu4KipQ9rk+74NVDDHfN30MXLEKwNJpWg3fWzZ4eRvMTgrHuX8qYoJhbWEDUDJ+JxkQnyv+LvuiLlnhvBlXbp7Qf6kKhK6zffvz28LunAjTr/vC6nTcOtsY7M2FpKua8cDxq/7y+6x9+xaf4rHNrL+m9XnN+97WdYctYwf9ojX6M5yftlTI2J6E3PpfBjB/JL8qZYQ+Jw+NyChie5naibLsU80SB+p0CBnFXY5qRyGA8dTvqVrrj3XaMkH2cnJL2tkLYPRv9OGKSJ+9LJvaxdLl3ijkITx1e3kCJXucIj2JQCu1L5OmV0H3d6163HEqBOexp9lmc0cSWFeq3IDN9wbAEswIMb3nLWxaFLNEiuFnCBwVaKc6s9+Kqk3k6GYd15zNlSwlX2q89uyUHlTSTEp2TfRN8nBI6lpa1xeigEHhZXh1IXiblJRV0SjPhUtsTOnbNzHA1L4QUj4IyFB8muCx0VvL0hGd7fZ5ohPFp20KGDNimJMfAZ4KCl5HQbC617zvzx5hk3FXsoN+mAYBvvu3bvu1x7sKuWF99CpExRgLYfZ/yKZ+yjGvGpyvUkyFJsOJj26sINnNYGVh9aisd5ZyHfaoAPFbYXPK6CdVSxDKjrZu8LEoa7azBPMpLPv9abU1+mWOkgMmctolCYTrmsO2TxsyjlsfAOITepdy1G0Q9c1eSBTOsEqoS/wt9QN5Cj+rjNPBPoUdIlXbKvjYmL7D+rmztQ7LL2FoXHC3ba6tTcUzM/pRxXOOee6eYMQXoWl3hlNq5A+fBKsrAeppxZcKMsuZ9lCmMeS1y201AhazTmBuzTKUexMJ44PWoISzJgrBr/ytheEzC2mRSz8i77fO5NNh6v/5g5ISecehT8Cev1O+U1YTHtj5nfX2e6/TmyyRNADFeLDrHxtkHK+GpOFz37/OAp3DJMPNu/quZDfa1x7w9onPsCYZgc/Sh5Jxu5CzuWWRkGl/F9qEteFGSl7ZK7FrTIU9Y+wwMeRaveMUrFg8pIyXl7d72++I9sWqGrTGhGXqtjyHVf8oaT5vDJw3WznBDA2sUWhRC1ZqZ2dqXkiXn8veW++MB4+gwjeRCxjJnoGz6iQQx3BirjDjb/CQ1WrMUoOvaatk6m8brTGgrS9qRipCXzhzHW6Fnpxp09XedfZ0C1Ud9xp/luhxSzNpMXjCQf+AHfmBZn8dkuG+Zm2tfe+8UM8H11V/91UvC1b4KXFuIYqJUhJFUYwFPqAhUYz+p7Nm5fSDlzbu21xl0KO4xK3nlZehLzEKpaxPzyiAHH07o+VC/pzJJUM72D91/yd/zqigFCmuNXPi9bUYU16W85gSudwaS7Ww8Re+ECy8AbEcxFxZoIRMQKasW/ZomeaCgO0lb4mqqg0naAlfbE1pWfjRg2BnjjPu27a4zlJ12NI+qmx4+3vKMH/7hH15ieeVLmON9irnsfZ6PHQmyrlpAHNcAACAASURBVOPLxjaFDY9GgZwyrbVNIWuHF5JRNY0Fn11DOWd8HBJ8l+Sxc9oy9l3Z17PNma29rwjJOX249r0pJvyYLJzz0+6PthklK6YcMe/asZYYjf4kO0IE28LlvpmlPFEl94cC+h4vya3wx4AVvz01Dq2fkC18zbBa50bg85mt3f72m+ieg+Ods8Qw0f81cnbtuTu3/XuhmE0s4pkcZxybbIQ9Z7/yTLayX1nWanAOBjDJzufkXRBiUzFnPXrH/CBKB9i/5CUvWSDdPOcYeL2txveEL0uPoMfAtqcQ/MaZQpnel2ftsjzr87kTfcz9CXzvlBFrtSShfXBrh1O0DxbdK5OZgNBeGaT6kTdu/C16NCUoxE15n8997nMXRYz+VWKasFxCaPYreprLEtuK15bNarsIlER1K0aTmCsvc3qM03swBha3cc6YLNq88pWvXFCV6k67r6pc0RsPywjlwfJuplezNrrKQ/BMCpNCllHKY8r4WI8Xz7zjHe9YIHTZ9SWW5SlTuEGYa6XbOD2LgGwngWed6gUdw2enXjOhyJQymbEvMTQj7UmCtSfvMUIpZN7prgSo5FOw9sxLaK6ngdjas57MuSp2VYZj/HatdievTDnXb/iaF8/5gBRCOWcBnNZT/F7/U5xr+Doka/JG95INZDBZhJdbA7uMyDxmhqwdCOURPUkw9jJP96HACJiJJfYlX/IlixKLgc6Bn/I4KFNVjVISGACT8GAI1aqI7dpw3yQnMGVH8rArccgKwxwTHp+MVbzPu7GI2YCEoAKEaFs6CBaMXuwnxV1cep8XE7Od462uPUv/B1+nbGdMe44v75ZXzThpz6HPKeIMpGDoKRQkq0AlSl6pVGJGSlDeTYK8Bd28lheAnoQ2xUR4mG+8ZXG7FnriGn1O2Oyic8LdGI0FXMqLpQgVqXHPzLg2bvRynWfKyq4a0y7jZo5NO/gQXP293/u9C595tc3D5wQcBWzXgl0C8hyqu60/GRJ5+YcU4ZMCa++Dr/fRNUPOfD8psHY8LzRTWdpdSqs5dX1Hi87z3Y8xrCp6pC27FChpDgw5xwGZcm3yYKhTihxPerb993IyoFDWXhD77Evy5tjiIRnxx8Larmc0yzSHCty3/cqH1mK/3wvFDFLkvcogNcmEZd7UsQNZX0fIEZwSd8pULHbieaBHArPv9lmkc2J9Zr1pFyQEJrGNwaLf9WpBTViacPE/QaofIHtM7bOYJq+KFzePhNvnSWddt1C20GqiAtNKL7u8jEhtrgVD1xtLB2Pwbtu2w0OxOFjyILTeK2/p/6DgaZ33OQOlRXlIMRe/lVXKI4ZSMHx65xmndIv9U2z47FACS0aZuTff8hEkmBlDdPBbRhKlLDQidMKL8OyU9SFhWdxafsX3fd/3PVb4M5asLUYsZfyDP/iDCwoTSqH9zi8Ovr5JqE/h7vN9h7X3wdf76Dq9JIIdbazz+wxrWxeU4hq+3jdGNMHblKz1VwLcoZAE3vUs/JQxi17akTxJxkGu5G/wrDMQ45mJwsyYNNRFGI/zAZmScxMc7t598PVNayOniuzFo5VA3ofiObdbQq9xPSjmLVrh9+pEIxrBxaMliHiVHULPWkxZHmKyHj1jK5hUdS+HwPe9dsBCkmgItWMqD8X4wYsYgyLNM+F5gbn9paBnzDNYMK82L7wxpYyKN/KYOkGGN09Rex7vleKuxjTF7nfXdpRcMdD2NYc8tCCmZ0cBtzhDF1ixYrfmhLC3SH3n2izcvLFOofLud9dX6q4iGC2MNYw0x65v07BYw2l5z1Npo1XbO37pl35pOQnJ9iXGBJrMAym0l6flWearAy/28VUwuN+DwJX0kxCIPhkr3qeAgoAIjShg07GgE1I8tETQzRx5Fpi8/ffRxLNkW+NfRmUGbAbMMfD1vj7cV1h78g56gDSNe2tdg4wbhiIlcJ+ytbfA1zfNXyVByYr/j703gZK1qu72dw93giuDCA5MgqgIDhFQMRJwQMQpalSEOEeNxvgXdTkvoxETx6UknyafOPBFjWMUZ2Kc4gQICAKKgjKIqMzjhTt2d/3X816edvNa1VXVXVVd3XVqrV7VVfUO593nnP3b+7f32Uegq+cWNDvfuZXfOY75j7xZ1gnzeOihh87GanU2nF+yE/YXOgjdRcgIkKSQidc0Z4Nz27FIub1cuxmtrU7ld3Qweh8j2ra1m3fD+Puiecyu5SQOQD1plzkgJCxGU/ZV3J2As9l4DBJKYP7bv/3brEfnoMMr5354qJ0sXHfAofTwvN1xx4HPdRksDAoGA/fF2kSBZ0/dAduJF5ipae7Dn8/WbBAxuPXKBONmFqgemUAtYOmhavnSRo0W25sp7zyhsjeXFUwdfOca/AKz9xf4+IwSBmixkgkFAMBnnHFGlYeAoWK7lFOzcaLs8eKRE9eai75G1oAA/cq+wGRbsy46F5/RkOLagATJY7A+0Ne2xVBGpxPfBBUSDlFmeHh6NDwra575XkDOSs1EoE7p61ZtGjZau1v6utVzDTOt3S19PVffAXoYH+iphRbo0HB3rsCKMTYp0EMyLPNJYx99kelu2ugcYT5ALROLhg382c9+NpuM2E0RGHVRndbm+vYvibrUvmDu8H3dKeh0Li72cYsGzHgUUH2vetWrZqklvSOECThLa2cPZS6BCV543QA+ShVFbSwYb5k9X1kKw6uTbEI63DWflqrMwEmbGZBShvyPV3bggQdWG9PzR/yGrGIr8ziI5nqWDKytjBIHar09AmQ+r053e4zAlj07J6Lty6Dsd5kB0BjIwNzNwOZZ6WvoV6xsANjt7YijknFsCVHXled7Zu+gmazoE8aE9GA7+pp+YinWi170oiruhgLiHOPl3NtlJCx7omjNpz71qQqgBWPGcKuM61ayseoTbSWXgdraKD6ocbwANnLxmtkQgR3CiMALnMtA6aRPHJswQyj5xS5C0i19PRdo+duw0drd0tdzPaNgypiVtenEAWl1TVkb5xvvGIFkdrMigbKh6DrGSzb8Nd4dj/SjqxMAaXQwNHc3wKxDoTNkzQfnHHOAGDf1DGS75quTOpkr/TxmoMDsujc6EM+CzdtRwAKklJ3vbumGwmuXCIWQtNjwcF75ylfOxgCleLHYXvrSl94uLb+ZcLN3a/EPi4e064w8EBiMpvuzxIcBw5pCkhLcjsz4pJ6RRohtyADoMXXgzJMmA2f2CpuBq4aQ52eAz5OgGdjxnTSuyWq5Hd4v91um+DFyiAPj+eIFA3B4hVD0JGUxVurA1szgyMZDbmemr6Hj3GGH4z1Obz8bKVjaMCpkQ9NHuYyfCW2cz/WI837sYx+rPACrduWCNJ2wPHk82V8qHsIEPIf7UedntX8AboB5ruzrdmO2/rvyWKxs7V7R162eO9PajDEYlEEXIcl6guxri4csBETz8+o5Y1hl9qvb6zcDNvUzcmTs4Xg8//nPr1bUoO+yse/5WZ/hICFzCjOxFSPGN7+7M1gneRHS2jhBZmtjSFN2ljbYxm7H/rAcP1BgZoBAr6B86UiSAxBwK8+VydINrY0SxYpjL2UzCukgFD0GADESK8vM1QHt6OtuO08rVuBj0pCJ7NIgQNvEG/dZ5phMEwt6ts0Yj4M4H5vBPP/fLNYrePibtHYGAe+hpykQe64VyvhMX9K/xr35H9ljHZPoBhjjAZuAo2Urjd2qFGW3Mu+EvrZMH8cSdsBLfvOb31xVTxLYZSW4P+MXBYohgQJgTbK1zvne2Ha3gNzs2bJCzNfLBlav6OtWspXWBvyhz/OY67Y/ujk+09du3Sgb0c115noujVJikoCV+Rq9uH4n1+gVfT2X8YEnjlFqBUKeuVtg7uRZ9KoxMFjpQl4PVLd70eckLD1pjXr0MctZMXLRE4C2obm57u28lNZGX6L3CSG2WiXTybMMyzEDB2Y6BOVHRRZjEHMtd+iG1iZ7kPiCSQp6R8Rb2NUJC22u7D87pR193W3nOYiysvV/BpbrYFG0sATQUAAF75aW9N0NGTiPPyYfA5E/ZJW9P8FaOsl2S/0IpK4N5J2J6zpvgAagxLABYPne/3lnElnTm9+t5U0SlrW7aRPtzIq9TqtrDGhEdNJH7fpA+hqjgbY0o6+NJTNeyLZmeZJb7jl2pOeQGcVjKPHHlowwKMiX3+kT1+F3Yu23a7tGmMfVmQA+95K+nku589ugaW3pa4xy+s5Er16MC54nG6iMTWTJOGeMDurVK/q6nfHBfWBeTIpstix0Ic+MvtFZcJkkOowlhezgxwoGll95DGPXQiLOMa7BEqvvfve71Q5+5JB0UqNbA47+I1kSNlRduJBnGoZzBwrMdAhJMtRyVfCdeBd0XCtaG9oCpcmggBpn3ajZwe64AiCT6Wp1mWaCXwh9PZ+OzHQ0g1ZQUh6CucCghS0Y+L0eFM9v/WTa49IuAMOCH9I7TFYACAqJl+uUcxtQghnABZwMnvyev1cO+dloJ4odI8PygRpinfR9N7Kt09coI5S6BopUtFnjKH5qT5PMQhutsZs9Qz15KGuK4aNAlEEGUO7dTYZpN8+V78Oz1Onrbq/V7fH0Z79p7V7R15nNqTNE2dBxftnXfO5n/9WNrX7Q18361bAInrO17ZvN2W7HRKt7qcsAS+Y8L4zeF77whZX3jo5Sr6jTOIY2oYcw9mFS//mf/7la+pj7zPCZxpVhJthHvG62yHQZZi+eZzGvMVBgRvAsjSJ7tduqXs1obQGICYi3zJplrDM6R+XJYCThi518eLWicur0NRSLsenF7KBO7p295Ex1NqNAkSNGjhsatCoe0sl9OznG9rjcysL73WYsd3KvVvR1Hif8T1zq0Y9+dLz2ta+tqC/OyxOafjfsgiH5rne9q1r2YYW6TtrSy2MGSV+3ane/ae2F0NetaP9O+iCDd7ceebfn9pu+nqvvGN/oRrO1Nao7kVE3xyAT5zo6Bg+WuVSnuaGedSa4fp0tg70AbEmqpB4BeCF4a+Q4Zyn2g+PlPO8kubabZ1qMYwcKzChl1oJSnrLbWIeeIlYYHS3tZAICiV144tnzZfCxzy1bOtrxreLZvaavB9mZ9QSNZgkbfMeEgdaCaoZ2Ns7WrULq5tkEFe+Pp25t317ftxl9rSzoX8YOCSos+SC+r4fM8xgK4H/GF7Q1ta2/+tWvVp4+42qxDDWfYRD0dau+lXVgDPUjW9uQx1z0dbNxrfdkuw3nZNam2TPVGSqOaTUeWzE7GQA68bb7TV/PBcz8ZjY6LFKuddDNfJ7rWGRuhTwrf9lnGl7E9NntibARNLdeteEtWT3mIOeQl/Ktb32rWipIkqUOHddFnhRDYQmsSyFzPLtXz7UY1xkoMEMDUoiDjOxOBnIzgdAhUCLEStyCj0pJJ5xwwu2C/ihRKBGSEXIxgnq8Tuur2+zrxeis+dzTiWGWJuu3MyU0n2vO9xwmDaEHlG99y8j50tp1+hrDizAJoGtsHRmwxpzcBjLikYXUZV5qRfug0ig+Q3KXCUG9NiA6lV82KgZNXzsv8jv/IyPLqprxa9+5XFHQM3fAcEAzYOValpRknawGuIVsYDc4hj+MJ2unIw8+WxzH8pLcy/5t5TnlPAqOYcwY7tEzM4HRJEaAjN8YtxaoYaywJMl63ZbWzc/psyMLvEaNYvWfxnGWc865cKz0YgxyL+TmOuecaDnf63NNwwcmsFrgpD6n6+OZeg+wpzhUAjLvdeOKPkDWLBkkh8glfIw3DGeWbEmhtzLeOp1zw3LcQIEZWpCtuCyFOV8hSGvTYUxCKA+WIuVsPBayA9gkErSqub2U6etOZMcgZZAjFyYjjAWWaL/p61Ztsz0oVyax7VlIwlSmr7mOtc+5Fwlz1OJmMwgyRZn0KHLL9Lm0STAnpsVSO3YHY2xIac9XaXXSR3PJSiXT7+zruTytOk2c+xDwBJiQKd4YSp8/jC/eTV7knexq/jDKYG14p38s6epSR2SdjaqspPM40SPmu5xYZHvp61bAbH8Kip5jDkL9e1kf2RSNQcaPxohJktZfZ2zDDJHHAVABLIAyzolAA/hb6c+NKrJRYzvM91jIePJcZGK2tvu+663O9/qZvq5vCNPsmvYp96X/8aBJ3GI9NOPCmvmca9uQGf+THPaa17ymGnc4XSy3Mgl2vu0fxvMGCsyA5DOe8YzZTbfnKxCtajqRXUTe+c533q7oOgOZsojse6vl2+xe0tfQL+6skxN75tu+YTmPiZ3pa2mghQDhQp5Npc67XhfKy/Xt87l2pq8BZb0CPGTGGhnXjBOVtGNHJYtyJX5MKIRdmmiL4Q6ulQuazKd98z1HsFhM+lpvSBmzegBwxfNjzlA0xxrNriIwvgg4W8lMkBRMBbrsUekxMTZV3HWvPScN6iF5nscKuvn7Zn2QwdbfTQTjs16r17U/8vX17gSQfEz9WZ1zLheF1QFcAEc8bkAbMEcP8c6SQkvw9pJ2VraAM4YRBgE6ciEMZqavzbhuZcxmDzsbfbQFzxeKmz8pbq5j2JPjmZvodsJMMFtkfwvw851rw3jeQIGZwuaUTGMQ5klpmr1K098c3FIlWtMumGeQve1tb6v2b87HMujZJYXiFfXCATkGLX0NvTvfgTmUnTo2VjXLurI8Xy+t7l48s5QoVCXty+DcjtbOiUIwASgWFAzfQ1WTV8DmIvQvLxNdct9zD+5L3WnWP3ZaxKYXzz7XNQQM2oo34XaM3VRI4lwpVGPDAk3OiBW8mCOyKIwZEimJ3eHBUIoUACZ85Lpv3+eK52VgbAWStlFjWEWdFTZKWb1g3DE/Xx1A242duuwz0Gawz9Rq9uCzF54p+gxErTz1Vv1umwUhWS0MaXQZXjbx1bPPPrta1cJnftOQ4HyMJ8e5z6GcstGT2QL6mvmHccwc8nk6YYiUiUvpFrqfdzYCqZYIxf2IRzxilqLWQOJZkA+hS/KVlHUeM/2eo4O4/kCBmXgAZQbdos4HVBmhiPidODTZsgwYijhQ8pDBqNXpQMbq43d2QZH24TeWR7GFpJZvTvgq9PUghlX7e2i5Cz4Ya5a5bHe2gGCpTJQEu30973nPq3YN4/dcPtPJzDsGAN4ICSXQYCR2Ma4W4rW3a2+nv2cvbiH0tWAlQ+GY5znxcAF7PFuYBApBQPcDwBS64bP7jXO8SrpV0YaFKESBQOOpmRcruNhHuShMpn31WjsBlWwAZKDKHnoGPb/XsLM/vT/vhkfyNTrt93xcNiwstJEZBtqLEYo+pFoegM0GEVDm1hRwWWiO8QvO2QGx6iDZ2uhawb4T46Zb+roTWdgvXhs2FIqb8p/oicxCIIdcla+T6y+lYwYKzKwFJd5XpweN01ANjBgfSkOlwiAh5gdYo0Qd+HQMlBq77VinlXMYeCQTnHnmmbPH5gzwQl8Px/DU66XPAAIoW5RD3hmqVUsxyEwKgv6injV10Rk3jAs3m1CR8h1jjtJ9LL+gQAgKjbEldbpYGdf5GXtFX2v0mIsB6O67777B/tfMGeholLEyzICTQT2DXQaehYygDJwaSvQ5oGCCldXjACCpX2O4OdRgYRyOQ3Z87qSAhnLG2PC5NOQEfuOWxjuNoTNWTVjj3UI/GFImomVjpQ7m3cgu1xHwOplul2lEptDigDVjnD+qaAHYVNzDEEVGyLsOzLSHZ++G1ub5uqGvO33mDMzub8AYJRGTYiV61b4vRLadtmmxjhsoMLO146tf/erZSeRDA5YMeJLCUBjZMnIwUb/4xBNPnN1piXOJH1IQXbBm0BGjgXrLRSIyhemGFKNAX+spLtbg6vS+9D8TkaUUxNVQ0rRdCjNTniij3XbbrUrmwpCDdtVyzkrfSc444HpsasIER2HV19A73jptb6+Py/Q1z2LOg/Q1Cl+Q5L2epMR3PDvyQsGyFIwYO/E3vGAzmPOSsFbPIHWcr5lDSxq/GSicf7xnuplYKTFUvDneMaxZ/kI72TubOWgNcwBYRkxAygxZppY1qDIF7PN04u15bPZEdQQcN97PY+rvPH8OEyBjktowMGFv0GeEWWD+MIQY27ARbpGaAVK2LyexKUvec4gvswq0MYNTlhHXx0jhD6BmIxS2R4Upoj9MXJP+dvMdADxvJ5pDKL2mr1uNQftCI5vQ1Mte9rLKIMpjrdfzcJiuN1BgpioXHnHdcmPgYclDzTDA88tJSOdQ6CEvMwCsAXtfDMLTTz+9WqcKNZonIP+7deNSKh7SyWBxIA9L9nUnbc7H6D27JMiN0AVayyYyRgAcitVbGCSDjYaIHjIeOIVl2CqR+Bxy6sQj77b9Czk+K9pW9DXHSCXr4SMrqGiUP8YJe+ZSJx5QwPhEoXKeoN5pG2WXmJP8T9+Y0GOiEP2DccOfHhoGMZ4ZnhtgC/ByHPLWC6ctJJDxe96JS2Oj0zYO43EWuyAWj5FhLfjsBfI/4I0XSBgGoJbBwNjkN9g/q6xJ6Wo42hd1HdlOHvajYM2KlbPOOqtiIolZ5z3eaT+hRnMusgHBmHBFRSfZ1+3aNRcwq9OQEatuyHfIdQfme+2lct5AgZmt7IgXo0AzvYzSQaEAqq2AmSpNKFgVEwJ+73vfGy9/+ctnZc01ya6lbqq7xmhhoayWc/Y1E4aJjbW72NnX3Q5+vQ/Oy7Q2fYiVDF39hCc8oQpRQMeiLKQg9Vo4l7HBb3jdeMgUHmBMZZqa/7vxqrp9lm6PV3GbRNNs60Y3CQDUiAdD21N+EFkAyvS7y41yLBG5dktBA6Qu84EaRZZ4WChis4dR5K7lzYaOISm8RsYj58p20BYMCUFZz1vDZKknX2ooMfeQk8amRodjznh0jq9zrEvOYDwAR/6QoyEHWECBHDlmD77dmJPFMCbO8cbu6UcMKjaXwTGisA79DXuJkZUzovtBXzdru6DMePqHf/iHSscj37yiot0zL/XfBwrM0I/swylVpfAQOLQbtHQzC58BRTIX1V94SeGwocAzn/nMWTqH61Ll641vfOPsxgIMLpQEgxnrvpM9mJdKp6rUc/b1UqGvm3nMKAv6kOdBCeEFkvwhNWjsNCclcbzgjKVPuIMNUlA2FlBYbKq6lfJRAblDDutdGZ8qIJ4XwKZ8KHF01nviaeV1no4BFT3v0tGCQFbIzh8NGUAYJUxOBqwCytkiNBbdQMadZIXnEBQGFQaDnhWeocU4lsr8atdOZc9xFEdxw41uqxrqPDQzGDVaTXgErDDKWH3AygPe2XYR4Mo5E15Tw0C6POcQZKPNc2k7xhNGGTs+sWLh17/+dcXC8AcTaWzfMdFJwl07Wdb1AThA0hf3d3VFN9dY6scOFJgZSKxlVikoPAYLigcvp1n2J4PmKU95SlXlxRcD7aSTTqo8qRzvYlMCCqDzcuMLFL01mpcLMKvUpQcXu3jIQiaCSTgoHwrSQ1djcJGwxPPVvYOsRKANSXChmhxrG1EiHD8MWdatZJLpa5SOldAAQNcJQ91RshAwdgvQzCzUr509Mr1PvkMOGCwAMGNEb4ilhAAycV/3waVdmVFYiMKlrXh/Jk3pYXeSnLWQsTTIcxmv/EFNu8ewY7Of7XAjCO6h8SZYs9SIOYTus5CLsdlsxJrD0aydxp05BgaAsARJtl/72teq/xkzLq/i/PkYInPJh2fCkKN0M9XBul1+1k/ZD+raAwVmBgwdi+DrSQVkXVNurZXHTKLXKaecMlt8AKVBIkOuj801obHZKIMX1AuTBqUgMPd6EA2qo+r3QYkuZfo6P4+FYvAM8ZL33nvvqp/zGsVMDbrBBF4ek/d73/teRcXpSUuTLgRY+tmvmb52VyuMVmLE7AlNwpZ0pUanno6sQb19PitKFcVJFTPihxgqeMB8x5+5F7JOUt9crw4qC6GX8cZM1OMdBqPTrOl+yr6X167XZm8mw17ez2vJEOVkL4GWdzxbwh7kYRC7ZjzhVRMGAfBwVBiDrQDPpDtZGMcrxgfJkzIsJJNh4PF9L1+0D9aThC+T5Xp5/aVwrb4Ds8qSd0ASuqcZML/qVa+qtmzUukN4WbGisKDZjDEzWNi/E49C5ZWB2QQKlBGDFM/KsndOoKXQQc0Ame+WCn2tZy9NbfEDnoEYGuvWSeIjhmYCjYrAdZxSu34moQtWBPZlIVWL+t3/Fu7QyDBzmnHKsx955JGzxfxdhlPPzNX753uBUhlyHf7Hq2H5F7QfxirLZNwJa5AxdechcuXZme/kPOg9E5s2GWxYjaZ2Y6KX9HW7e/Xid9qrkYQhATBTvhimEVaG0IghiJz9zb3rYRL7F/B3r3bYKpYg8lcvHMX1dMA6MfK4H/MCI4KEL3IoGL/Leb1yqz7uOzBbUYj4GXHDvDbPRjFwAGVqoOZOkJ6jc/C2Adls1VNJrA7MXOMjH/lIRaO5ixEdjgdiTWSBeZiSgDqZhHX62udTxp1cY9DHmIBkMQOSWqCoCV1QDESPUaYkK74cwyKTFPChDN8PfvCDytAS+DqZ9IN+bhWbHi7vLpmBGWCXK+aDv9u3+flts/3Lb/Q5cVvyJTBMyKxlKQzf60ENEoyzXGU1BGU3d9CLY26jvHM8fDH6ZSH3NNYLVWyi1yDo64W0OZ+bl97hjVLh7eCDD66W2MFUMT8Ba0Dc5UqOyWx46VVzbTcFYdOgr3/965UXja7GKJO96iSEwbjBiWKzisMPP7xqg3kSvXr+pXKdvgOziSPnnntuNQC0zjIo0iFkWP/d3/1d0xgzVDTJFS6SdykInhPUpwOGAUIpt09/+tOV4nIwqPQYcBzjgFmKVru1r5dK9jWKDG+QTGLKpELZQqnxHBpIgnd90qD4WNbBPttkVwNIGHiMB/rOLOBOEpMWY0LyXIARbM/jHve42eVMGImZmq6DuG1ljrg2n8QsZIBxQjgIQ4UkHa/jNTxnMYxO+lp6l0Qv2Axezk8TiJibWbEvRt/M954+H0Y+z+gYXiq6xCVHJgSqjwFsvGmMRRLKzP7nKiCZ4wAAIABJREFUs0Z1BmZ1sEaJeRPoV/IYGKdQ3ST7Ml7bhRCdK4Qica6y997tyoL59u0wndd3YJbKJnGABK5mL5QXtU+POeaY28WYAVY6CGVMvMTBzyBgguApQHv4ovPZ2o9CEs2UNZ3vOkOUhscshhLrZhBosZJ5aW1p2rzYgGTyix5rpqtV0mwkgcFFnMvN0Xl2E0w4LseGtcCJH7NGnQ0mLBXIbxhoeIeAEnIZBgWv4sjPjzeCZ3zsscdWSq7ZsxvSyVRijufhgWBkIgOMkWGoTlYft3X6muQ1jEZ3+aofD1XJnxnonD/soJZZDEIurtVuBzbdzPHFPlYjN+/8BlijX5/+9KdXtSEAbgHdMc88FpR5hhyKYd5iwDCOKX8Lw6PM7Herl6HP8ZLxlkla63b9/WLLr9f3Hwgw05kkdlF0vNmLicrSJ3YVydaRwEMSC6nzAqgxO9bckY3oiwnOWmmu1Yre5PpLidYedvo6x08xHLCwKQFJndvHP/7xlSHRzCPUsLACEdQ0CUJQsyzTAJj1uFQGXMciMeQqcE596V2vJ0gn1zOGBy1PXIwYHtubQhO6vjivNsjGhP9jbFj/mPrvxIoBOM4btqIoWSaZvsboFbRazT+Ox3NeSrQ2bbZ4z1KkrzsZw62Khxhqob8OOOCAasUErBeGNnS+49tYdo5DG7JgLADIOFJs20gSL0mJGNdS5owdnDM2ruAaBZj77C6qeIghu4ypPlDoFOpo42HkTEHXZKKoSFawqdIcJINRYMEXSp5a3FyrlRXuuVhlHL8UaO1hpa+1lPGSmFBMWmgw8gGwvP1dq9psUj1mvmdyEjMGiPEMCXloVdfpNj/jfRKLclecPg/htnqN7H+MSuhqYnV4FtmTELxyUpsJNDwv6/dRWtB/UNSZCRgWVqCVEFrR163mn4b3UqK1Fyv7uu3A69EBjDHGMH1jURFZHIE5e8jk7xCaggkCoNHbllL2uHpIhc8yRIxxQjOMe7ZaxciGwqZmgUsDR3GJVO7OvnvMxiKe/exnx2c/+9mmgEmnktXHkqhmyT9k6LlblHQJHU3MEQXtC4XOcdB/7RKChp3WXmz6WlA1hslEsXCF1jGWM8vcMJpQtK45zgNMmjp/R99BZbJuHSYFz5dEISYor3ZAa9vwTrlOXlPZ7txudZmKifFk+U/lgEwomsPSDlgCY3H2XV7CxP8ms2CMsAafRLbzzjuvev5hp3PrXrIsCDJoR1+3kvkw09qjRl8zf9GnnYaGmBeElVwCh1H6whe+sMr0Rg9omBqD5js9aHUK5zJ/mQ8wbaPuJQ8UmF3iwu4grDdtpoDwegHmnMhFI10OQp1s/nxJdVDyD+vNFwruWc96VpUs1A6YOWdYae1m9DXx9kHStraBd5QvFDLxNTI3WW8LGDMxpXEFsLoSpg+d7KyBJPxAqUz+8HhJyOPZ+L9ZYmAzpW7bADrOB9BNDOwHMGvtS9sxXvGMqdmN12C5QMHKNus1AOQkPPHsLPH7yle+MrvCYLEyqLs1UOrAbMJeJ/R1q3sNM609SvQ1BhK6VDDtxEjUo8Uo4zxzCmDMAGnCOegKHCcz2TV2fM9etUzmQsblcjq37x6z8QVA13XIdQGi3PByKb2YKQzLE1IrFc/KF8cQu6SoRK6tjedEogLxuU4So4aZ1l5s+hrFhGyhqijiYn1mPpNlna1f+kVFXe9bAJeYEmtsybBm3SMWMrJn0gLK7h8rbdtuguWEI9rIdaDgAOheA7PsAG0ixkaCIkoHuh6gZnwTf9NYyODMs0HRY4SwtI/xz7NLycsm9LrN7eS30N+7pa9b3W+Yae1Roq+ZN4zVTucf/elaeucx84ClcCZzEX9Gr7MSB1aJ/9W3GZhzQm+e1wsdo0v9/IEAMx0P1Qdt0eyF9wHNTWwuAzPgSmeRzU3avQqM+CUgjgeegRnlTPZgK898Lssdy5/EDjyvxcrW7jd97fWN9UIdWU8a2TpxALqnPvWp8dznPrdac6xXnOk9ZJkBRa+YCUqfQYtRIpNNRYgpKVOzMd3FRkt7vuDkZIYKkxbr1POue4HIox7X5lp4FCzDo0wo/6vAeGZkJiuEnARbShi+7W1vix/+8IfVsy9Fz7guH42OhdDXrebgMNDao0Zfk6zoRiPznX8apIQjGedcL4dymJ8Y8uSfEPLBQcvzRyA3DLTUAbVX7e87MKOoWNfGWk48o2YvNrAg3oiyzlaTdDRFRFB0vNz3FPDguwzkKGYAhfVz3Q60xaa1+01fG5fN4IyMSPqAjoJ2wismiQvr1niPIN7MmpWK0lqm9CNJHRQZIKHLTRDq68lJvGNcmHiXs667HdiZ1ibbHuPMmG0nlFxmYTLVhlxYCYC1T3Uyxp0GCud4bZO4eCermiQuQimwNhh6XNOlYd2OyW5l0c/ju82+7rYtw0BrjxJ9DSj3autGdTBeMuCMnlc3yKYZY37Qgx4URx99dBUOo+AOoUgdhFz1sdvxs9yOHwgwQ+FB/6GIm71Yv/a5z32uAolstep9sCQKr8va0AwogB4AzsDMMVDZrJfrVgk2o7XrXmG/O7/f9HWOC0HLMjlY0kM9XYAZ+QqSUlXGV5tlSQKAABFZ81C2LGtzE3bPy8lfABuTl/PwlDW8uu2r3A8aHCpVDDauDUB3c13jYCgHskxRHlj3tJffTN7SQOGzMX8o+k9+8pPV87tVomBs+4a5Olsn47pX9HWrew0DrV3o605Gwp8eo9HGL+R88GJvgkxT2798R+gHhotwEKsZYDmZdyX564+y7Tswo6AAUDrArNt617LeFY+ZjskAQCdCLVNchBfAjeJH2bFO9stf/vLt1j1TXB3vhmUnncSYmw1DBpm7xQyC1tYQYbBiQfJ8AEq79puU5fmCnDSuwCrdCtVEUgaTAM+YiVBP2KpnUGdgy4AEXUVOAOEHwEgqtxkQcp7AJn3NOLCd81MFzc/Su8fQMMtb6lwlId0sYNJmZYlcqEDHjjYqEms7+/xmmdI/JHQdd9xx1a5nsAJ47JQibNd3vXzmfl7LZ1Y+882+7raNg6S16/Q1Y9NiLt22e1iPt3gIcx7ZMm4XwlK1ek7HCfqT/7mP81z9xBylHcwXkkmpOcG84/cCzAMEZhQiWagkzeApNXsBpqw95pULjNBZdC5eHdSLtaE5jnPo1Azk0Kjc59JLL21bAm6uSTQoWnsh9LXn+hwqUbxeDBkmB14wzAIxfLIlc5WdVtS0SV16hAIQniAGD2sPCSGQaEfctJ3Xazt7SV/PpRh4Ru6JEWC2ds5m11DwHVmhGIgfQ+OjsNxMg/t4rmurSd6CkcGQxDCEriaGhtzZpGGpe8ZZtv2mr1v14yBp7cy0uGxP42tYgbbbdqEjGZ/zyb6ez72QH0wT7xjIGu5cC3kzv5if7AJIzXy/z7q/2/sut+MH4jEDoGzh1WovZH47/vjjmwIzIEviAPFjE5Xo3Fe+8pXxzne+83bATOYrChYFuZByeXpe0DIWIaFx3VCjnQ6U+dLXGdSh+jFe8PRIssNjBHAAQ73ivD6R52tGTQvGtB25k0RHJS5CEWTAk3WpshawsuXdTD7N6GuTPzqVUafH+ay0AwYCWtt9cjUgbD+JhhhxLONjD9ucYZ3lw7UYS4A8ZWWpXIQBiJHI2IDFQdHwealmWbeSb7/p61b3HSStvdzpa2SMHkCm88m+7nTucZw6iTnD2FH/ZIeKY5iX6G6WtupRMy8LMA/QY0YhQg9Sw7oZMNOBr3vd66qsV70Ym8e5FO5nuU4GWo5717veVdUhzqUOSTqiwAgg3gsQ7RetXaeviY1LtUq9Sv+a9SvlyuCFliZm/6hHPaoyWrA+9RQzNZcnlfQ4v9MPJDN5TS1W1hlDywI+eMXzLXxRp68BR2K+/aCv5/K6uB+y4t60ARnjNbzkJS+pysPCKmigaGhI/SsbaE1Ygn/6p3+qDBTXeuZEoUJfd6O+uzu2H7R2niPEOhkfy5m+JsHKnfl6oRc76UFBGt3EHCMvSPB99atfXW1UAdPUjLnr5PrL/Zi+e8x4FZTjfM973tPUi6XT3vGOdwT7MddjnihB1r9Cd+QMW8D4P/7jP4INErLnRwIOJTmhF3s1APtBa9NmPDpiknihGh2CA6DJb/7h3ZEogWfHH96wwKEH2AqQHcB6fgI+VixZ1FDUgDDlMH/xi19UYMw16Te9zG4nQZ2+Nhu/H3GtubwuDQQYBAD6sMMOq7xkKobVKWu9XVkD6naz1IklXyR3ca1sHMJ0EF5ZzvQ1dCReFvT9fMdCt2Onfjzj1apyvdoystDXC+2V9ucbb2aeocfQ2SSE4SWTl4HXzDHZsWp/1dE5ou/ADP0M6H7wgx9sOrmZeCg/OqwOzChJ1sE+//nPvx0wY0WTeJRrazMA3v/+9wfWGK+FUNm5+/tBa2f6GoWH50YVLdZmU8DDijkoRgY18SHLQepRI1fXcEsdzTVsOR46mvgoQAMI46kTw9ebFOS5Tqa1u50O/ci+7rYN0MvIh8xqyoay5A4DR3aAd1kG/tcoYos6SsBSw5diKBoqLvnS6yaBpdDX3fZK98f3g9bO4zOXge1meV33TzLYMwZFX7d6qpwDg7zxnEnYhTkliVCd1SykNlhJDefd+g7MJAnhxZLF2yprl9gdnYZyrO/Cw9Z/FDjPG22jYAFmlK71h/HwKNuJZ24ZyPmKPGfsCsyAFlYebTRWw/PwvfQmx1oUJQMAE57jAAoyr0k2wgP23azzdtYj13E3JilX7iNNbfal94Oyphbzl774xfj6ySfHRRddVAGN9Ph85dPsvExfu4n8IOhr+ypTYsiRhDeYGtZNwk4o22xw2HcYcXj1bBf68Y9/vKI2s4eY7+EuQ8uZvmaM4p222rqxl+Omm2thkMNS4HmZLd8pmDajr5nHyyWDXkMTXYDRuBj0de5L5I1xzNxi/lFXn1wjdGhZr9x+1PcdmFF4FDf/4he/2LRONsqR5VSAVN3zY9JRPYldqbIHTKYxtbWpSsX5nAdws+8vijUnOs0lgjxZs9FgLJR3LXZBGGsPqpw12YItgEu8BCuVZCAGIuAE4EKj4g2zNACFR0KZmyDIEKj4O6GjVUS2l2vg8UKpAhZQsNRkZl0xXjHf8+LabijSqTJrP3z+eMRi0dfSkhgb0NUAMXQ1eQkW06d/BG7kxvMzXjBSkBGGIYYe7EHONFdu9stypa+lHfUkF5u+bjXuFkJrF/q6m9m88GMdUxiyJKXiYLEyhH4oy6Lay7fvwEzQH2CGGmxmndJRKEc2BshUKk1HSb7+9a+Pf/3Xf72dBwOFzfIqEwtQtoDlkUceGaeddtrtqs7MJYJMozTzkFDoWHcoZChlQBXlD9XMd4AwYIwV73IELFX+5zw9WOlnjQjbxPO5MUL2sFu1WW+Ptl544YXV8iVAGE+YtcXEjAFivWLB23h0XjbUfmh0d8Ri0df0IewDhWUYFxhtGEkaCjwzxwjMfGasnHrqqVVREOLIeVcdWQllp5FmHy9X+tr+cz9lnrsfBlx3o+r2R2sk2xcYUp0a4YW+Xojkuz/X+DE5MYQYqaLHPDS3o/srjtYZfQdmwII1xyjCDMwuxWBisWk23iX/ZzoXJUqWNQo0AydVmT784Q/Plkmks0lQwTIjs9giEq7Jle7lM2ALqAKeJlcBrnizgC4eMf9DuQC8gL8ZzAuJh2RFr+dqu1T+dSrc9vPsyIjsYJcw4bEvNg3Xb/pacJWtcGraD/TNa1/72nje855XWeHZEjeZC9nlBDnGIaERkt7c9F5KOwNRnb7mXozlxZZ5r9SThoqeDWOeMdWqCFCv7tur63RCa9fpa54Nw2O59OEw0teG/pA9SzdZ7w9riL4tr84l0HdgJuGI7GlKN2bFB3iiHABHkmyyl2PziU+zkUKmwelwlle5DaTKGO+T+swoca6tx8pAYVBgZUMxG2/Ui1WB572EuYbepYZCHRw6F/HWGHCORwvSWvvEy1CK0P7Ez1juBSVNItI555xTJW3lzNiFJGZ10+52x2b6mmey5Gqvsq/r8WP6AgDB+iZTn2py9G0OCWTK2rwEqqmxHpuyr2SfwyjQ3xheyN6YsuPT+/L8hb5uNwoW5/dOaO1CXw+2bwz9MU9hQFnSyrLOutE82FYtzbv1HZihqaEZWQOa47hMLKxe4sQAqgo1J/FAG5JRCw2u0uR3aGy8ZkFYj1PvSBDMACg1lzNxc7xWurfejbk97WLA9XOzIWKbAF9Alz/oaDKj8d5ItgHYeMcgsUqa1zChK7MAi7WExefsN32tN4fsoKuf9rSnVXT1fvvtV4Gqno8MicYe7UNOeLhk9bPtIgYOIGyMWW8ftoTvMIi8XqGvh1+ZdZKtPSr0NUCIcdnt1o297mWBmYJHJFIeeuihswxou8TWXrdlqV+v78DM0hwUKgCU6Vw8HXcWAbQZVEwk19miOImXslSKzeUFKI4hjswOSMYxuukEwUygUwk3A2a+kzatJ4fpaXu+YOB1Scgi7kv9bjKjiQW7yQEU6lJ99YO+FoCNQeW+IGkOhuSoo46qWI/6Kye06alj0H3gAx+If//3f6/o6lZZ+nra1kZHuUl7u8Sj0NfDP1Izre0YYEwRHiv0dX/7TzDWScKAxhgGnPOWvP1txfK7et+BGQrxyU9+8uxezHQktDWJVChQAPnb3/52lU2bvVmOO+WUU6oYM3FjAA/FTbYz1LfUczdl3PSWcjfqBWcwyJ42QI6nhRcL2PLHMhI/8wx4W3zHO0YG77ygUHOxE+/VqzXWizEc+0Ffe036kn4lue7AAw+sxg31qzXYmlndZlHTH3jFbLf4hS98oZI9IMvvrepXC8KMKzxwjiVkwPiEwl5uxUM0gIY9+7rbcZ1pbYwrPqNfSu3rbiXZ/fGMKcOJgDGlNvWUCRuW1/wk0HdgJuv1CU94QgVcxnuhD61nDeCifOlQ0ukFL5b+kNjDBhgCGb+RSEZBEj3UVhRJq4xSQBZwZdKizFHEvGNZQyMb56W9/M93gCvnCNB+5l3vFyWP5a6VCGAby+Q3/jd2uZSTT/pBXxvWoMQosWOS+ABnJraZ7PWMfYc78fiTTjqpKiUKM2HWtDkCXJvx02w81GPTKHP6j77iOjnXYH7Ta7jOQhZLIfu6W6llWhvdQn87p7lWM4O823sM0/E847DR12Rfv/vd7662kjUBrNDX8x81fQdmPBg2m2eyuNYXbyYrShUzi9BZ8wtIomhzgQOsMiYYHjTH+ALsAFc8b4ETxQpg6tVyHcFYMOXY3Ib8f44rd7JkRGOCNpL0AIXtfsC9SoSafxcv/Mw6fQ3oEQ8X/DLrUL+bVJcUvwaVWfmAIX3KkjrYECuccVzOGZDFkJamHz/zmc9UsSzi9fONt2ssyeRQrpPlUxhkvJayEUX7l3r2dSej1/HHO/1nfgE6wSTPTq4zzMe49JKkVuYMY5TnM+fEHJpBPINesmE8kjHJ+yH7uhQP6U0P9B2Y2RCBHZ/wfogpS19nRSqF7XIhlWWu9pUp63pSVQZpKekcz1ZBcd0MJp2Abidipt3WvsbLhgYF+BejRnQn7e32GKlmFIJxfQDLHZbmup5eqe9MXBL+WG/Mzk5kbea9oevJeQIj/cb9iNmTDEiGtazLfI0fxxntt0wqHjjj1B2leM/5Bd3KbrGPX670dZar2des8JDBwkgmpCRw9WquL1Z/yjbCysnEMR/cGCjnuvS7jRrbyJ35SwEoWC7mSaGveyP9vgMzZdioX03ijlZeXZHmJUnGkun8DMxMNCdZqxitg1MgUaGatetn798rhZtrX+Olcz9AjPZncO5Nlw3+KtKfKD2Ll6Ag6Acp31atQqHIJDz+8Y+v4k/Q1OzqwySue6S5GIjLwigkARCzoQlLx/hsGVT6cL4xe8eLBSvwki15Sv+ZrT1fb3zwPfWnd1yu9HV+Up6RdeaMTcvAMj5JMO2mCMkw9FerNri9qDF0jFnGLSs6eqXHOn1+AJmQDyFKNqSAwURHMHdgRctr4RLoGzAb1/nQhz5UxY+XU21hLUa9RyhYwUKgYfBSrASaHUDTUx/0JJrvEMn0NcVWZAD0Mvmd55bWzvFz/gd0URxPecpTqrXoWNQmcdXb5Fgxw1qwRemccMIJFSgLmvN5HuPTOWM3L5WrXxNFz3PxfLwwrszCXwr9Nwr0tcY8z0phoGbZ11bh07NcarR2pq8BZnQo41BWkHlG5rnGRz9pbee0q1Qoe4texwDqJJacnSJDD8yt/P985vZyPafvwHz88cdXO4qgdOfr2Qyb8AVkPEESMQANgKte8pKJJahh6fKaL+06aBlk+poJ36x4CM+H8WG8HiWBN0wSH7s5kWkPm+AENCmk/izIjXvg8bC2m20o2VubrHxyA4wrzxcUTSDTeFCBteoLgZzjoUe5P4p/qdDamb5m/JFjsZhbN/Zj7AIG/DH/WmVf52xtcyIGGYtd6HPn4kiwjbJEGpU8iwmnefvYftDaAjMe8Ytf/OI49thjK9nLyLR71hxCzCGkAszNJdd3YGYNKgXM6cBMTbfryGH+ncEElYNHqMIWdPOk0bp044qlRGtn+rqu1PU8sOLZxemII46otqwEpNn5C7notQF+/p8zqzMoEism2Q8wZrkZa97dpUtvWo91PuOC/nIZFv+z3I5Xq9rhsgW2Hc8LedDOpUBrjwJ9DSMDSNAfGG/1+cfnToqQzGc8DeqcTF/n4iEZeOlrE8JIgpyv8drumZgTzO3XvOY11SYxGATZ4G53vssa1Yk5ZNXu3FH8vW/ArDBf+tKXVhl7ekSjKGRpbddAD5Ny17tyQpuk5RaXJNBYUQtlSDGOww47rMq0xyu26Ee2gjMzILjlJBy+g94nXkyog52d9Mj7MT54JpZiYeHTDnaTMmmmnSJTCWJccR1o0WH0uur0NUYShuBSqX3dj37P1wRI+MO4GmYHYS76upWMZLeg9HtJa+slG7bCwcIIRw8IsHP1Ww4XmTvE8eZx6C2rG/JqmH6Ph2G//sCAWap32AXSj/ZJfeNlkxw2bMCcPVkmHKBMMg1UIUsgoKfJoiZOnJO2csy4Tkk52XhWwxhU0cJbpRAINauhrPkdRdlPmRArZq08NDlW/3e+851ZYG6XrZsNDjyT7J21A/V+jKW5lLOe8nKlrxciT8Yq84+xNszA3I6+nqv/e01rywyyRvkd73hHHHLIIbNrlDsB0QzMzBXkbjirHtaqG/YL6evlcG7fgZniD+ypzO5IgNIovrRo9bTagcEgZaTRQHx4//33rzY0B4Ch0QA0YqzEiY3TSkFL9zaboNLPXBswpsgMO2OxTSV0G55c9qRNaOnXc2Nk4OWffvrpFd1+7rnnVs/FeDT2P9e9fXaOqcuhX23u9rooOrOTh3nrxm6fq1fHCwSMu34agQttbyv6ei5A1kDsNa3NWKdgCJtRUIlP5iyHpzr1mDkH50xGTiCW0i6x5ttLsu/AbGyQoiIoRpS0e+DifdAxKMjsYdl5Zh/SZItN0IFLvejDQicv5wv2/C/QZ5DM1LTHq7yhn/GEDzrooMoK5p3CKLzalTjNsrd/uD/3Jo6EVQxNTT1zQhh4xtCpTrz5epkaAsaeHS/5+aWdfQbbxWeek9/x1lF+MABUCmMv62EylLoZG5m+5hkJMwDKnRgb3dynHNtfCcyHvp4LqBkX7MJmwli32dqWO8ZQP/HEE6t9CZh3Fv/JqxtoR57TOf6dKWpXXFgBETpcR4XrOlf7K+mlc/WBALMdZ1YhA5FBg/cEtcn2hvzPcgAKPPCHMifpSOXvNejM5ZLdvZBhkhOUvI6Th1iqe01Da+L5UlyeDSGgovEa+QOoM6hnsG/VNvrBScY73i/9BiOCJ8r2nnjGvABpd71ZyLPqqUq548HTVqu55bEh/YahgQFCjJxkMp6VbHHoPv6n/jqgbKy5rmAW2t5BnG9+gNn/yzH7ehByXOx7SF9bn72efd1t+xgXjHOS48iJyCWN2xnGnMv6b2LJeMpWWcz6huvVPV/bKNj6DH6fgdfkUdqSk8CK1/zHnu47MDertCUdaAfRHJQ8QOxm7fxPIgOgTZKQ4A1o81uzV7tB1+0AH5bjmw1YlDHZwlDQeL8AEeUIsZQBXUAJz5BjzJLOQNzMg20FzDmDmklJf7A5CX9U4iKhBkNLz1iP1WQr+myhfaMiYPN1nokxgGUPuOohOq6IiSEXaHRkQ/vwlHl+4oy8L4eSqYW+HpYZurB2dEtfz+UtL5TWxnt9wQteUGVfA8oCrfS1jJXAy5yrV2XkNwuOqFP4Tv3jPM1x5gLKt+/VvgNzvp2WG9ZTt6Xb9Ozw0Cg8gceDlwYwQJPzGVBn4DAI/HNgCf75cx0s9M6lCBmknWTv1uOsxk+MZ+npaTU6CDVMpIgc9Cpc3rGiAVuSlvB4KWdJMhaTBtAx7tPNwM5Am5d30R6pahNkLE15xhlnVHHi733ve3HppZf+yZrKZsqCNpHNrNFlLHk+tDZtUwaEPqBtMdzwmhkPtBPQJTMVGTEe2AscxoD11IwRtt1stdPUwlTr4M4u9PXgZN3PO/WSvp4LqNEh6A/q92e2S8DkHf3Db7SJjYMAZfRz9nI9l3d0A3MN3WgJXa7hkiivqQ7xWWknx3Wjq/rZB8N87YECMx0lfdEullkXWo4pGm/OAGO2JQvt+XMjAug9Ppvo485QxDr4Q1Hzx+9mjnN9tws0Rj5XwoiDDaXJgBWYGdx4dfzO91BLfMf/fO+mHnzGauaPRCW9XehovEOvJ3WpLJh0Ofbe6UDjfOlogZnPeLaEFJjEgB1GD7Q0BhAAyPM1M3jmuq8JSZYnnW/iDeMFgMUr55q8Ixuu57pkktZgC2gr8mUPbMYBVP4BBxxQ5TjgPS/Ue+9Uzv04rtDX/ZDq4K/Za/p6LnCG1mZFAfNbw1udolNAPYJXvOIV8bjHPa4peDJn1IkdNJOiAAAgAElEQVQa8Hq8Of9DT9nlVJwnwPPeqvrf4HtguO84UGBGSbJkBU+PWKevusfZjqZWsWZvT6rFgZDjF3pJbv+n9QcwezygrLetAZETjeoxk9xGrU89Y+MmVifye0EacHZCSOvoyXOubXLg+5wO8HwO5+npdzrUuA7ABg2MF0lcmFABsWKMmJzVa1u0cnnP4NwM5LJHrGwwOjgWVmM+wIgsSNhiYnN/jBq8YF7EkDFuDj744Mqw4HvYBZJXSPDCe0bm9PFSqd7Vqi8Lfd3pKB/u43pFX88FyM4z9A7ATGjJ2trMS77bb7/94vnPf3485jGPqfSyIFv3agVmdSfzED2Z1zTnxFB0jEldtFFDQF043L2z+K0bKDBDhz796U+vYn/77LNPlQ1MOj5Vo/gMbUtnCk7S3TluIj2cv0OMKOtcs7Wu/PNAy0A2rLSK7fc915HmebNFWjcSXBfMJMD4AJAAYahdvEYAGG8YwMpx/n4OR+QMAwAwEh/ultamnYwHsqsZPzwT1DbAy/WQB9vP8c4zcn3i7tD+xML7WcCkn3Lj2sNMXxv7z8pX5Z1/4zvmZ2bN5sue9Fvevbx+NqKVER5srn2dvVhZQA1a54my1DA2hCXzqJ5AxrkgkEwccw9KGyAGkAkF4RyRFMq1O6l3bShSltFzpLPpW4wAjtNz5hj6me/Lq3MJDBSYKSjx1Kc+dTZLVlBEmTJYiJsyeFCoWG/QktCQ0LvSum7JV6fC9SbrHl4zUdStNq25zsXW/yMzTZ/paj13JwdUPR4uni7gQxYysVfAF+DVE4be5ZruwmMFK42a/j/RVmOC+8+H1lZRkTHK2OAzz8h44X+ek9+g5GADAGyeGcVEXsJSXmI3zPR1NhoYQzAZhGLoawwpf0f+GFP0Sa5/Pohxt5j3yIY/8mCMIiOXMtE2dJkAjNz4neM4Hr2IzlOuOC+AHDLmf37jD7AnnwOv2CpnXsMYMoApm6eDIyunoT+XrHIITEPApC6dHXVp1sd8123ocjH7bBjuPVBgPuuss6rdhqAepTmMkyqMTM0ysKAoGYAORIAaZWxFKsCbBB+ycDk+W5ZeM8enBW4HjgN1GDrDNmRQxhsERI2bA7ZQtfwRL5V25jj+XEdcT+pCrsiOWDpgbrY895wPtdypvHpFawvMtFUvhDbQ/8SP8aKJKaPIiEUjL8DZHIF+PmOnspjvccNMXzvfMLhYFYAhZOa7oGxMUmMSQwkdAK26XF51Rs7ncqwiE5cpApAAKDKzyh5yA1D5znwUc1PMSTEUBsjJLGadYdYzY17AzePe/wVPjfxOPdocztNZEOw18B0PMnG2Y1iZyWEdfwMH5r/6q7+q4oALeTnYGaBk4UJhMrABcJcIuX6X77AkeUdp16142qG1qAI03iv9lge/hoPAV38OjQAnAZ8FQak7rgGAupUiSRmAr8lXKC28QYAXgMED5Fjv3Y3sZAfcSAOvej7X6eae7Y7l/u53rJHQSp7ZYMuZrGReA8awA9ByVCwjf4FEML0LfhMU2rVp2H4fdvoaedGPzCuS7piHWeGroPUEPZ7vnQeMeYx1xndW+u3GQr2v8njOscxsnNaBg8/59+y1Ov+dO1K2God8rweY47cyfMiCPz4DtHqyOBeMTZOgsuOQgbwXY1Hjvp6Hk+/ZLb2sU8M1MLJ8DusnZIdCA3oYHZ9eyLff11iSwExnY3FaNMMJ44RycuZCJAxC6TX+xwo15oXlDvAB3FqiVqbhOJUK56lwpIIyYJpcBugyWKXtyAQn1ou3yjF8dp9m25hjyrIIApHLDrqNB0shISuujyLklSdQvwdYq+sjZ+Rt1bd2yhiFhkcGBchaZkIbZ5555mwBE5QgyWGsseavHtpYah7zsNPX9Afxe+YgcyR7Y44xDdKsnOv9QP/DdGTvud1YaAXM6oFszEmxOqecE8wt5rP1pX2HdfMPIM31AKSIGXscw/jlO/7PdG2OrWuY0I4cD9bwUla5zb2Yk9lB8H/ZI66PPLqhl2m/iZM+S46HS2lrJJknVA919OLZRuEaSxKYoWSp3UpspZ5gAvjgbeIZMpCcrBzLeViyetwOHkASJW8hjLqlncEsUzLZKxC8NQ747H0cwFrgThSO1VNQEefJU79vt4CqskBxYiT4XIsFUpnWRhaZemvXJpQgu1nxjjFEwRD6jWQWlnfR57AkXBNPOfdT9tqWyqQWzCyzybPmsbWYz4HRSviA5DvnkPKGAUH+sD2uejBuSv8QhnKPbulQDE8SE2E75hrjGcwyeDuvABoMBlgzjFHepYqZ94CsMVhjvYwnzuOZXC3hdVza02we87wY3zwbesYylhqE9o9VsgTDfgBws7GAHF1CSujAZaS07yEPechs/ftOx5HArM5zxUrWbVmv1UE/z8dO7znKxw0UmM8+++x42tOeVk1cJm03L6kmJsBf/MVfVPSQSoEBgeVNTBF6s5lF7XeAFMqc5TR58ADkp5xySuXNLuVEoW5kOuzHan2bZcrnww8/vErmYokXip2MfvILKH6y1Eu1DjN9bbiHNmIU4ynnbGLBlTXv9puskgYYnwE/8kPoN4CTuWvm7o9+9KPKOBZoNVY5n3mLkQI1zHkYBcZsecfwFogBZ+6VE5rqQN6LsZ89xkzz+ryMT3WMtK/nKDuPzTFhqX6XJfKuwc7/nIsBxDxAl+KMkGsC64CRigwBYt81TDmXtcpvfvObK3l2UuRJxsH72ifMNRlH84W6pcZ70QfL9RoDBWaA86ijjqoqR3W79ZrxX6w9Jnb2JrkedJhgz0BkkJjByOACcPPuVljSrHNlomsRY7FT77kA83AMd0MSKBHoaxLe6EtimvQ1/YWBBTCffPLJS36NcqavoUtN6BsGj19PyWWOxhB5J7xAIRrXqKPE8U7pNz1TwRaPle9gr6hdDpgCpCh35h16gXN5fr4XcJnLGmh6pZmxEriY99mLcyRnRqZX3lvOGckrJzQCbKfMGM9ngSOA1f3ZeUc38U6fA7KMb96RKe+stuAc66Gb2a5BYJjLOZNnsEwLsv7Sl75UrffnvE6WSPEMGgbNvH0NDo7pBOiHQ7MMfysGCszQVcccc0xFW3ULfgAzy6lY9yyFxKDASgTwoTf5zODAmse6drMDaRiSTFDmWJgciwKAksPi5sV1KTmJpVleiy8BPUj6k79TTz21UkwmHBnKwJgiW70eBlj8J+iuBdLXjEe8IWvCt6P5u7vL3EdnxZ69TNoGoLKOnLkF6Cp/DCYoYQxmwRTK2lhsNjjoUwDBynfmfXAvaeEMwLRWw9n3vERHA70eJuL7XgFwK2/b8QZIAqBSxvyP5wqdz3cAKzoHcLV6FvrKP+sO8FwAss+XGSDnggZRDgtpICif7LTwv+uMKSRy/PHHV/LstAIXz0j7NJwyS1lfQ20f9HI8juq1BgrMgOKznvWsyivt1mNm4mPp6eECogzib3/727P1rLEIWSrDu8keWtUOXibDL3/5y8prZ9Bx3Yc//OGVQuEcYpVsWWiiQ56UozpIFuu5VTRsSkHogjwAPA6VNYYVY8DvFqudC7lvM/oaA5I/aUQ9wKwUpWn1xupt8Lq+S5UKvLy7QkEKEoOHP7xa5I2BQGwWIHZZIkUp3JyEa+f4qnNGYK23Sc9NwLG+Mt/rvTHf+J22tTJIspeYgUoPNcepBbDs0ZqU5nUEWHSSHiK/2Q9SwtDDrJgAcPmOdwCY4zIbl3VGDpd164wsZFzlc5El/UihHfRnu1dd51kwxL7O1Lges4xmu2uX3zuTwECBmUH9vOc9L77//e93vVk5A4rkH0vAMcjxoABSXigLiktoxetVZ1orx4GshMVkRPHgiaOg+IzXbKUoAb0zcZajeikBjSr6lLgmihCjSsVg3w7So+zl8+nVmSELGEpfG6fNnpHHGz81uY85gZGCkQmwmjFsdrFebM4yNhGK4wnrcK7rZ7MBoHHkJvd6WtybuaL3ZWW6HNdtRinTdxoTrp91rnpfgcDjeOc+JhxlTzjfg2tLFwOUyFJKWAqZ79xSVlrYPawtR8tnftOj1ZvXo88Gk+OhlZ6ot7XX46eT68FcvOMd76h0b6f0tdc1yc2xx3O6N4AAnpPyesVSdPJcy/mYgQIzVM7f/u3fxpe//OWuN6fHUmetqlYx1/rBD34wa7EfdthhlZXvAGJyQW/yjmICfF1rycRiAlMnmqU1JrRAlfMb1DhJLEudGl3qA1fvjv6h/wg70F+As0kzPONSZjUyfZ33IAdUXapjljEy4C9XeeI3QVmK2EIUfuYeZg3rtco6aNRkz1LvWuBF/oCU8VvB1/WreqBWmLJPTF7KSVxZceeM5XpmM9eQ9eIcgBXgNAaLx4oOsNKd1e+gjN2ghmfjGfjM9aWRXc6Y104LLs75ulw0DjQK8/G0dViNQ9r9pCc9KT74wQ9W+rFbYFaHaBT52THQTE5LXe8MQ/sHCsxYoWQF/ud//mfXVDZ05n3ve9/ZIgaAJwlfeAskAFF320kDvQRtk9fdIWxiYCh3FBkvJje0NZOda/AbngOgDG3K4OuWch+GTl1qbcgWN/J3SQ1JRShaPSqML/oUg6wXYCxINPNKs3eqh6ShkBU6v7neXOXN8whuvLs2XqAEdGF48FSlizE8UZy5rCJMQStaWGDtpq9bJUBlCjhfT+pVYNZT0puvnyfDYU6HyltQBNwzZc29YKZMcMKAxjihz7/zne9UoMtcJk7LMegPgbMX/d+N7JbasRpnGG6f+MQn4tBDD53dGrXVs8go0u+OeSlq+lBvGdmXDOz+joiBAjOdS/LBW9/61ioDsZsX8WUKGkhdAbxQ4ygJfmP5BL8xgX/4wx9WFna2zv0fcIYWhbZjgAHAxJtRlCS2WMdWYF+suFA3slnqx0qXMtlZykaWNcoYA4oa2CT4AVhkY5OnwHe98FByskqmxR0rAgvHSRczbqSM8Vyhgnm3WIUebL2WsdXIeA7DMXqvUrg5uUmQ00Bo1se9og1Vwib6aFgoYz1PC+ygoHORHDxSngHgxcilv/BgLf8KoAK4JrSR2Y08+J4qgCxT5Jrkh9D33P9b3/pWdQ298cyMZK9/qY/9frUfAwgK+93vfnc84xnPmHVoWhUVEZQNI5iAZughG2OGXvrV9nLdiIECM52NUmUjC5ZXdPNi7TKT1knJZCa+zEADUFl+wYSWhtZbzgqOwYdSBJgBcl6sA8QD4/tHPOIRlZLFYgeYrUrVTTvLsd1LgD5F6aOw2cCEMQIA09+wGFDXGGEAInRmfflGK9DKnnCm3PzeCnCAJUoMUCXcQT4DhhrfWZCC3yxGITUMuFi32NirnjLjTqWW46COX0FYwDGOmZ/FdmZGoXvp/vEMGaU62Nsm2CFjsNZmJ67PHwYq3r3lYTFmKacJGEOvsy6ZY2ChWI8McLu/uc8vpQ07xRxEZoAzuSIY1FyDJVQcD5NFTQI943yNDNILkcdyPhc99pa3vCVe/OIXz3q3yLCVp0vf1fNyOD5T9upSwy/LWX6L/WwDB2YmJxTl0UcfXRWJyJ6tlFkzoQC+esX8LjBzDjSNwIxS0JPmXtDfKHy2OeSPiY7yxzrnd5TR5z//+crif9SjHlUpZ5REAebeDM0MLlrlUsJ8Ni5J/gDULt8BvG7VCFACzihvl7FJDXMdl4LwHf/7GY+V61kzHbAVdAFixgugy5/KqhcA2Iou1itFqiZK+axS4fym92wWcQZ4fs8grzx9Z2xLOXIPruFSHLxPPFboYcY3Bql/yFW62Op3dfBjzT+MhffHKGau8SI3A9aKF3Ob5E7BHoaK36CkKTAE8CNzEjmtAMbx/M68BLB5Ccwl+bLzeag3zPuLXvSi+Md//MdKn7Ub1zn04Ph1jHJ3rmcOgK1pd83OW12ObOpYNHrBCXYoW2MXdCoW93ve8574+Mc/XnW6Hd2qehMxZIpMaPVTkhGvivPYxALw5VHwxFknrcJn0wyVzFe/+tXKikdB44EbE/zUpz5VKcRHPvKRFWVq7NkkkQ4frxzWRALSxRmYjE3quWHdEz+GAoWtoOY1cWYy5zkfD8vYpBnG7jhmghTKnv+Jy/KbOxwJEHprDvdM0dmOXlHDzQZCHZjrXrTgmhOrGH+ukeV/s4jN3LYwhV6s8VnXzkohcxx0s2Btpa1cIMO50Gr+YRRjAHsO/UTIiOPdRAQFjqcNYBsLZqWETBf7sTPv6SdWQcBI8Nwcz1po5jBGGG1hZQRGRAklda5W3ImPPe/f9KY3VfJl/rRL+BKY1a3I36VsOdyTwbgAc+f9Mp8jB+4xqwQZBEw8KtFQIg5lMhdFea973atK8GLQMFmhufCiGCAocTxqBhiK4X//939nKTC8YMCW477whS9UwIwVz/G25dOf/nSlyI844oiKrgQgoOl4LfUyj/MZFL08B6CxkpP0MEDs+liAFK8WpWxcy3KBxrIIM+DV6hHrFWdqljarROqgKyjm5R0CYwblXgBzblM9jMK9eEaAFa8Viph3QA5Pkz/Ale9cumNGsbuRMR71gqUf9a71wI0HmrmuMZK9b4+xjcqjlYdKwtpf/uVfzs4/2gVrRXsxlmA86F/m1+mnn149G9fE08agpv9gQciqZzzgMbu5isAMjQ3DxfN94xvfmDUmejkel/O1YIFe9apXxd/8zd9UnrKvdolaArPj02x4S202i0sXYO7vSBooMLd6FIqEvOENb6iWL2khM1iytYwix8o2SxXFQIIISo5BgsfFwGRQ4WlBWzMgURgoFZdXcU0oMyx57kEcGU8a65JjAQWyvfHGy3KpP+0xPSuBEpmTsOXestLF7puNUQQQu1tXjlkJoCoEqwvlRBP7e7EUQR6DtDfTw5aA9TuX8lgBipAK7IubqvAsABOf9V5zdrEUvwxPf6d+d1enbU984hMrw9XVCuZzcCW24WTlBC+Mip/85CfV/AGY8Zh5Xuhp5iHAjGHMOyAMwAPkzG8T/5jbjovuWrr8j86hIJewob+IKVNZ0Q05mklCI02GRsNUo9jvdYDMnVis+bf8e7P5Ew4FMGNl46WeeOKJVc1jkn/qNDKeFcCJJejAhBYjqxoFAPgSA7NcILFraRwUJfEtlALnEvPCa+Z/k1jYUhCL3cIlHFsUw58OGmXKhGVDkle+8pVV0o6elx6jn5uBTd1z9RyUglSuBkD2aBdjkkIHs3wOMIVuhakhk9i9sgHj+vaeUvV64DwTitN67VaYQkbZc1+M5+v0njwD84vSqPYpcwQ62zXObg6DB+2aYQxd/ieBD4OZZ2dpGOwXoGI+B7J57GMfW1Go5J5gwJT510Jpj43NbhSCcUNY7u///u8r5yTnXDQ7W2cDINYT9jvGYmZ5+L0edup0vJTjFiaBoQBmKWyLfrz3ve+Nk0466XZriFEMxJIB0Ly2DsvcOslMdDw14mEAOQONpBIUKskvvKC98ZYdlNBrKFm+c4s9klH0aAYYgl9YTw7obBQncjruuOMqDwpvGBllejlb4Ux0E5pUtAIwCtsELhS2isB4cLbSe0Ezz0dEZirDrAAe/AFIADQe8YUXXlgZkgA33jG/ywSo5MhmNj7sjjz1jO35tG2Q5/AszC28Wvdfpk8AUMI+hgugpzF6OdaYM7JijvnMJlnSfuYmc5ilkOQWID/WMGPsZK9ukM867PfSoMMZYR4SU2ZOWvCF9rdaFoWu9TjmH31izoH5GIaENJKVx2LNwWHvj360byiAOT+Yg4UY07ve9a7K0maSMtCg0UjQMouViYvHgmJAKTrx64rRAcdA1uvmnsT0UAoAOvWyGYgknaBEFvvlpBiGIifSWcgJT4fyfsQCLWIwl6zqho3ZnsZF6RsLF/Cb1PViy7+b++vxQ+GS6QxYwcTgIQLoADiMkDFhKPBcfSpnYOeELNqQjZ56Dkamwbtp73yORXnzh3FMMl6mRKG0eeZ6PoasR455k3XN+a5PJr4Mo0V+BxQsYSRCWov90qhiPMIILMZLY1f50QbaBWuII8E8JFTQ7lU3AvWC6S8NReayx7UC9Xb3Kb/3TgJDCcwqb8D2f/7nf+JrX/tatdYYJQcNBuVsFSKLHaAYUIoko6jQpGbI0sVrIbasJ41yBJQ5h0xQPHG8HxTDYmeCShfTbiaLdbt71+3dXQlZk6BF/IqSqiyPMTGrk9hTzvakvwQivjdBiRa5PrKTa3b3BP09OgOk1LTKlHfGGh4zrA1jGg/SODSJXwA6n/3f4hyM9yyrrKB5olx8o79PuBUQuD85A4SCoFD1aJkveL5Q/K4zz3LAw2b8MMeIIRurx+hmzjGeABrYLeakc7jfzzTX9Y3TWnBoMdrifEBegKWrSZ785CdXjgRtxFlp98pxY66lx4xxqAPgXJThanfN8nt/JTB0wJxB0SIhKCq84o9+9KPx3//930GGNnHNvP7TbFU8aDxelJbVlqwlLBXDICQ2jYJkYD7+8Y+vvGfi0CjRQXoizbqXNkEFCsqLnRlOxjTsxWMe85jbgafFNNoNUb1DwVxLPXtd2TNcapSZNG4GI8eQvyGjPK6M0zLe8ciQiTtl8R0skbsYQZMDWoRs+J8/AJDjm4Va+jF+s/dLoh/7ojO/9LJMgKPdGBgYFXhhzD3CHbBVjhcLDeFpc11AmfFOEhjnDsPaZSh5ng+jeLF2L5M9Yv495znPiSOPPLIybqx7zpjqZA9k+yavWrAvMsuYWbp2c7r83l8JDB0wt3pclBWDCIA+4YQTqjgfVriF9lXsvDdbdiVlyiRj20mLkDDIodZQehoC/VBs7brRWCvtR5mhFFxyMihFxcREHnq1eOywCR/4wAeqzOtuXgJSjmMpVxREnZXQUl9qoNyNTLo5NieFZQZBGQIYGJMANn/EuXlnXpgFzlhHzhqtUunWDWDuGO/nN5dT0U7j/LIdxjU1MCz8YpZ2M+NEoyF7+owt2C1XYPAbMWnBvG7AdCOzhR4rdcw7DBvzD6OpWwbN/sryFPRMupIVzDQ/c4/j3MCESoTZO+7m+ewP+s/9lNWB3CM/k21YimGkbmSylI5dUsCsYBncxO/wcKHPAFWTbjym7klgyaO4OA/aMHs3xqB9X4wO5N5QxlbqQfFKVQ4SmFUgJNBhpR977LEVXdauSEFdZlriKnz6p27dG2rQG/MaBZy3SiIDm7KpG40ZWDOYAyhW+0L2AJ/ghzfrphAwTNawdrkX7ya7WUnM+zpHGCeEhQgtAWKASc79sP0yA7QHowEDgvCRgM9xApgA0YwFGMScBBgxiDFIkYmx5fkCc/3Z/CwFTaY+yagYOcgQmp/vYASJHWsoyDR1IwNlqAEgOAvYWedlNkRKu5t7lWN7L4ElA8zSuQ4sM31RMEx44lWskwSonehQfZYfxPpF2WT6NCu7DAaLoRikr7m3xVZsx6CAGbmhmIjFv+9976u8ZQAZRdItMNNmLXSeg77g2rz0GgRmPYwcl+39UF8eVzReqFerh5mXq6GM6xm1WSF7Dv3AvHJDGT5b31qKHcqcP+aYWyu64xOfrTrG+MCAIwYNSPPiGoxl5h7nuClFBu1sTLQyqgfVcxgasFU8r2wCY7JbYDZZEgqfbGlAF1aOeQU7wP8AsHtgE4M3kVLjxvljv3U7/zSk6F/GAsaZoQd+kxmTGXE85dDLoORe7vOnElgywNxJ56FgAOivfOUrQdESlAGTjMSbZh6IYCz93ck9enlMM/ra7PJBgrEUFoqEONbb3/72KkzQSfwqe1JObulrDSSuj2JAzmb3mtSkIipeci9HVm+u1UlIR+CiP/W+nXPMO4DZP4xkgJx5yrEAnmu7naMac4ajABXHk9/p7dm+Oi2rl56/dyle3SPUKASo8F7dZlQmwrmhI2DeCl41wAqY8wfD5H7ZxOABY+YToNvs1asEx8z8Of9c6qknrNwEaec1srC6V92Q680IKleZrwSWFTCb7clAxEOj+hcJJsSz3MQCsHZySvMsJjAPA32NUiIzlr2yKRriLkrtSvnp/Qqyem2uT9Yj5nezr3O8Uaoue3/zHcjlvP5IoFP2qJnnmwFSIMrhCzOEjYE7fwFuxgzzE8/V5EHepdb9jXvk5Uz+7phUKoK4hqHfW5HO5DTOc3tLwZexy3Eu2eQaJmCZj2EGdWYDfP5mPdMrQ1SZIVfnE7ovA67ed24H33FMZqv6M4LKVecjgWUFzPWECuOcWuVQ2SzPoJg+65UBbKx5juvEO5iPgOc6J9PXeBM57jYojxkFQ7Y1XjJFHtynOlNcrZ4hGzRSYCZ25YQSn4t3wdv3Asq9HlWLc706xZ7Hg6Bt/ztuWtGzAgvzwzwL2ZacQOh1s/epIdEM+GxjXqebKWP1hRLM4QGZgdxmnzG/Zw9Wj7SfPaJ8ZBp4NuRnxTU386Fd5nvoSRdQ7mfPLOzaywqYOxGFE5uBChjiSVP9i2xv/icOhtUNiBtnc/A7UXPs1CUIAqk0m22pexKZvnYXJOgzLd/6M9Stbj9nUPQ7lVGml7OH6v9MViYunvFRRx1V1SmHjtNT6ESOegbcC3mhELKXglykzrIi7JWn0Gkby3FFAstZAjILUu1S8NkYzsuryvxbGqNh5IA5A6bLRrR4zdxmuQkJKyxHoXAC/wOe0OBms9YTWTLga5FmGlDgBrAAKrOv8dgxAOp0uiAq8GfvIHvWPI9LWTyWcwFd4mHEuUg04Y+1mQAwCTp8Jhv08MMPn03KcslSN0NXOpJ3wdnz/YzSKDGsbqRaji0S6EwCGvT1hD/nozqo2+Sxzu5ejuqXBEYamDP1nWmsbFW6jhEQhxLn3aUfZKqSrAVwswSE/0l8EbzNWOUc15DSkSRWMWGk0QXdTF8LZhYCsBKRBRvcexiQdWcnrgv48p0FEgBHd4LCS2aCCpI57jffCUzcTwYBGebSfsaWeeYcT+7XYC7XLRIYNQkY4+a50TEmq6lLNI7LGuWlNTJGFpgX2k05JoFxO5QAACAASURBVN0qw9IkNDe8Z+JAkTNJ/C6DI98DwIAkIMpv0N0uRbEM6ULb3qvzkQFGCm2Wzia+xWeenecxrlWAuVdSL9cpEvijBCyw5PxjvrkUCv1hDL0A89IaNQWY+9hf2QvPQJ5jwBnU8/e5WXq4Uu59bHJXlzahhPahIFAIxpXNbuWCud0lxtWViMvBRQJzSkDgxUA2E9s5lsNgXGSuLPEi5uGSQAHmPvZHHYyNBTtJ6rfOyVvGmHOyF8f3av1jrx47L43yf7eR0/tv9by9akO5TpHAqEogr/eGreKVGasCyEtzZBRgXpr9NjStzklrGg2ZPhs2L39oBFcaUiTQAwm4BMzQkZfESLYOQWGpeiDoAV+iAPOABb7cbpfXqOY1pDkLuyiG5dbr5XmGRQLOPwHadpk0yvfDxrINi+yGuR0FmIe5d5ZA25oVdMhFFgooL4FOLE1cshJoVVCl1fdL9kFHrOEFmEesw8vjFgkUCRQJFAkMtwQKMA93/5TWFQkUCRQJFAmMmAQKMI9Yh5fHLRIoEigSKBIYbgkUYB7u/imtKxIoEigSKBIYMQkUYB6xDi+PWyRQJFAkUCQw3BIowDzc/VNaVyRQJFAkUCQwYhIowDxiHV4et0igSKBIoEhguCVQgHm4+6e0rkigSKBIoEhgxCRQgHnEOrw8bpFAkUCRQJHAcEugAPNw909pXZFAkUCRQJHAiEmgAPOIdXh53CKBIoEigSKB4ZZAAebh7p/SuiKBIoEigSKBEZNAAeYR6/DyuEUCRQJFAkUCwy2BAszD3T+ldUUCRQJFAkUCIyaBAswj1uHlcYsEigSKBIoEhlsCBZiHu39K64oEigSKBIoERkwCBZhHrMPL4xYJFAkUCRQJDLcECjAPd/+U1hUJFAkUCRQJjJgECjCPWIeXxy0SKBIoEigSGG4JFGAe7v4prSsSKBIoEigSGDEJFGAesQ4vj1skUCRQJFAkMNwSKMA83P1TWlckUCRQJFAkMGISKMA8Yh1eHrdIoEigSKBIYLglUIB5uPuntK5IoEigSKBIYMQkUIB5xDq8PG6RQJFAkUCRwHBLoADzcPdPaV2RQJFAkUCRwIhJoADziHV4edwigSKBIoEigeGWQAHm4e6f0roigSKBIoEigRGTQAHmEevw8rhFAkUCRQJFAsMtgQLMw90/pXVFAkUCRQJFAiMmgQLMI9bh5XGLBIoEigSKBIZbAgWYh7t/SuuKBIoEigSKBEZMAgWYR6zDy+MWCRQJFAkUCQy3BAowD3f/lNYVCRQJFAkUCYyYBAowj1iHl8ctEigSKBIoEhhuCRRgHu7+Ka0rEigSKBIoEhgxCRRgHrEOL49bJFAkUCRQJDDcEijAPNz9U1pXJFAkUCRQJDBiEijAPGIdXh63SKBIoEigSGC4JVCAebj7p7SuSKBIoEigSGDEJFCAecQ6vDxukUCRQJFAkcBwS6AA83D3T2ldkUCRQJFAkcCISaAA84h1eHncIoEigSKBIoHhlkAB5uHun9K6IoEigSKBIoERk0AB5hHr8PK4RQJFAkUCRQLDLYECzMPdP6V1RQJFAkUCRQIjJoECzCPW4eVxiwSKBIoEigSGWwIFmIe7f0rrigSKBIoEigRGTAIFmEesw8vjFgkUCRQJFAkMtwQKMA93/5TWFQkUCRQJFAmMmAQKMI9Yh5fHLRIoEigSKBIYbgkUYB7u/imtKxIoEigSKBIYMQkUYB6xDi+PWyRQJFAkUCQw3BIowDzc/VNaVyRQJFAkUCQwYhIowDxiHV4et0igSKBIoEhguCVQgHm4+6e0rkigSKBIoEhgxCRQgHnEOrw8bpFAkUCRQJHAcEugAPNw909pXZFAkUCRQJHAiEmgAPOIdXh53CKBIoEigSKB4ZbAkAFzIyLGhltipXVFAkUCQyYB9Iavoj+GrHNKc+YhgbGpqalqVE9NTcXY2FiMj49Ho9GIFdMrorFic2yZiGg0VsZEI2J8bGOMNVbO4zZNTpkZj5nxzRUON2ZWxnRjJiYm18fY9JrqYNtDm3hNTEzEzMxM9T49PV21lWNory9/m5yc7Psx3Jf2zHWvdsfwDPzNdZ25juF56at2x3B92tLqXsrWY7imbVfO9XvNdYxjiH5pdZ35HsM16X/k7nPRlnyvhRyTZVm/jnLqxzE8g+PAcc6745/fF3KM8s7XsU8dw90eQ/u43lzXGcgxseU22UzFWEzG+MSKGIuJmK7mxkyMjTeiMYOemYzxsYhpzX/m79h4jM1s1SDTE1PBSGJ8RWMsJtCFXGlyLGamp27TQRHRmAjU5tj4lll9mfUTz9xMp851TDM9V79O0YWt9WWnurBbfdkLXchY6FRfzuLbJz/5yUqrMQiywhubXh03zZwXNzUujmkG6fTKGI+piOmdugJmlWb9pMnYHGPjY3HH7faKFeN7xBhXb9wYK2Pb6iFUQnkw10HCSa9i4dj5HiP4I4NW12l1jCDhRFK4+TrNjlHxohC9L9/l63RzDPfDWFFmza5TP4b7cv8MoLk9/C4AdnIM8nfwt7pOp8c4Zua6zlzH8Kz55X29ngA4iGOcW3Pdy2OUXz7WNudjsnGjYcLv8zlG5THXdTxGw6TZvfIxdb2icvJ7jeqsezo5JvdbNTZjbYCuMzMANOO5EQ3gd+VUjM1sE1NbxuO6G38TN204N8ZXXR173uUxMTGzU4zP7BQxNRMTK26Ixti10ZjeJ2JsOmYaG2OmsSlWrJyJ6ZnNMT6zc+VAzNw2VyIwojhuq67I7XEe+4zZyKrrlV4do67kfanqwqyHRl0XVg7S1Vdf3Tj77LNjy5Ytsd9++8Xd7na3OOOMM2L95oiZHU6Lme3PirEVm2N8em1MTK+KmRU3dAXMcZvHWz9p1aa7RGPLtrHhhl1j+pa9Yped9owDD9o3rvz91XH++edXAPOABzwgdt555/jBD34Qmzdvjjvf+c5xwAEHxOWXXx4XXHBBpYA45k53ulN8//vfr57hrne9a/zZn/1ZXHbZZfGrX/2qmjQcs9NOO80ewzPe//73j9/85jdx0UUXVU3j8x3veMfZY3bbbbe4733vG5dcckn1hzLiOjvssMPsMbvvvnvsv//+1TUuvfTSapJyzPbbbz97zB577BH3uc994te//nXVphUrVlT32m677WaPufvd7x73vve948ILL6yebeXKldUxa9eurZ6d59prr73iXve6V/ziF7+IP/zhD7F69eq43/3uF9tuu+3sdfbZZ5+4xz3uUcnvyiuvjDVr1lTX4V353POe94y99947fvazn8XVV18d22yzTXUM9/zhD39Y3Yv7cL9zzz03rr322uoeHMPznXLKKdUx++67b/Bs55xzTlx33XXV89AeXqeddlp1DM+NjBhfN9xwQyUXjqFvGWMcg/x23XXX+MlPfhI33XRT7LjjjpXcN23aVH3HMXx2XK5bt67qJ65z6623xllnnVUdQ/vucpe7xI9//ONYv3591d8cwzVpI8cwLnbZZZeqfRs2bKjGFte+/vrr47zzzquOeeADH1h9/6Mf/agacxzPMddcc038/Oc/r45hDHJ9juEz45LnQOa//OUvq3HJMTyLxzAukQd9Rz8zLjmG8eS9kANy/d3vfleNF14cc4c73KGSO+1hXDJWfvvb31bjjknMMYwVj6Ff6GfGpOOSY+hH27PnnnsG4+Xiiy+eHZccw7iyjxmXjCfa4rjkmFWrVs0ew1hirDAfeTZ+O/DAA6tx7nW4Btdi7DouuQ7j6dRTT61kSFtoEzJ2XHIMYHP66afPjkvGk+OSZ+ZeU5vH44wzTo8tUxtjn3vtHrvvuVOcfc6P44YbV8babXaLB/7ZA2Jq/LL49o/fEtdt+EbstM2j4uEHvygu+fnquOnaiB122BIPfNDdYt0Nd4qzz2Y8TcV97nPvalxy3XXrbo0dd9gpDjjgwLjp5hvinHPPjC1TG2L//e5f6RvGHGORcUmb83hi7DAueU7GHLqKY3hGxxNjl3FG3zDuGX8cc8UVVzTVhciL4zvVhYwVx1w7XYi8OSbrQuTAXMq6kDYzvtUri6ELmWu///3vqzFHe5rpQsYcckQH8gzou37oQsbuT3/60wXpQvCX+Y1OG5uens4Bmln8nBqPuOCaj8Rlt3w6ZiZviompO8T49JqYmtw0e4zUSra2O0XtFTOrYmzzXePP931prIkDY2xmPMbHNsf4WHOqXO+v0+vXvY1m57W7pp6B57Y7fj5tK+cUCRQJLEwC4+MbCXZVF5mJW+Pq6y6OS397fqy589Wx/Tb3ip22u2+sHF8bt275Q5x17rfiwis+HHfZ8cHxsAe+IO60zYEx3tiBE2NicmM0GuMRMytjZprQHfR3RKy8JcYaqyMak1FFzsZQmZtjZmbFwhpezi4SqElAzGmZ/DUdG+P8K/4jLr7hpJiZuDHGZ1bFxMxEbI47zF4qx3e7Ba2xFdfE+Oa94hH3fU1sGwfcFsNeHxHbDH1nSbXb0CyHoW98aWCRwLKTAHpjVQXOU9MbojF+U1x/02/je798a9x66/rYbu3OsdtdHhh73PWQWDN597jgig/EueecHtuuuUM8/OBj4q7bHh6NzbvE5EoAfjoasSkasTGmY1OMVRHp8ZiI7WNmem1MTnAfvsNBGX5dtey6ekQeqCUwNxrr4rzffTouuubrMTN+a4wTZ25MxeYVt1SiaVRW41Zne6xBgtbWJC2iO9V3ChCrs/qd7xqzP2yJ8Zjcsnc85oH/EGtj/wqYx8bWRaOxtqICc5yyV8BnHCN7+rmf67E9P+d4t8dzLSglKLt6LLM+dprFDEdkfJXHLBIYjATwbBsRW6YixiamqkTSmxrXxTkXfCou+sPnYvP072M8doydd9g/9rzzUTGz4oI4/8Ivxdj0NvHIB70+7rz2CTHRGI9bN10ev7vyrLju5l/GzbdcGhu3XBPbrXhE7LXH/rHnbg+MlRPm2ADiWxNVR/Ilz6qizwtqqv/LCpuFjIvWwDwd8dPfHx8XXPuZmJkYi7GZVTE+tj5Wbt4uNq/YFFugfaIRK6ZWxeTUytgytTpmZshenInxyemYXLElxiemYsvEpirTmozIiXGyqbdUhNNUTMbKqdXx+ANOiG1jn4gJrNRVceUVV1QxGxN1iB889KEPreKTvkxG0kvPyUQmm2VgN0nsq1/9ajzykY+sYhF1mppr56QDk2047sYbb6ziXE94whNmk9KISRK3OeKII6oYoBnNlXFyW6a09zWhRYMgJyG1MhIW0qnl3CKBIoGILWRij22Ia2/8VVz2h1PiunVnxU3rL45NUzfGijXTMbby5rj51nWxw7YHxQP2/etobN4Sv7joy7Hd2jVx5+0Oj+1X3D9Wr1odt2yYiMuv/0SsWRPx4Hu+Jiand4mYWBrsXs/GQWMrrU+GOxnrW1Pbp6IxcWOMxbYRM2sixjdVv01VxtGmmJj4I7vas3aMyIU6AubpcZIetwJzg6zFan3BZIxP3THGbrlT3PkO+8ROu+waa9fsHpNjO8WGTdfEH675cVx1w7nR2ObmiBWXBwmyjc27Rsysipi4OabHVjYF5ksvuaQKzj/iEY+ouoBEHZJhjj322ArwSMIhkA8Y4rHirZKJSMIP3wOGJFkA6CTLkHREMgVJLW9605viFa94RZXYQMISYEoCA+DItfiOJCgScviN69xyyy3VtT/3uc/F61//+qpNfPfFL36xSsIh6Ydjr7rqqirRiSQQE0FoG9fgd8CdJCHOpV0kgfBq522PyDgsj1kk0HMJTMWGioTGd5ua2RCbt9wYt9x6XVxz64/j2hsuj5s3Xhq3Tv0uNm65MSZWTMR2K/aOTZs2xvZr7xB773FA7Lbj4bFi+n6xoXFT3LjpG3Hmmd+NpzziuJiMXSLimojYvedtHtoLgseNTdEYXxdXr/t1XHDp6bG5cW31mRU2xOWjsTLGGmtjlx0OinvvdXhM9mhpbatcpk6+H1p5tmlYR8A8NdaYBebNEzNVEtjEll1i+/F7x4H3+su483b3js0N1jROxMTYmpienokVKyZjw8Zb49TzT4gbpr4SY6uvjpnNe0ajMRmx8vJoNHZqCsyXXHxxBcZHH3101XSycF/+8pfHcccdF1/+8pcrrxZww/MFSAHrQw89NF71qldVwEm2I9nPgCEZeQAv/z/nOc+Jf/mXf4mXvvSl8Y1vfCN+d/nlcOdVFu6jHvWo+MQnPlEBKufjBZNt+v73v7/KfqQNZB2/+tWvrq6Fp/zRj360uvaf//mfV9ejHc9+9rPjs5/97KzR8OIXvzje9ra3VRm8ZCJjEJDljPHw2Mc+tjq3APNSnTql3cMvAUJi1GVgrdPW1lbrmccjSHndOLUhblx/cdy05cfx80s+H/fb58mxdtU94/rrfhtXXPfdGJtZGXfb4VFxx903xx+uOituvGYmHv3gf4rJLTtuDclNDr8EetbCBktqG7Fl4oo47Rf/ETfMnBkb44YYG18Rq7eQKbc+YmbbiLHNsfGmPeJJf/F/Y9XM2q0yv235K7oTPcgLZ4qXy0GrteO3fZ+PwWECgAkZunSTc/N6ZI53PX1mLnv27ItwobmB+XfHxy+v/XRkj3lzY/tYsXm32OuOh8X993l4jDVWxLXXXBXXrP9B3Lrx8iorctvVu8Udt3lw7LLjg6sJcf5ln4rLr/9ONFZsiJnJm2Nm8rqY3nzHWDW9Jp540IdvR2XjMQPMxxxzTNVp/AF4L3jBCyogfsYznlGl7X/729+Opz/96fH5z3++WhrCkhiW+bBkA2Bl6QEp9PwGoAOCJ5xwQhx55JHV0pgXvehFcfPNN1fgixfNkh7ocpcVsGyBJRyHHHJItWQJKvsNb3hD1UV4vCeddFIcdthhVVtYevTc5z63Ams8fZa8nHzyyZXX/pWvfKW6Pmn673nPe+Kd73xnlQ7P8hOepbyKBIoE+iQBwHg2/WUrIGxFismKjaUuzdRMxC2Nc+P7P/3nWLHt1XGvnV8XO614bMTk9bFp5oxYt+HSWHfLHWJi4tbY/W73jp1WHlR5hdVrlIqMISvKWKy4NX50/vFxc5wSY6tWxfjU7rF2bJsYX3l9bFo/Gevj9Fh3w2Qcdcg3Y8X0VlaT5XbocfQiehlWEocIoGWZHUvKWD4Jq8mSIXQxDstBBx1UHQ/jyVJDlt/BirKcCz2NTmV5EcsqAWuX+/UqJ6lPo7Kjy3YNzI2pnWPXbR8VB+3zrBgfH4vzL/tyXHb9d2LLlnXV+r+pLVMxObFNrFm9Y9xh7Y5x8D3+JiYm1sb/nvHJWL/qf2N65TXRmNk+ZhqNpsD8m0svrdb8/fVf/3XVcQDf29/+9gqY8ZQf85jHVLTxf/3Xf8VLXvKS6h2Qe+Yzn1kBMJYV3vHXvva1at0q9PJ3vvOdCqQ/9KEPxcMf/vAKvDkegP3Hf/zHyiMHQOlwvGZ+Zy0iAA/YM3i+9KUvVVR4HZjxzjn28MMPrzxyjAXWkTKIAP5vfvOb8da3vrUamO973/sqD/rMM8+s1lAXYO5ojJaDigTmJ4GtCdWVF7c1KDoZ0VgRMUZG9U3RiDUx1VgbN2w6JU75+XGxx90eHjfceFXssO3d4t57HhmrZvaLmU0rYmpyKiYnN8fkGHnf4zEW5MmQBHvX+bVrCZ5VLRBDhBMb45SfHR83bT4l9tz1IbFy5sBYufqW2Lj52thu9X5x0TX/J666+vfx1IedEiumt1Y1ZK08IUVYSECX9eeANHqWNcasRYdJ5DPHUH+CPCCOQY/jHLGWGh0MgwlgA8wAPEwma5lhNTmO85YDC9kSmFnH99Pfkfz16ZgeI8luZYyPbYiV03eKP9/32LjrtofGr357Wpz7hw/GhjWnxB4rXxP73uPI2H71fnHV9RfGLy/7TNy85Uex66p94oD7/H9x/a3Xxam/fl1Mrbg+pjfdJ2LyyqbAfNlvfhPf/e53K6oaAP76179egSlgB3gCfCzMp3DEU57ylPje975XgeAb3/jG+MAHPlAVO4AmBhBZUE6HAsyANMAMRU58mEQuroG1hREAwHM9BgKeLpYYC8af+tSnVt9t3LgxXvva11ZTCisQjxkKHaOA+DGeMsdhTDDQ+B0j4sQTT4y3vOUt1fkf+chHqmvgMQPoPMtysO6WoJ4pTR4JCWxNNN3qJa/ais185I8lyOQwTUesH/tNnHHBO+MuOx4TO97t4rj40h/Fmnhg7LvHE2P15NqYqeoSrq6WR000SIS9TXi3Lyy3rCXaiJnYFGSib44fn/dvcdOG0+Neuz8uVs8cEo0158Uvzv913GO3J8QtE5+Miy45L55+6LcjGltLJuO4kCcEqOLkkB8EOKM7+R/nBzqakOBDHvKQqggNDhZFOzgPHAB00dFQ1jhe6FzAmMI1H/vYxypd/rKXvawCa2nypdwhLYGZjMZzLn9fXHjNp2OGirEzqwKi4g5rHhJH3PNfYmblxfH1c98Y0xt2iofs9aTYbZcD48abb44Nm9fFmm13jolVk3HBJd+P31z//2L/PZ4R99zpxfH9C58X1245J6Yad4oYuyUmN6+Kpxz80dim8ces7Ouvu2620g+WD3QydDSWF5QIVX+I1WI1QT0TE8ZiAgyhqInnUo0Hq4uKO1hQgCCDAkB80IMeVFHigC7X57NVnEgsw0rjmg9+8IOrqjtYcXjdeNcAMS8pGO5Dchegi0FAkhg0PAORxDBoGYwMDAsGHvd/2MMeVlmJDCruVYB5KU+f0valKQEAe0W1vGqGQiFj18Vvf/+zuHz9d+O+93hWzEytjSuvOy2mZzbG3rs+PLaLvZbmY/aw1QDzVGNjNMbG4pRz/m9cu/F7cc97PDRWNe4f26zeFLdcf6fYZoer4pIrPh9XXD4dRx3x3lgZe1YtQB+ig6kA961vfauioNGNADPAiw7md9hKKG5W5UBr8z3VvWBKSbIlZMgLPYz+BIzBB2hw2EkYTuPRPXz0RblU18C8x52Pjofu+rq47OqT49Tf/mvsdefHxIP3eFb86tofxq9/+7WYjstj9eSdY7+9nxY7rz0kTrvg3TGzaSoOvf9xcf7vT4hf/P7kaKy5MRrTK5sC89SWrYXhfeXi35Xhe9tSJP63Tm2WXK616/8mE9SXSNXXJ3NfvGETCPKyJq6BFefL+LdtrW82wHHW7c7JCvl8a+cuSs+XmxYJjKwEoLJXVcBMnHlm7NZYv+Ga+OmVx8XuuxwRu6w6OjbO/C4uvf79cded949dJ58zspKa1cM4JOT8jK+PU899f1yz8X9ixcptIqZ2jRUrpmNsZueYHr8sbtl0QWy6ae84+ogPxOq4W3U6OhXQxTvGG0Yv4gzxwpnBywW8+R4HCgcJ3Yjjxffoab9H3+KYoY9xkPC8LcsJrd1JXYml0JkdATO1cKrKX7E+9rv7y+MBd3x+XHD55+Kca06M++713LjP2mPisz8/OrY0fhETMRkTU6ti5zUHxSH3++f43c2nxNnnnRhPOuy9ceVN58Spv/jP2LL2xxGb7xaTm1fGUw7+f7FN4x6z65gbtyV8CYrGC/hssXsBzYIhrl32GAE4f59B3eNyZl8uJpLXHeeMwpyebzZhPi/fIxsQPkteYy2gF495KUyT0sblJQFizizv2QrMvKZmNsXV6y6KK9Z9Jnbb+ZExvuqquOyqk+Ouq14Tu91xaw34kX41ttL+jcl1cdq5/x5Xrf9mbJq5Lhoz28QMO3QRKpi8LmJ8OqZu+rN4xhH/EtvEVvBF77kjoJ95z5vT5M16rE8BoOPUoO9hLJvFjq1poW7l+OVQG6IlMJOt+NPL3xcXXP2p21HZ++399/GAHV8Uv/rdF+Lsqz4c99/n2bHvHZ4enzjriBhrTMf+uz0v1q37bVx9zc/icYccH+s23Rhn/uz4OPxBr4+rbv55nHr+p2PL2tNjbMuulcf89Id9LFZN73U7YM5eb+6wQU0MB5GAqve7HDp8UDIs9ykSGF4JVFlMFi6cbea69RE3ND4e11+3MaYbN8fqbW+NPbd7XaxdRXx5xF/VfpgA8y3xm6t+EJf84QexuXFVzDSoJkIFtLGI8VtjLFbFDqsPjvvf82mxdmLHERfa/B+/a2Dedecnxl/s8da4bv1pcfK5b459dj88Dr77UfHNH/+fuPmW6+PRD31X3LDhtPjxzz4Yjz/k47Fx+qo44+wT49EPfXn86or/ivN+882YXnNlxNR2TYH5qiuvnM1oJs5A0pdp8PN/zD+e2W5ROqBMXBnqhKQD4tbEiEnTz95tq+vkNs5V+rPdsxQjoJ2Eyu9FAguRgDUl/1g6cqoxFZtmfhNTm7atNrFYtfbGWDm2Q0zeRsku5G5L/tyqSksjYnJ9lQZ2y4abY2p8XcTY+hifwXChkMvWrLjVK3aKVZM73ZYwt+SffFEeoA0w///tnWuMXGUZx//nnJmdvfVKC7IsW0u5KYiIguXSSMAq0gQaIhITTIrhC+GLpMEvBj9BiE2RgCHhotwsIDEk+gkxDWi5aVu5FQqthVLa0hvtXjrd2Z05c17ze2ef5TDpdGfdpgvLOclkZs681+e88/6f+3uXl5h91EHSokglzWg/T4vPuFv5lgP662u/0lAp0KKzrlC+PF+7etfqtHlL9crbD2ogflPf/9Yz6h1+VRs3rtHlC3+uF9/5tT4+uEFxECgMc16Vfe3Fj6uQzJdCUny2avOmTT6siCxZGPRxo8chAI87pGdUFag4sEtgZ+Blnnj8jsoDcMXWwIvvgJyl26Q+96hjAe+mJsEbG8evFStW+FAs2iN++aqrrhq1XdAO5czGzGcuxmHt0DZ9ps+bZczUtX5trGgHaIPy1LcxMXY+21gze/Sk/D+yTqciBUaxmNhmc7EOVHV5f0ptkgzLkemQjIdhv0J9mg54KpKj6TklseSwz3fU1NpE6+QSRUlY0z6MmAaCiIQjSNK1vTG7xk+BjdUJsgAAEcVJREFUI8QxO63/aIXe2fuEWL4+XEoltel0fffMZeqZcZm27XxP695/QKW2tTqh8wcqtA6qeHC3ivsDnd79Q51z+o+0ftvv5YYW6OR5c/Xy6ysVa5cizdVQOKB8pU3XXvJHtSYLfOYYp3b9d/NmHw9MvC/ee4QgEb9GFi1imrmHQwBxyXhW2xm1S5Ys8Zm+zKMPAL7yyit9bDMXIA8oEqzOGbW42RN7jNc0rvcAJx7ThGK98MILPtSKEChijvECJPwJhwWAG09APAX5TFgXHtjPPfec97YGUAnFwpPbLsZJOzg6EKdHYhL64R6ATHsLFy70SVPw8sbjkHnizMBZqoQTEAJm6UfH/5izGhkFMgpkFJgoBUbizVxeDsd2n/2sKBeQcIXc4fgBFRSEMDtDijSSiGWi3X4J648bmF3Sra90nK9F5/xM+WC6tu18S6+9s1pDuX8oVJvCygwt6LlI55y+WAf2Jlq7Y4XOOGWxtn64RX2lVxTkD0rxDFVyxTGBGe87QqRuu+02XXPNNT5UCqmTrGDEN6NuJiPMM88842OCAT4AmXrENCNlP/744z4medGiRVq5cqWXfpFEiZlbtmyZnnzySQ+8SOgAIS8yhJGABLAG2Gmb9gBcQqOIi77xxhs9qJMhDFX3s88+67N/AeqM49Zbbx1dTuT5Boxx+YfRIAzgqaee8u0B9o888ohPNkJMNcDOWFetWuVTheLJyFxJhDJVgue/hP+zbMoZBb7gFODIotJIxpZc7bzqsCoXlBV7nSpIjeTc4c+u9pj9aXDNF3zux374YwPznicUo7JIUM+WVEYFHc9R9/TvaOHZV6tVJ8mVW9VXLKpSjjVzZrtaWge068B/tO71Z1WZ9pEKuS4Vi4Ny0R4FYUWB2lUNh5SrtOonl6z6jMSMKvuee+7x2bLIRU0WsPvuu0/XX3+9jxFGMkbqBCiJgwNIkZqRbvlMYhFUw0iv5M8m+JzTqRYvXqzly5frhhtu8O0ilZPxCymbBCUALECIBHznnXd6VTaSOdI6SUnuvfden1oT13xAnYQmgCz1iammX6RcVNSALeNHvY00DmNx0003eSmcNrds2eLBH5U5dRgnYIxtG00AL9T53Afk77//ft1xxx1+XlMhq82xX+ZZjxkFMgpMjAJOCWgcxCpWPtTGLc9rOO5XELYo4NRA0pxylnW1Rd0nnK/uE85Ti0/KUruaOfq2Poqmvm59BMzh/HzMYXc8PjqNxlZ/P/29mfmk6T3e8kfI/OW0fttv9PaeVaoGwagqO84f9MlGgnimZhfO1LzjLtDxnacpaunwxz4eKh3Q3v4N2tX7kobcVlWC2qkjPnN8gFIcY0QoDmDGK/u6RU98Bpjfe/ddD8x2wAM5sAEvsr2QOevqq6/2uVXJS430igoYFTdS76OPPuqTkfACzG655RYvMVOGHNk333yzV4lzetRdd93lQRopnOQkgD5p46gDqAKUJBDhqEiA2XJqE4dHBjIkWECbTDYwC3wmSxjqbYAf9TR5Xvnt9ttv95I9mWwIsEdSJosN/RKrh7RNPnBO1SLzDWXvvvtuzwigMn/ooYf8mOy4yon9wbLaGQUyCmQUGCcFsB9jYo4qWvfeH9TrVivWgE+vnEvwcG9VEvT6Pb58sEdLLv6lomrPqH8PwIQ203xzTMBAe2khqWngtVwSdnCFhcAa4NKO+d1YPgpmlAZmA3rro1lnXMrbOK1OOrSLfurDZdNtp6N5jMoW2mvlbD6NnsK4gTlUrDjEZSJS4NrVEneqVZ0KC/vk1KI4yalcHVY1PKQkLCmocuIIDgNgMhwU4jfnduaVq9SAuY3MXyM2ZlJyYq81mzDSMapfOxCCjFwALx7TSK4ErpN1C2AGxLHdIrGSFQYp+sUXX/TlcSAD4EiTSVA6NmNScJJZBmCH8EjWACrgiWTMd9rjnTEBskjA2IZRPZPJi8w1qNlxEsODG6CFCUACB2iXLl3qg+qR/AF+pGte5I+lDtI+88NOjdTNfLF/A/70hzqd8aBOx0t9KqSbG+eWkBXPKJBRYLIpwAlRxNDmnV7a8DsNhKtVHB5W1/ELNbtjhqpxzh/1W6psV6mvR0u/d6fylW6fLAThhX0bEyB7M34++OCY4yyghZDFXkp2MADXgJB3/GwQdti3uczJ1hJMsSeyj7OHsu+Tppl7aFDxG+IycKaOAXl9Iqs0sFOGtnhHywnGGDNhcdbp5FLGVFjs9eHAOx0GnHYOPtyjbQzMcaL1236rd3avUpKryiWRgmBIhfJ0VSKnchTLhbEiV1YY8+pRoopcvnY/Cas+/jlXLUi41ZNx1nV4Vz4OL8eZLBru0HXfe0ztOs273Uu1IyMZNGpgm7gFmKeDx40DSRPaAtmpZ1m8LFuXBaLzbgQyrscyc3GfBWILxjguCEc/6Qxids8eQPrhWwKTdPv2MNMclI3dPMY97zISjI+jmo3VyqX7nOz/adZ/RoGMAl8mCiRySUkuzGnNGw9qf2WNjpv7Nc1qX6gw7lc1blHYtl3vb39epd4uXXP5SgXDtcgYhAzCTe2ACgQlhBU0hmgYMdeRQpkz6kmjzAE/HCiEyY8LMOc+3xFuOPcAIQhBBQ0j+yTpOtGkkm4ZoYoyHJiBIy2MAL46pP3k7ATaw58HDSbaWECdMpRFW0kqZtqGqcC8iA8RIM1Y8V9ij8bcCMPB/DBRcg/GgnuE9zIn2mUe9Mu4mB8CmzELRxKyGodLDQ9p8/a/aeOOP6sYblSSH1DCWcxJmxIXebW1C52SMJYLYrUkbbVTXHi5SEraJdemJCz701iCoKyQ010q+VqWGNeuzvAcXXHRL9QZflWBDyssKUElktRCGAAsG7xxJEfiNAzMKduMLZbyFoKV5p4MUOtVH2lwPVzGLgNVA9Cx7Bxpzs3A2dQ6pupI3zfwP9x2YExEmiuzezbuZmhytLcam49xo2PR5Gj3n7WXUSCjwMQp4POLVKUk6tPLb92n3tI6nfX1S9W/d5qKxVfUUpivfGGWDpSeU9/usq699Gl/PCb/f/x9yGdNZAnSLJIsGlFAEgAzIAWc8RtCa4l0jKQMmGHOQ5KmHfZDOwIS7SROtYAo2lLAEgAECA3YidIx4OQ32keTisYVjSf1wRj8hdCmIhBh3mRs7JcAt4EyPkhoPpkTGlg+gyFoTxHoMF3CKADgOC2jCcUHCcCmLtpXNK5oai0cttGTaQjMqlZUqu7TvuJGbd3zb23dtV6x+hW27JILh71U7JSXcx1KXJtyASeP4JWHLTmRArz0qlKuT0GS84dou+FpiuLZas3P1anzLteJs8/V3PZzVbCDTQOpUq2M5sC2TT0tMbKxNwKY8QKzxQ3Xt5m2g6SBpBlgZgw23rGA0ICccgbAlnY0bYuoz8fdCJgtY5n1a8A8Fhg2cqIY7985rWGwuqbaMQZovG1m5TMKZBSYfAqQPKTqBpUEJb385sP65OBanXrqhYoPnay2tkMarBYVtcX6YNeTGh6I9OOLn1bBzfMgBhghSSIhA8xIzxzgQ7QJ9wAsJFxMigAnam/2DYCUaBkkWHx+AFIu/I849pF9C/8hNJxpYKYdzIGYCukf0yLlYQYAbSRr2ieqBpCkPqGqSMbGKCBhwxDgj0RZPvM7ZkzMpzAHjJv2AV2ka8YHYAP6mCo5EQuApjzMABI0zAUmSvb0I+FDY6/spKIkyXlH+GG3X/1Dm/XB9nXasXetKvpYSW6PXG5ICY5dSavC6JCE1Mz3AF/6Yu2VtCmIpyvvutQWLNCC7gvV0/UNteZPVF6zFLlIoQX8BxX1DwyOThhuCa4INQPcE+FRcDQGfMT88pABWC4eJNwT98zRwAz5ZpA3EOR3iERZuDNrk/K0g8qBrGOWGITfDWTSeV9px5KccJ9FyBjMTgJnRD2zh5g0D1DxG4uFetThO4uEBYXah8+8+J1x0o4lVzGmwiRkxk0yFhzEoFFaQoWbox/oaUlOqE+fXIyfdkw7YcyBSehpBw2jo92jjNXlN+iWtg+xYBmThXrZ2CZ/q8lGkFEgo0CzFKgBc2kEmB/SJ4PPK4gKOvOUK3Wwd7aiTjBir3bufUHu0Bz99LI/qUC8s3N+f2ZPZf9mH2dPQ50MSAKgqLXJLcGexx7EZyReQI267FtgANInoItkC4Cyp9Im+w1SLpIx+w8AyT4J2PMd+zTjIJ8Edmj2N9Ti7PsAP1IxKms+sz8iwfNO/og1a9b4dmkPKZo9lv2SsoyHuWB/pg57HO1SnnHDUCDFs/fiSIwa3upaDvDxS8xkxEnwmKv5UccaVKxeDRR7tWPvG/r4wKvqLb2rJDogFw4pjMpyDskYD2wSiePZVlUhPktzZp6ik+ac61/t+ZMUCeAETHMjUeqorvlekXPTPJHY5CEG3AcPBXUAxO3q6vIPClCFA4FzMSCFMICNAZQ9VMAS9QkgAUFZHIAuKgoeEvXoCwDjMw+ah8aDgNAsAH4zsIUh4DOLgwVGP5S3hcd9k655ICwmHiBMBpwXc6NOOgkJHB0LE7sHXKXZRXiYzIl5ouoxYDamgu8sPDulhbaxlTAPxgzY258D+wj2G/qgDDSgPPRiARtTQz0cHlic0IDPcI70yTscoEnZzIu++YPRF2Voh4VK+zwb6Ml8eGfO9R6WzW4OWbmMAhkFJo8CcUJAVEn/2vCA9pT+orLrVz7o0sxpc3XIfaTefkyIJQWD3brusofVmsqYZvthvTfyWPfZu8zkiB0ZQCMfRBrYKMN+w/7LHtRIy2mUS48hbWpLU7ZRmWbqNgRboptILdfE1ViV7VPV1SLEcZPHCBwE8E2BhiqHVIr3ad/ABm368O/af3CTXMt+hRFOYlJSmamcm6eerm9r/gkXaGbniWrPz1HOdSiygfnsMK6m9q7Jd/6FHQMOKg2ClmULaQsgMP0+AAPI8pDgSgBHO6MZcLDvADPAAPgBWNTBZkEZ2kR9AtdEG5QDDAFwQASuiMVDWcYBEAOGlDcJnXqUNeBjPCZJs6iwOTAf+gbU6ZMFQR0AkYcFA8B8AGe4P8pQloXGmGBIUJ0Y98VvgDugyVwYM/MFVAFa2uYe5eEcmTvgiYqF9mB4cMKgHwCfMVCf9mB8uGgH0AeIoTvzR8VD35YaFbDlM3Uoy58H8KZfnCBQ/cBBEo7GHwoamYaiifWZFckokFHgc0EBLzOrmuS0dfc/9cbmxzRY6VOYzFIY7lCc61VS7VGoRCfPPUOLvrlcLartIxO5zA/HTH2msUv7Ghl4W4jV4fx/JjKGyajbWJUtp8BLsSizObQUh62cEmzJrtUDaDUsa1gfak/vBm3+aLX6BnbKuUQ9Xefr1O4lmt56tgpRoFAtCpJAIZFS5iBW7axhsQfnYDTXahIkHvjSnI/lla73yq5XD/vWcOsfOcuNd7MfG2dm92jf2gWcLKe2eWjTNqDJlfbstj7MPgCow6kB3OY0xsIAkNPqc9pHwuceAGX5vO2h23nPppa3caQXGX0BbAA85U1dTxv0bfnDbY52P00n7sEoINkyDqRdxkK76b5oHy0FYG7e4fZnSLdvmg1jpGjfvNehG22jmUALQn+eBRthzqbCH2gy/rRZnxkFjj0FEiUqeZ+iOCgp0U45QmZ1nAqKVVGfpJMVaFihKorKs0QKi4leadBNm9TSprf6fX8q7CtHkJjHJqlxM2zcw/Ee9fUNqLXQoc7OGcpFZKnKKVB+7IZSJRo5WNWHG9kGP5baIt15IzVKM2UOV9eA1+ofqX1TX6cBrNnx2MJrZpzNENuem3GYabBMO3CZw9bhaN9MP9Yu4MzF3JtV5TTbflYuo0BGgWNDgfHswfV727EZ4dTpZcLAbJtvokGvxg4CNl8AuWafnqobcVpqbGY5NOsh3UxbEy1jWoV6e0kaoCfah9VPazCyP+vRomrWTkaBjAJTmQJHBZg9SPmMXjXD9qh9+9OjTqcsDf8fgP48MCvNjrtRTPd4HujniSkZz7izshkFMgpkFJgMCkwImD8zYDt33CPzZEwl6zOjQEaBjAIZBTIKfPEpcPSB2YMyntb2OgoeAF98OmczyCiQUSCjQEaBjAJNUeB/j7whybOI6okAAAAASUVORK5CYII=;sketch=0;" vertex="1" parent="1">
          <mxGeometry x="60" y="320" width="84.12" height="90" as="geometry" />
        </mxCell>
        <mxCell id="JxoalYLECDGrQTy4-0tJ-4" value="&lt;font style=&quot;font-size: 29px;&quot;&gt;Nombre del producto&amp;nbsp;&lt;/font&gt;" style="rounded=0;whiteSpace=wrap;html=1;fillColor=default;align=center;strokeWidth=0;" vertex="1" parent="1">
          <mxGeometry x="160" y="320" width="525.88" height="30" as="geometry" />
        </mxCell>
        <mxCell id="JxoalYLECDGrQTy4-0tJ-5" value="Carrito (1)" style="rounded=1;whiteSpace=wrap;html=1;sketch=0;fontSize=21;strokeWidth=0;" vertex="1" parent="1">
          <mxGeometry x="50" y="240" width="290" height="50" as="geometry" />
        </mxCell>
        <mxCell id="JxoalYLECDGrQTy4-0tJ-7" value="Guardados (0)" style="rounded=1;whiteSpace=wrap;html=1;sketch=0;fontSize=21;strokeWidth=0;" vertex="1" parent="1">
          <mxGeometry x="361" y="240" width="290" height="50" as="geometry" />
        </mxCell>
      </root>
    </mxGraphModel>
  </diagram>
</mxfile>
